{"glyphs":{"0":{"ha":868,"x_min":151,"x_max":715,"o":"m 151 1063 q 165 1097 151 1082 q 200 1111 179 1111 l 667 1111 q 701 1097 686 1111 q 715 1063 715 1082 l 715 -89 q 690 -183 715 -140 q 620 -252 664 -226 q 525 -278 576 -278 l 200 -278 q 165 -263 179 -278 q 151 -229 151 -249 l 151 1063 m 614 996 q 610 1006 614 1001 q 600 1010 606 1010 l 265 1010 q 256 1006 260 1010 q 251 996 251 1001 l 251 -162 q 256 -172 251 -168 q 265 -176 260 -176 l 525 -176 q 588 -151 561 -176 q 614 -89 614 -125 l 614 996 z "},"1":{"ha":868,"x_min":311,"x_max":557,"o":"m 529 -278 q 549 -269 540 -278 q 557 -250 557 -261 l 557 1063 q 542 1097 557 1082 q 508 1111 528 1111 l 339 1111 q 319 1103 328 1111 q 311 1083 311 1094 l 311 1038 q 319 1018 311 1026 q 339 1010 328 1010 l 442 1010 q 451 1006 447 1010 q 456 996 456 1001 l 456 -250 q 464 -269 456 -261 q 483 -278 472 -278 l 529 -278 z "},"2":{"ha":868,"x_min":158,"x_max":722,"o":"m 722 436 q 708 402 722 417 q 674 388 694 388 l 274 388 q 260 374 260 388 l 260 -89 q 285 -151 260 -125 q 347 -176 311 -176 l 694 -176 q 714 -185 706 -176 q 722 -204 722 -193 l 722 -250 q 714 -269 722 -261 q 694 -278 706 -278 l 347 -278 q 253 -252 296 -278 q 184 -183 210 -226 q 158 -89 158 -140 l 158 440 q 173 474 158 460 q 207 489 188 489 l 607 489 q 617 493 613 489 q 621 503 621 497 l 621 996 q 607 1010 621 1010 l 186 1010 q 167 1018 175 1010 q 158 1038 158 1026 l 158 1083 q 167 1103 158 1094 q 186 1111 175 1111 l 674 1111 q 708 1097 694 1111 q 722 1063 722 1082 l 722 436 z "},"3":{"ha":868,"x_min":153,"x_max":717,"o":"m 153 1083 q 161 1103 153 1094 q 181 1111 169 1111 l 668 1111 q 703 1097 689 1111 q 717 1063 717 1082 l 717 -89 q 691 -183 717 -140 q 622 -252 665 -226 q 528 -278 579 -278 l 181 -278 q 161 -269 169 -278 q 153 -250 153 -261 l 153 -204 q 161 -185 153 -193 q 181 -176 169 -176 l 528 -176 q 590 -151 564 -176 q 615 -89 615 -125 l 615 339 q 608 358 615 350 q 588 367 600 367 l 260 367 q 240 374 249 367 q 232 394 232 382 l 232 439 q 240 459 232 451 q 260 467 249 467 l 588 467 q 608 475 600 467 q 615 494 615 483 l 615 996 q 601 1010 615 1010 l 181 1010 q 161 1018 169 1010 q 153 1038 153 1026 l 153 1083 z "},"4":{"ha":868,"x_min":151,"x_max":717,"o":"m 689 171 q 708 163 700 171 q 717 143 717 154 l 717 97 q 708 78 717 86 q 689 69 700 69 l 628 69 q 608 61 617 69 q 600 42 600 53 l 600 -250 q 592 -269 600 -261 q 572 -278 583 -278 l 526 -278 q 507 -269 515 -278 q 499 -250 499 -261 l 499 42 q 490 61 499 53 q 471 69 482 69 l 342 69 q 247 95 290 69 q 177 164 203 121 q 151 258 151 207 l 151 1083 q 160 1103 151 1094 q 179 1111 168 1111 l 225 1111 q 244 1103 236 1111 q 253 1083 253 1094 l 253 258 q 279 197 253 222 q 342 171 306 171 l 471 171 q 490 179 482 171 q 499 199 499 188 l 499 1083 q 507 1103 499 1094 q 526 1111 515 1111 l 572 1111 q 592 1103 583 1111 q 600 1083 600 1094 l 600 199 q 608 179 600 188 q 628 171 617 171 l 689 171 z "},"5":{"ha":868,"x_min":151,"x_max":717,"o":"m 253 510 q 257 500 253 504 q 267 496 261 496 l 668 496 q 702 482 688 496 q 717 447 717 468 l 717 -89 q 691 -183 717 -140 q 622 -252 665 -226 q 526 -278 578 -278 l 179 -278 q 160 -269 168 -278 q 151 -250 151 -261 l 151 -204 q 160 -185 151 -193 q 179 -176 168 -176 l 526 -176 q 589 -151 563 -176 q 615 -89 615 -125 l 615 381 q 611 390 615 386 q 601 394 607 394 l 200 394 q 166 409 181 394 q 151 443 151 424 l 151 1063 q 166 1097 151 1082 q 200 1111 181 1111 l 689 1111 q 708 1103 700 1111 q 717 1083 717 1094 l 717 1038 q 708 1018 717 1026 q 689 1010 700 1010 l 267 1010 q 257 1006 261 1010 q 253 996 253 1001 l 253 510 z "},"6":{"ha":868,"x_min":151,"x_max":715,"o":"m 253 517 q 261 497 253 506 q 281 489 269 489 l 667 489 q 701 474 686 489 q 715 440 715 460 l 715 -89 q 690 -183 715 -140 q 620 -252 664 -226 q 525 -278 576 -278 l 200 -278 q 165 -263 179 -278 q 151 -229 151 -249 l 151 1063 q 165 1097 151 1082 q 200 1111 179 1111 l 688 1111 q 707 1103 699 1111 q 715 1083 715 1094 l 715 1038 q 707 1018 715 1026 q 688 1010 699 1010 l 267 1010 q 253 996 253 1010 l 253 517 m 614 374 q 610 383 614 379 q 600 388 606 388 l 281 388 q 261 379 269 388 q 253 360 253 371 l 253 -162 q 267 -176 253 -176 l 525 -176 q 588 -151 563 -176 q 614 -89 614 -125 l 614 374 z "},"7":{"ha":868,"x_min":153,"x_max":717,"o":"m 689 -278 q 708 -269 700 -278 q 717 -250 717 -261 l 717 1063 q 702 1097 717 1082 q 668 1111 688 1111 l 181 1111 q 160 1103 168 1111 q 153 1083 153 1094 l 153 1038 q 160 1018 153 1026 q 181 1010 168 1010 l 601 1010 q 611 1006 607 1010 q 615 996 615 1001 l 615 -250 q 624 -269 615 -261 q 643 -278 632 -278 l 689 -278 z "},"8":{"ha":868,"x_min":153,"x_max":717,"o":"m 153 1061 q 167 1095 153 1081 q 201 1110 181 1110 l 668 1110 q 702 1095 688 1110 q 717 1061 717 1081 l 717 -90 q 691 -185 717 -142 q 622 -253 665 -228 q 528 -279 579 -279 l 201 -279 q 167 -265 181 -279 q 153 -231 153 -250 l 153 1061 m 268 1008 q 254 994 254 1008 l 254 531 q 263 510 254 518 q 282 503 271 503 l 588 503 q 607 510 599 503 q 615 531 615 518 l 615 994 q 601 1008 615 1008 l 268 1008 m 615 374 q 607 393 615 385 q 588 401 599 401 l 282 401 q 263 393 271 401 q 254 374 254 385 l 254 -164 q 268 -178 254 -178 l 528 -178 q 590 -152 564 -178 q 615 -90 615 -126 l 615 374 z "},"9":{"ha":868,"x_min":153,"x_max":717,"o":"m 153 1063 q 167 1097 153 1082 q 201 1111 181 1111 l 668 1111 q 702 1097 688 1111 q 717 1063 717 1082 l 717 -89 q 691 -183 717 -140 q 622 -252 665 -226 q 526 -278 578 -278 l 181 -278 q 161 -269 169 -278 q 153 -250 153 -261 l 153 -204 q 161 -185 153 -193 q 181 -176 169 -176 l 526 -176 q 590 -151 564 -176 q 615 -89 615 -125 l 615 360 q 607 379 615 371 q 588 388 599 388 l 201 388 q 167 402 181 388 q 153 436 153 417 l 153 1063 m 588 489 q 607 497 599 489 q 615 517 615 506 l 615 996 q 601 1010 615 1010 l 268 1010 q 254 996 254 1010 l 254 503 q 258 493 254 497 q 268 489 263 489 l 588 489 z "}," ":{"ha":833,"x_min":0,"x_max":0,"o":""},"A":{"ha":833,"x_min":96,"x_max":736,"o":"m 663 -274 q 645 -267 653 -274 q 635 -249 638 -260 l 585 218 q 576 235 583 228 q 557 243 568 243 l 276 243 q 258 235 265 243 q 249 218 250 228 l 197 -249 q 187 -267 196 -260 q 167 -274 178 -275 l 122 -268 q 103 -258 111 -267 q 97 -237 96 -249 l 239 1068 q 254 1099 240 1086 q 288 1111 268 1111 l 546 1111 q 579 1099 565 1111 q 594 1068 593 1086 l 736 -237 l 736 -240 q 728 -259 736 -251 q 711 -268 721 -267 l 665 -274 l 663 -274 m 265 372 q 274 353 265 361 q 293 344 282 344 l 540 344 q 561 353 553 344 q 568 375 569 363 l 500 997 q 486 1010 497 1010 l 347 1010 q 338 1006 342 1010 q 333 997 333 1003 l 265 375 l 265 372 z "},"B":{"ha":833,"x_min":157,"x_max":678,"o":"m 678 556 q 662 479 678 515 q 618 417 646 443 q 662 354 646 390 q 678 278 678 318 l 678 -89 q 652 -183 678 -140 q 583 -252 626 -226 q 489 -278 540 -278 l 206 -278 q 172 -263 186 -278 q 157 -229 157 -249 l 157 1063 q 172 1097 157 1082 q 206 1111 186 1111 l 489 1111 q 583 1085 540 1111 q 652 1017 626 1060 q 678 922 678 974 l 678 556 m 258 494 q 267 475 258 483 q 286 467 275 467 l 489 467 q 551 493 525 467 q 578 556 578 519 l 578 922 q 551 984 578 958 q 489 1010 525 1010 l 272 1010 q 263 1006 267 1010 q 258 996 258 1001 l 258 494 m 578 278 q 551 340 578 314 q 489 367 525 367 l 286 367 q 267 358 275 367 q 258 339 258 350 l 258 -162 q 263 -172 258 -168 q 272 -176 267 -176 l 489 -176 q 551 -151 525 -176 q 578 -89 578 -125 l 578 278 z "},"C":{"ha":833,"x_min":157,"x_max":678,"o":"m 488 -278 q 583 -252 539 -278 q 652 -183 626 -226 q 678 -89 678 -140 l 678 -17 q 669 3 678 -6 q 650 11 661 11 l 604 11 q 585 3 593 11 q 576 -17 576 -6 l 576 -89 q 550 -151 576 -125 q 488 -176 524 -176 l 346 -176 q 284 -151 310 -176 q 258 -89 258 -125 l 258 922 q 284 984 258 958 q 346 1010 310 1010 l 488 1010 q 550 984 524 1010 q 576 922 576 958 l 576 850 q 585 831 576 839 q 604 822 593 822 l 650 822 q 669 831 661 822 q 678 850 678 839 l 678 922 q 652 1017 678 974 q 583 1085 626 1060 q 488 1111 539 1111 l 346 1111 q 251 1085 294 1111 q 183 1017 208 1060 q 157 922 157 974 l 157 -89 q 183 -183 157 -140 q 251 -252 208 -226 q 346 -278 294 -278 l 488 -278 z "},"D":{"ha":833,"x_min":142,"x_max":692,"o":"m 503 1111 q 597 1085 554 1111 q 666 1017 640 1060 q 692 922 692 974 l 692 -89 q 666 -183 692 -140 q 597 -252 640 -226 q 503 -278 554 -278 l 190 -278 q 156 -263 171 -278 q 142 -229 142 -249 l 142 1063 q 156 1097 142 1082 q 190 1111 171 1111 l 503 1111 m 590 922 q 565 984 590 958 q 503 1010 539 1010 l 257 1010 q 247 1006 251 1010 q 243 996 243 1001 l 243 -162 q 247 -172 243 -168 q 257 -176 251 -176 l 503 -176 q 565 -151 539 -176 q 590 -89 590 -125 l 590 922 z "},"E":{"ha":833,"x_min":157,"x_max":678,"o":"m 678 1038 q 669 1018 678 1026 q 650 1010 661 1010 l 272 1010 q 258 996 258 1010 l 258 517 q 267 497 258 506 q 286 489 275 489 l 635 489 q 654 481 646 489 q 663 461 663 472 l 663 415 q 654 396 663 404 q 635 388 646 388 l 286 388 q 267 379 275 388 q 258 360 258 371 l 258 -162 q 272 -176 258 -176 l 650 -176 q 669 -185 661 -176 q 678 -204 678 -193 l 678 -250 q 669 -269 678 -261 q 650 -278 661 -278 l 206 -278 q 171 -263 185 -278 q 157 -229 157 -249 l 157 1063 q 171 1097 157 1082 q 206 1111 185 1111 l 650 1111 q 669 1103 661 1111 q 678 1083 678 1094 l 678 1038 z "},"F":{"ha":833,"x_min":157,"x_max":678,"o":"m 678 1038 q 669 1018 678 1026 q 650 1010 661 1010 l 272 1010 q 258 996 258 1010 l 258 517 q 267 497 258 506 q 286 489 275 489 l 635 489 q 654 481 646 489 q 663 461 663 472 l 663 415 q 654 396 663 404 q 635 388 646 388 l 286 388 q 267 379 275 388 q 258 360 258 371 l 258 -250 q 250 -269 258 -261 q 231 -278 242 -278 l 185 -278 q 165 -269 174 -278 q 157 -250 157 -261 l 157 1063 q 171 1097 157 1082 q 206 1111 185 1111 l 650 1111 q 669 1103 661 1111 q 678 1083 678 1094 l 678 1038 z "},"G":{"ha":833,"x_min":149,"x_max":685,"o":"m 494 -278 q 590 -252 546 -278 q 659 -183 633 -226 q 685 -89 685 -140 l 685 368 q 670 402 685 388 q 636 417 656 417 l 408 417 q 389 408 397 417 q 381 389 381 400 l 381 343 q 389 324 381 332 q 408 315 397 315 l 569 315 q 583 301 583 315 l 583 -89 q 558 -151 583 -125 q 494 -176 532 -176 l 339 -176 q 276 -151 303 -176 q 250 -89 250 -125 l 250 922 q 276 984 250 958 q 339 1010 303 1010 l 494 1010 q 558 984 532 1010 q 583 922 583 958 l 583 604 q 592 585 583 593 q 611 576 600 576 l 657 576 q 676 585 668 576 q 685 604 685 593 l 685 922 q 659 1017 685 974 q 590 1085 633 1060 q 494 1111 546 1111 l 339 1111 q 244 1085 288 1111 q 174 1017 200 1060 q 149 922 149 974 l 149 -89 q 174 -183 149 -140 q 244 -252 200 -226 q 339 -278 288 -278 l 494 -278 z "},"H":{"ha":833,"x_min":121,"x_max":656,"o":"m 556 1083 q 563 1103 556 1094 q 583 1111 571 1111 l 628 1111 q 647 1103 639 1111 q 656 1083 656 1094 l 656 -250 q 647 -269 656 -261 q 628 -278 639 -278 l 583 -278 q 563 -269 571 -278 q 556 -250 556 -261 l 556 346 q 547 365 556 357 q 528 374 539 374 l 250 374 q 231 365 239 374 q 222 346 222 357 l 222 -250 q 214 -269 222 -261 q 194 -278 206 -278 l 149 -278 q 129 -269 138 -278 q 121 -250 121 -261 l 121 1083 q 129 1103 121 1094 q 149 1111 138 1111 l 194 1111 q 214 1103 206 1111 q 222 1083 222 1094 l 222 503 q 231 483 222 492 q 250 475 239 475 l 528 475 q 547 483 539 475 q 556 503 556 492 l 556 1083 z "},"I":{"ha":833,"x_min":367,"x_max":468,"o":"m 440 -278 q 460 -269 451 -278 q 468 -250 468 -261 l 468 1083 q 460 1103 468 1094 q 440 1111 451 1111 l 394 1111 q 375 1103 383 1111 q 367 1083 367 1094 l 367 -250 q 375 -269 367 -261 q 394 -278 383 -278 l 440 -278 z "},"J":{"ha":694,"x_min":196,"x_max":500,"o":"m 311 -278 q 406 -252 363 -278 q 474 -183 449 -226 q 500 -89 500 -140 l 500 1083 q 492 1103 500 1094 q 472 1111 483 1111 l 426 1111 q 407 1103 415 1111 q 399 1083 399 1094 l 399 -89 q 373 -151 399 -125 q 311 -176 347 -176 l 224 -176 q 204 -185 213 -176 q 196 -204 196 -193 l 196 -250 q 204 -269 196 -261 q 224 -278 213 -278 l 311 -278 z "},"K":{"ha":694,"x_min":64,"x_max":632,"o":"m 628 -199 q 632 -212 632 -206 q 619 -236 632 -228 l 581 -261 q 567 -265 574 -265 q 542 -251 550 -265 l 192 310 q 181 317 188 317 q 169 313 174 317 q 165 301 165 308 l 165 -250 q 157 -269 165 -261 q 138 -278 149 -278 l 92 -278 q 72 -269 81 -278 q 64 -250 64 -261 l 64 1083 q 72 1103 64 1094 q 92 1111 81 1111 l 138 1111 q 157 1103 149 1111 q 165 1083 165 1094 l 165 585 q 169 575 165 579 q 181 571 174 571 q 192 576 188 571 l 528 1088 q 551 1100 536 1100 q 567 1096 561 1100 l 604 1069 q 617 1046 617 1061 q 613 1032 617 1039 l 236 460 q 231 446 231 451 q 236 431 231 439 l 628 -199 z "},"L":{"ha":833,"x_min":222,"x_max":613,"o":"m 585 -278 q 604 -269 596 -278 q 613 -250 613 -261 l 613 -204 q 604 -185 613 -193 q 585 -176 596 -176 l 338 -176 q 324 -162 324 -176 l 324 1083 q 315 1103 324 1094 q 296 1111 307 1111 l 250 1111 q 231 1103 239 1111 q 222 1083 222 1094 l 222 -229 q 236 -263 222 -249 q 271 -278 250 -278 l 585 -278 z "},"M":{"ha":833,"x_min":76,"x_max":757,"o":"m 632 1089 q 642 1105 635 1099 q 660 1111 650 1111 l 729 1111 q 749 1103 740 1111 q 757 1083 757 1094 l 757 -250 q 749 -269 757 -261 q 729 -278 740 -278 l 683 -278 q 664 -269 672 -278 q 656 -250 656 -261 l 656 674 q 653 677 656 676 q 650 675 651 678 l 492 -96 q 482 -112 490 -106 q 464 -118 474 -118 l 369 -118 q 352 -112 360 -118 q 343 -96 344 -106 l 183 675 q 181 677 183 678 q 178 674 178 676 l 178 -250 q 169 -269 178 -261 q 150 -278 161 -278 l 104 -278 q 85 -269 93 -278 q 76 -250 76 -261 l 76 1083 q 85 1103 76 1094 q 104 1111 93 1111 l 175 1111 q 192 1105 185 1111 q 201 1089 199 1099 l 414 58 q 417 57 415 57 q 419 58 419 57 l 632 1089 z "},"N":{"ha":833,"x_min":151,"x_max":692,"o":"m 222 -278 q 242 -269 233 -278 q 250 -250 250 -261 l 250 835 q 252 838 250 838 q 256 835 254 838 l 571 -257 q 597 -278 578 -278 l 664 -278 q 683 -269 675 -278 q 692 -250 692 -261 l 692 1083 q 683 1103 692 1094 q 664 1111 675 1111 l 619 1111 q 600 1103 608 1111 q 592 1083 592 1094 l 592 46 q 590 42 592 43 q 586 44 588 42 l 285 1089 q 276 1104 283 1099 q 258 1110 268 1110 l 179 1110 q 160 1101 168 1110 q 151 1082 151 1093 l 151 -250 q 160 -269 151 -261 q 179 -278 168 -278 l 222 -278 z "},"O":{"ha":833,"x_min":157,"x_max":678,"o":"m 488 -278 q 583 -252 539 -278 q 652 -183 626 -226 q 678 -89 678 -140 l 678 922 q 652 1017 678 974 q 583 1085 626 1060 q 488 1111 539 1111 l 346 1111 q 251 1085 294 1111 q 183 1017 208 1060 q 157 922 157 974 l 157 -89 q 183 -183 157 -140 q 251 -252 208 -226 q 346 -278 294 -278 l 488 -278 m 488 1010 q 550 984 524 1010 q 576 922 576 958 l 576 -89 q 550 -151 576 -125 q 488 -176 524 -176 l 346 -176 q 284 -151 310 -176 q 258 -89 258 -125 l 258 922 q 284 984 258 958 q 346 1010 310 1010 l 488 1010 z "},"P":{"ha":833,"x_min":171,"x_max":663,"o":"m 244 -278 q 264 -269 256 -278 q 272 -250 272 -261 l 272 274 q 281 293 272 285 q 300 301 289 301 l 474 301 q 568 327 525 301 q 637 396 611 353 q 663 490 663 439 l 663 922 q 637 1017 663 974 q 568 1085 611 1060 q 474 1111 525 1111 l 219 1111 q 185 1097 200 1111 q 171 1063 171 1082 l 171 -250 q 179 -269 171 -261 q 199 -278 188 -278 l 244 -278 m 300 403 q 281 411 289 403 q 272 431 272 419 l 272 996 q 286 1010 272 1010 l 474 1010 q 535 984 510 1010 q 561 922 561 958 l 561 490 q 535 428 561 454 q 474 403 510 403 l 300 403 z "},"Q":{"ha":833,"x_min":157,"x_max":678,"o":"m 488 1111 q 583 1085 539 1111 q 652 1017 626 1060 q 678 922 678 974 l 678 -89 q 638 -206 678 -154 q 535 -272 597 -257 q 526 -278 529 -274 q 525 -289 524 -283 l 540 -354 l 540 -360 q 535 -378 540 -369 q 519 -387 529 -386 l 475 -397 l 468 -399 q 451 -392 458 -399 q 442 -376 444 -386 l 421 -289 q 407 -278 418 -278 l 346 -278 q 251 -252 294 -278 q 183 -183 208 -226 q 157 -89 157 -140 l 157 922 q 183 1017 157 974 q 251 1085 208 1060 q 346 1111 294 1111 l 488 1111 m 576 921 q 550 983 576 957 q 488 1010 524 1010 l 346 1010 q 284 984 310 1010 q 258 922 258 958 l 258 -89 q 284 -151 258 -125 q 346 -176 310 -176 l 378 -176 q 389 -172 385 -176 q 392 -160 393 -167 l 344 46 l 344 51 q 350 69 344 61 q 365 79 356 76 l 411 89 l 418 90 q 434 84 426 90 q 444 68 442 78 l 496 -162 q 503 -171 499 -168 q 514 -172 508 -174 q 559 -141 542 -164 q 576 -89 576 -118 l 576 921 z "},"R":{"ha":833,"x_min":164,"x_max":671,"o":"m 671 549 q 628 428 671 481 q 519 363 585 376 q 502 350 508 361 q 499 328 496 339 l 661 -222 q 663 -231 663 -225 q 657 -248 663 -240 q 642 -257 651 -256 l 599 -269 q 590 -271 596 -271 q 574 -265 581 -271 q 564 -251 567 -260 l 389 339 q 379 353 386 347 q 363 358 372 358 l 293 358 q 274 350 282 358 q 265 331 265 342 l 265 -250 q 257 -269 265 -261 q 238 -278 249 -278 l 192 -278 q 172 -269 181 -278 q 164 -250 164 -261 l 164 1063 q 178 1097 164 1082 q 213 1111 193 1111 l 481 1111 q 576 1085 532 1111 q 645 1017 619 1060 q 671 922 671 974 l 671 549 m 569 922 q 543 984 569 958 q 481 1010 517 1010 l 279 1010 q 269 1006 274 1010 q 265 996 265 1001 l 265 488 q 274 468 265 476 q 293 460 282 460 l 481 460 q 543 486 517 460 q 569 549 569 513 l 569 922 z "},"S":{"ha":833,"x_min":171,"x_max":663,"o":"m 474 -278 q 568 -252 525 -278 q 637 -183 611 -226 q 663 -89 663 -140 l 663 314 q 637 408 663 365 q 568 477 611 451 q 474 503 525 503 l 361 503 q 298 529 324 503 q 272 592 272 556 l 272 922 q 298 984 272 958 q 361 1010 324 1010 l 474 1010 q 535 984 510 1010 q 561 922 561 958 l 561 806 q 569 786 561 794 q 589 778 578 778 l 635 778 q 654 786 646 778 q 663 806 663 794 l 663 922 q 637 1017 663 974 q 568 1085 611 1060 q 474 1111 525 1111 l 361 1111 q 266 1085 310 1111 q 197 1017 222 1060 q 171 922 171 974 l 171 592 q 197 497 171 540 q 266 428 222 454 q 361 403 310 403 l 474 403 q 535 376 510 403 q 561 314 561 350 l 561 -89 q 535 -151 561 -125 q 474 -176 510 -176 l 361 -176 q 298 -151 324 -176 q 272 -89 272 -125 l 272 56 q 264 75 272 67 q 244 83 256 83 l 199 83 q 179 75 188 83 q 171 56 171 67 l 171 -89 q 197 -183 171 -140 q 266 -252 222 -226 q 361 -278 310 -278 l 474 -278 z "},"T":{"ha":833,"x_min":129,"x_max":708,"o":"m 681 1111 q 700 1103 692 1111 q 708 1083 708 1094 l 708 1038 q 700 1018 708 1026 q 681 1010 692 1010 l 497 1010 q 478 1001 486 1010 q 469 982 469 993 l 469 -250 q 461 -269 469 -261 q 442 -278 453 -278 l 396 -278 q 376 -269 385 -278 q 368 -250 368 -261 l 368 982 q 360 1001 368 993 q 340 1010 351 1010 l 157 1010 q 138 1018 146 1010 q 129 1038 129 1026 l 129 1083 q 138 1103 129 1094 q 157 1111 146 1111 l 681 1111 z "},"U":{"ha":833,"x_min":139,"x_max":644,"o":"m 543 1083 q 551 1103 543 1094 q 571 1111 560 1111 l 617 1111 q 636 1103 628 1111 q 644 1083 644 1094 l 644 -89 q 619 -183 644 -140 q 550 -252 593 -226 q 456 -278 507 -278 l 328 -278 q 233 -252 276 -278 q 165 -183 190 -226 q 139 -89 139 -140 l 139 1083 q 147 1103 139 1094 q 167 1111 156 1111 l 213 1111 q 232 1103 224 1111 q 240 1083 240 1094 l 240 -89 q 266 -151 240 -125 q 328 -176 292 -176 l 456 -176 q 517 -151 492 -176 q 543 -89 543 -125 l 543 1083 z "},"V":{"ha":833,"x_min":132,"x_max":703,"o":"m 601 1076 q 613 1094 604 1088 q 633 1099 622 1100 l 678 1092 q 696 1081 689 1090 q 701 1060 703 1071 l 471 -254 q 460 -272 468 -265 q 443 -278 453 -278 l 389 -278 q 372 -271 379 -278 q 363 -254 364 -264 l 132 1060 l 132 1064 q 138 1082 132 1074 q 154 1092 144 1090 l 200 1099 l 206 1099 q 223 1092 215 1099 q 232 1076 231 1086 l 414 38 q 416 36 414 36 q 419 38 418 36 l 601 1076 z "},"W":{"ha":833,"x_min":7,"x_max":825,"o":"m 625 -278 q 644 -271 636 -278 q 653 -254 651 -264 l 825 1069 l 825 1074 q 819 1091 825 1083 q 801 1101 813 1099 l 757 1107 l 754 1107 q 735 1100 743 1107 q 725 1083 726 1093 l 600 125 q 598 124 600 124 q 594 125 596 124 l 479 986 q 470 1003 478 996 q 451 1010 463 1010 l 383 1010 q 365 1003 372 1010 q 356 986 357 996 l 240 125 q 237 124 239 124 q 235 125 235 124 l 110 1083 q 99 1101 108 1094 q 78 1107 89 1108 l 33 1101 q 15 1090 22 1099 q 8 1069 7 1081 l 182 -254 q 191 -271 183 -264 q 210 -278 199 -278 l 264 -278 q 281 -272 274 -278 q 292 -254 289 -265 l 414 665 q 417 668 415 668 q 419 665 419 668 l 543 -254 q 553 -272 546 -265 q 571 -278 561 -278 l 625 -278 z "},"X":{"ha":833,"x_min":129,"x_max":704,"o":"m 685 1081 q 699 1066 694 1076 q 701 1044 704 1056 l 474 421 q 474 403 471 413 l 701 -221 q 703 -229 703 -224 q 698 -247 703 -239 q 685 -257 693 -254 l 642 -272 q 631 -274 638 -274 q 606 -256 613 -274 l 424 246 q 417 250 422 250 q 410 246 413 250 l 228 -256 q 213 -272 224 -267 q 192 -272 203 -276 l 149 -257 q 134 -242 139 -253 q 132 -221 129 -232 l 360 403 q 360 421 363 413 l 132 1044 q 131 1053 131 1047 q 135 1069 131 1061 q 149 1081 140 1078 l 192 1096 q 201 1097 194 1097 q 217 1092 210 1097 q 228 1079 225 1088 l 410 578 q 417 574 413 574 q 424 578 422 574 l 606 1079 q 620 1095 610 1090 q 642 1096 631 1100 l 685 1081 z "},"Y":{"ha":833,"x_min":131,"x_max":736,"o":"m 719 1090 q 736 1065 736 1083 l 733 1054 l 486 476 q 485 465 485 474 l 485 -250 q 476 -269 485 -261 q 457 -278 468 -278 l 411 -278 q 392 -269 400 -278 q 383 -250 383 -261 l 383 465 q 381 476 383 471 l 133 1054 q 131 1065 131 1063 q 147 1090 131 1083 l 190 1108 q 201 1111 199 1111 q 226 1093 219 1111 l 421 640 q 433 632 425 632 q 446 640 444 632 l 640 1093 q 656 1108 646 1104 q 676 1108 665 1113 l 719 1090 z "},"Z":{"ha":833,"x_min":149,"x_max":685,"o":"m 643 -278 q 663 -269 654 -278 q 671 -250 671 -261 l 671 -204 q 663 -185 671 -193 q 643 -176 654 -176 l 281 -176 q 269 -170 274 -176 q 268 -158 265 -164 l 683 1018 l 685 1028 l 685 1063 q 670 1097 685 1082 q 636 1111 656 1111 l 206 1111 q 186 1103 194 1111 q 178 1083 178 1094 l 178 1038 q 186 1018 178 1026 q 206 1010 194 1010 l 553 1010 q 564 1003 560 1010 q 565 992 568 997 l 151 -185 q 149 -194 149 -190 l 149 -229 q 163 -263 149 -249 q 197 -278 178 -278 l 643 -278 z "},"a":{"ha":517,"x_min":61,"x_max":524,"o":"m 451 129 q 460 110 451 118 q 479 101 468 101 l 496 101 q 515 93 507 101 q 524 74 524 85 l 524 28 q 515 8 524 17 q 496 0 507 0 l 181 0 q 96 35 131 0 q 61 121 61 71 l 61 835 q 96 920 61 885 q 181 956 131 956 l 331 956 q 416 920 381 956 q 451 835 451 885 l 451 129 m 322 101 q 342 110 333 101 q 350 129 350 118 l 350 835 q 344 849 350 843 q 331 854 339 854 l 181 854 q 167 849 174 854 q 161 835 161 843 l 161 121 q 167 107 161 113 q 181 101 174 101 l 322 101 z "},"b":{"ha":528,"x_min":61,"x_max":467,"o":"m 347 0 q 431 35 396 0 q 467 119 467 71 l 467 835 q 431 920 467 885 q 347 956 396 956 l 190 956 q 171 963 179 956 q 163 983 163 971 l 163 1318 q 154 1338 163 1329 q 135 1346 146 1346 l 89 1346 q 69 1338 78 1346 q 61 1318 61 1329 l 61 49 q 76 15 61 29 q 110 0 90 0 l 347 0 m 176 101 q 167 106 171 101 q 163 115 163 110 l 163 826 q 171 846 163 838 q 190 854 179 854 l 347 854 q 360 849 354 854 q 365 835 365 843 l 365 119 q 360 107 365 113 q 347 101 354 101 l 176 101 z "},"c":{"ha":528,"x_min":61,"x_max":467,"o":"m 467 722 q 458 703 467 711 q 439 694 450 694 l 393 694 q 374 703 382 694 q 365 722 365 711 l 365 835 q 360 849 365 843 q 347 854 354 854 l 182 854 q 168 849 174 854 q 163 835 163 843 l 163 119 q 168 107 163 113 q 182 101 174 101 l 347 101 q 360 107 354 101 q 365 119 365 113 l 365 247 q 374 267 365 258 q 393 275 382 275 l 439 275 q 458 267 450 275 q 467 247 467 258 l 467 119 q 431 35 467 71 q 347 0 396 0 l 182 0 q 97 35 132 0 q 61 119 61 71 l 61 835 q 97 920 61 885 q 182 956 132 956 l 347 956 q 431 920 396 956 q 467 835 467 885 l 467 722 z "},"d":{"ha":528,"x_min":61,"x_max":467,"o":"m 61 119 q 97 35 61 71 q 181 0 132 0 l 418 0 q 452 15 438 0 q 467 49 467 29 l 467 1318 q 458 1338 467 1329 q 439 1346 450 1346 l 393 1346 q 374 1338 382 1346 q 365 1318 365 1329 l 365 983 q 357 963 365 971 q 338 956 349 956 l 181 956 q 97 920 132 956 q 61 835 61 885 l 61 119 m 338 854 q 357 846 349 854 q 365 826 365 838 l 365 115 q 361 106 365 110 q 351 101 357 101 l 181 101 q 168 107 174 101 q 163 119 163 113 l 163 835 q 168 849 163 843 q 181 854 174 854 l 338 854 z "},"e":{"ha":528,"x_min":61,"x_max":467,"o":"m 425 0 q 444 8 436 0 q 453 28 453 17 l 453 74 q 444 93 453 85 q 425 101 436 101 l 182 101 q 168 107 174 101 q 163 119 163 113 l 163 407 q 171 426 163 418 q 190 435 179 435 l 347 435 q 431 469 396 435 q 467 554 467 504 l 467 835 q 431 920 467 885 q 347 956 396 956 l 182 956 q 97 920 132 956 q 61 835 61 885 l 61 119 q 97 35 61 71 q 182 0 132 0 l 425 0 m 190 535 q 171 543 179 535 q 163 563 163 551 l 163 835 q 168 849 163 843 q 182 854 174 854 l 347 854 q 360 849 354 854 q 365 835 365 843 l 365 554 q 360 540 365 546 q 347 535 354 535 l 190 535 z "},"f":{"ha":485,"x_min":61,"x_max":424,"o":"m 297 1244 q 283 1239 289 1244 q 278 1225 278 1233 l 278 983 q 286 963 278 971 q 306 956 294 956 l 396 956 q 415 947 407 956 q 424 928 424 939 l 424 882 q 415 863 424 871 q 396 854 407 854 l 306 854 q 286 846 294 854 q 278 826 278 838 l 278 28 q 269 8 278 17 q 250 0 261 0 l 206 0 q 185 8 193 0 q 178 28 178 17 l 178 826 q 169 846 178 838 q 150 854 161 854 l 89 854 q 69 863 78 854 q 61 882 61 871 l 61 928 q 69 947 61 939 q 89 956 78 956 l 150 956 q 169 963 161 956 q 178 983 178 971 l 178 1225 q 213 1310 178 1275 q 297 1346 247 1346 l 396 1346 q 415 1338 407 1346 q 424 1318 424 1329 l 424 1272 q 415 1253 424 1261 q 396 1244 407 1244 l 297 1244 z "},"g":{"ha":542,"x_min":61,"x_max":481,"o":"m 361 956 q 445 920 410 956 q 481 835 481 885 l 481 -269 q 445 -355 481 -319 q 361 -390 410 -390 l 89 -390 q 69 -382 78 -390 q 61 -362 61 -374 l 61 -317 q 69 -297 61 -306 q 89 -289 78 -289 l 361 -289 q 374 -283 368 -289 q 379 -269 379 -278 l 379 -28 q 371 -8 379 -17 q 351 0 363 0 l 182 0 q 97 35 132 0 q 61 121 61 71 l 61 835 q 97 920 61 885 q 182 956 132 956 l 361 956 m 351 101 q 371 110 363 101 q 379 129 379 118 l 379 835 q 374 849 379 843 q 361 854 368 854 l 182 854 q 168 849 174 854 q 163 835 163 843 l 163 121 q 168 107 163 113 q 182 101 174 101 l 351 101 z "},"h":{"ha":542,"x_min":61,"x_max":481,"o":"m 361 956 q 445 920 410 956 q 481 835 481 885 l 481 28 q 472 8 481 17 q 453 0 464 0 l 407 0 q 388 8 396 0 q 379 28 379 17 l 379 835 q 374 849 379 843 q 361 854 368 854 l 190 854 q 171 846 179 854 q 163 826 163 838 l 163 28 q 154 8 163 17 q 135 0 146 0 l 89 0 q 69 8 78 0 q 61 28 61 17 l 61 1318 q 69 1338 61 1329 q 89 1346 78 1346 l 135 1346 q 154 1338 146 1346 q 163 1318 163 1329 l 163 983 q 171 963 163 971 q 190 956 179 956 l 361 956 z "},"i":{"ha":224,"x_min":61,"x_max":163,"o":"m 135 1217 q 154 1208 146 1217 q 163 1189 163 1200 l 163 1061 q 154 1042 163 1050 q 135 1033 146 1033 l 89 1033 q 69 1042 78 1033 q 61 1061 61 1050 l 61 1189 q 69 1208 61 1200 q 89 1217 78 1217 l 135 1217 m 61 928 q 69 947 61 939 q 89 956 78 956 l 135 956 q 154 947 146 956 q 163 928 163 939 l 163 28 q 154 8 163 17 q 135 0 146 0 l 89 0 q 69 8 78 0 q 61 28 61 17 l 61 928 z "},"j":{"ha":226,"x_min":-99,"x_max":165,"o":"m 138 1218 q 157 1210 149 1218 q 165 1190 165 1201 l 165 1063 q 157 1042 165 1050 q 138 1035 149 1035 l 92 1035 q 72 1042 81 1035 q 64 1063 64 1050 l 64 1190 q 72 1210 64 1201 q 92 1218 81 1218 l 138 1218 m 138 956 q 157 947 149 956 q 165 928 165 939 l 165 -269 q 131 -354 165 -319 q 46 -389 96 -389 l -71 -389 q -90 -381 -82 -389 q -99 -361 -99 -372 l -99 -315 q -90 -296 -99 -304 q -71 -287 -82 -287 l 46 -287 q 58 -282 53 -287 q 64 -269 64 -276 l 64 928 q 72 947 64 939 q 92 956 81 956 l 138 956 z "},"k":{"ha":501,"x_min":61,"x_max":468,"o":"m 457 926 q 468 904 468 919 q 464 888 468 894 l 186 497 q 181 482 181 489 q 186 465 181 476 l 464 75 q 468 58 468 69 q 457 36 468 43 l 417 8 q 400 3 410 3 q 378 14 386 3 l 175 301 q 167 304 172 306 q 163 297 163 303 l 163 28 q 154 8 163 17 q 135 0 146 0 l 89 0 q 69 8 78 0 q 61 28 61 17 l 61 1318 q 69 1338 61 1329 q 89 1346 78 1346 l 135 1346 q 154 1338 146 1346 q 163 1318 163 1329 l 163 664 q 167 658 163 660 q 175 660 172 657 l 378 947 q 401 960 386 960 q 417 954 411 960 l 457 926 z "},"l":{"ha":347,"x_min":124,"x_max":225,"o":"m 124 1189 q 132 1208 124 1200 q 151 1217 140 1217 l 197 1217 q 217 1208 208 1217 q 225 1189 225 1200 l 225 28 q 217 8 225 17 q 197 0 208 0 l 151 0 q 132 8 140 0 q 124 28 124 17 l 124 1189 z "},"m":{"ha":774,"x_min":61,"x_max":713,"o":"m 592 956 q 677 920 642 956 q 713 835 713 885 l 713 28 q 704 8 713 17 q 685 0 696 0 l 639 0 q 619 8 628 0 q 611 28 611 17 l 611 835 q 606 849 611 843 q 592 854 600 854 l 456 854 q 443 849 449 854 q 438 835 438 843 l 438 28 q 429 8 438 17 q 410 0 421 0 l 364 0 q 344 8 353 0 q 336 28 336 17 l 336 835 q 331 849 336 843 q 317 854 325 854 l 190 854 q 171 846 179 854 q 163 826 163 838 l 163 28 q 154 8 163 17 q 135 0 146 0 l 89 0 q 69 8 78 0 q 61 28 61 17 l 61 985 q 69 1004 61 996 q 89 1013 78 1013 l 135 1013 q 154 1004 146 1013 q 163 985 163 996 l 163 969 q 176 956 163 956 l 317 956 q 374 940 347 956 q 386 938 382 938 q 399 940 393 938 q 456 956 426 956 l 592 956 z "},"n":{"ha":528,"x_min":61,"x_max":467,"o":"m 346 956 q 431 920 396 956 q 467 835 467 885 l 467 28 q 458 8 467 17 q 439 0 450 0 l 393 0 q 374 8 382 0 q 365 28 365 17 l 365 835 q 360 849 365 843 q 346 854 354 854 l 190 854 q 171 846 179 854 q 163 826 163 838 l 163 28 q 154 8 163 17 q 135 0 146 0 l 89 0 q 69 8 78 0 q 61 28 61 17 l 61 985 q 69 1004 61 996 q 89 1013 78 1013 l 135 1013 q 154 1004 146 1013 q 163 985 163 996 l 163 969 q 167 960 163 964 q 176 956 171 956 l 346 956 z "},"o":{"ha":542,"x_min":61,"x_max":481,"o":"m 361 956 q 445 920 410 956 q 481 835 481 885 l 481 119 q 445 35 481 71 q 361 0 410 0 l 181 0 q 97 35 132 0 q 61 119 61 71 l 61 835 q 97 920 61 885 q 181 956 132 956 l 361 956 m 379 835 q 374 849 379 843 q 361 854 368 854 l 181 854 q 168 849 174 854 q 163 835 163 843 l 163 119 q 168 107 163 113 q 181 101 174 101 l 361 101 q 374 107 368 101 q 379 119 379 113 l 379 835 z "},"p":{"ha":514,"x_min":61,"x_max":453,"o":"m 135 -390 q 154 -382 146 -390 q 163 -362 163 -374 l 163 -26 q 171 -7 163 -15 q 190 1 179 1 l 332 1 q 417 36 382 1 q 453 121 453 71 l 453 836 q 417 920 453 885 q 332 956 382 956 l 110 956 q 76 941 90 956 q 61 907 61 926 l 61 -362 q 69 -382 61 -374 q 89 -390 78 -390 l 135 -390 m 190 101 q 171 110 179 101 q 163 129 163 118 l 163 840 q 167 850 163 846 q 176 854 171 854 l 332 854 q 346 849 340 854 q 351 836 351 843 l 351 121 q 346 108 351 114 q 332 101 340 101 l 190 101 z "},"q":{"ha":513,"x_min":61,"x_max":451,"o":"m 350 -362 q 358 -382 350 -374 q 378 -390 367 -390 l 424 -390 q 443 -382 435 -390 q 451 -362 451 -374 l 451 907 q 438 941 451 926 q 403 956 424 956 l 181 956 q 97 920 132 956 q 61 836 61 885 l 61 121 q 97 36 61 71 q 181 1 132 1 l 322 1 q 342 -7 333 1 q 350 -26 350 -15 l 350 -362 m 350 129 q 342 110 350 118 q 322 101 333 101 l 181 101 q 168 108 174 101 q 163 121 163 114 l 163 836 q 168 849 163 843 q 181 854 174 854 l 336 854 q 350 840 350 854 l 350 129 z "},"r":{"ha":481,"x_min":61,"x_max":467,"o":"m 465 875 q 467 868 467 872 q 461 850 467 858 q 447 840 456 842 l 182 760 q 163 733 163 753 l 163 28 q 154 8 163 17 q 135 0 146 0 l 89 0 q 69 8 78 0 q 61 28 61 17 l 61 928 q 69 947 61 939 q 89 956 78 956 l 135 956 q 154 947 146 956 q 163 928 163 939 l 163 878 q 168 867 163 871 q 181 865 174 864 l 417 938 q 425 939 419 939 q 442 933 435 939 q 451 919 449 928 l 465 875 z "},"s":{"ha":528,"x_min":61,"x_max":467,"o":"m 467 751 q 458 732 467 740 q 439 724 450 724 l 393 724 q 374 732 382 724 q 365 751 365 740 l 365 835 q 360 849 365 843 q 347 854 354 854 l 182 854 q 168 849 174 854 q 163 835 163 843 l 163 569 q 168 557 163 563 q 182 551 174 551 l 347 551 q 431 516 396 551 q 467 431 467 481 l 467 119 q 431 35 467 71 q 347 0 396 0 l 196 0 q 112 35 147 0 q 76 119 76 71 l 76 211 q 85 231 76 222 q 104 239 93 239 l 150 239 q 169 231 161 239 q 178 211 178 222 l 178 119 q 183 107 178 113 q 196 101 189 101 l 347 101 q 360 107 354 101 q 365 119 365 113 l 365 431 q 360 444 365 439 q 347 450 354 450 l 182 450 q 97 485 132 450 q 61 569 61 519 l 61 835 q 97 920 61 885 q 182 956 132 956 l 347 956 q 431 920 396 956 q 467 835 467 885 l 467 751 z "},"t":{"ha":506,"x_min":61,"x_max":444,"o":"m 444 882 q 436 863 444 871 q 417 854 428 854 l 335 854 q 315 846 324 854 q 307 826 307 838 l 307 119 q 313 107 307 113 q 326 101 318 101 l 417 101 q 436 93 428 101 q 444 74 444 85 l 444 28 q 436 8 444 17 q 417 0 428 0 l 326 0 q 241 35 276 0 q 206 119 206 71 l 206 826 q 197 846 206 838 q 178 854 189 854 l 89 854 q 69 863 78 854 q 61 882 61 871 l 61 928 q 69 947 61 939 q 89 956 78 956 l 178 956 q 197 963 189 956 q 206 983 206 971 l 206 1189 q 214 1208 206 1200 q 233 1217 222 1217 l 279 1217 q 299 1208 290 1217 q 307 1189 307 1200 l 307 983 q 315 963 307 971 q 335 956 324 956 l 417 956 q 436 947 428 956 q 444 928 444 939 l 444 882 z "},"u":{"ha":569,"x_min":61,"x_max":508,"o":"m 451 129 q 460 110 451 118 q 479 101 468 101 l 481 101 q 501 93 493 101 q 508 74 508 85 l 508 28 q 501 8 508 17 q 481 0 493 0 l 181 0 q 96 35 131 0 q 61 119 61 71 l 61 928 q 69 947 61 939 q 89 956 78 956 l 133 956 q 153 947 146 956 q 161 928 161 939 l 161 119 q 167 107 161 113 q 181 101 174 101 l 322 101 q 342 110 333 101 q 350 129 350 118 l 350 928 q 358 947 350 939 q 378 956 367 956 l 424 956 q 443 947 435 956 q 451 928 451 939 l 451 129 z "},"v":{"ha":646,"x_min":60,"x_max":585,"o":"m 321 0 q 394 25 363 0 q 436 90 426 50 l 438 93 l 585 914 l 585 919 q 578 937 585 929 q 563 946 572 944 l 518 954 l 513 954 q 494 948 503 954 q 485 932 486 942 l 339 114 q 321 101 333 101 q 303 114 307 101 l 161 932 q 150 950 160 943 q 129 954 140 957 l 83 946 q 66 934 72 943 q 61 914 60 925 l 203 94 l 203 93 l 204 92 q 246 26 214 51 q 319 0 278 0 l 321 0 z "},"w":{"ha":813,"x_min":61,"x_max":751,"o":"m 650 924 q 660 942 651 935 q 679 949 668 950 l 725 946 q 744 935 736 944 q 751 915 751 926 l 690 106 l 690 104 q 653 32 685 61 q 576 0 621 3 l 571 0 q 496 26 528 0 q 454 94 464 51 l 454 96 l 453 99 l 408 493 q 406 495 408 496 q 403 493 404 494 l 358 96 l 357 94 q 315 26 347 51 q 240 0 283 0 l 235 0 q 158 32 190 3 q 121 104 126 61 l 121 107 l 61 915 l 61 918 q 69 937 61 929 q 86 946 76 944 l 132 949 l 135 949 q 153 941 146 949 q 163 924 161 933 l 222 117 q 239 101 224 101 q 258 114 254 101 l 343 865 q 352 882 344 875 q 371 889 360 889 l 440 889 q 459 883 451 889 q 468 865 467 876 l 554 114 q 572 101 557 101 q 590 117 588 101 l 650 924 z "},"x":{"ha":617,"x_min":61,"x_max":556,"o":"m 539 928 q 556 901 556 918 l 553 890 l 369 486 q 368 475 368 483 q 369 463 368 467 l 553 58 l 556 47 q 539 22 556 29 l 497 3 l 486 0 q 460 17 469 0 l 321 324 q 308 332 319 332 q 296 324 300 332 l 157 17 q 131 0 147 0 l 119 3 l 78 22 q 61 47 61 29 l 64 58 l 247 463 q 250 475 250 471 q 247 486 250 481 l 64 890 l 61 901 q 78 928 61 918 l 119 947 q 131 950 128 950 q 157 933 147 950 l 296 626 q 308 618 300 618 q 321 626 319 618 l 460 933 q 486 950 469 950 q 497 947 489 950 l 539 928 z "},"y":{"ha":586,"x_min":61,"x_max":526,"o":"m 426 933 q 438 951 429 944 q 458 956 447 957 l 504 947 q 521 935 515 944 q 525 914 526 925 l 303 -267 q 261 -337 294 -310 q 185 -364 228 -364 l 89 -364 q 69 -356 78 -364 q 61 -336 61 -347 l 61 -290 q 69 -271 61 -279 q 89 -262 78 -262 l 185 -262 q 203 -247 200 -262 l 250 -4 l 250 6 l 61 914 l 61 919 q 67 937 61 929 q 82 947 72 944 l 128 956 l 135 957 q 151 951 143 957 q 160 935 158 944 l 297 272 q 299 271 297 271 q 303 272 301 271 l 426 933 z "},"z":{"ha":543,"x_min":58,"x_max":482,"o":"m 439 0 q 458 8 450 0 q 467 28 467 17 l 467 76 q 458 96 467 88 q 439 104 450 104 l 203 104 q 191 110 196 104 q 189 122 186 115 l 478 867 q 482 890 482 878 q 463 935 482 917 q 417 954 444 954 l 111 954 q 92 946 100 954 q 83 926 83 938 l 83 878 q 92 858 83 867 q 111 850 100 850 l 340 850 q 351 844 347 850 q 353 832 356 838 l 65 88 q 61 64 58 76 q 80 19 61 38 q 126 0 99 0 l 439 0 z "},"一":{"ha":972,"x_min":53,"x_max":921,"o":"m 893 410 q 913 418 906 410 q 921 438 921 426 l 921 483 q 913 503 921 494 q 893 511 906 511 l 81 511 q 61 503 69 511 q 53 483 53 494 l 53 438 q 61 418 53 426 q 81 410 69 410 l 893 410 z "},"丁":{"ha":972,"x_min":53,"x_max":921,"o":"m 893 1088 q 913 1079 904 1088 q 921 1060 921 1071 l 921 1014 q 913 994 921 1003 q 893 986 904 986 l 592 986 q 572 978 581 986 q 564 958 564 969 l 564 -89 q 538 -183 564 -140 q 469 -252 513 -226 q 375 -278 426 -278 l 254 -278 q 234 -269 242 -278 q 226 -250 226 -261 l 226 -204 q 234 -185 226 -193 q 254 -176 242 -176 l 375 -176 q 438 -151 411 -176 q 464 -89 464 -125 l 464 958 q 456 978 464 969 q 436 986 447 986 l 81 986 q 60 994 68 986 q 53 1014 53 1003 l 53 1060 q 60 1079 53 1071 q 81 1088 68 1088 l 893 1088 z "},"七":{"ha":972,"x_min":53,"x_max":921,"o":"m 921 683 q 913 664 921 672 q 893 656 904 656 l 433 656 q 414 647 422 656 q 406 628 406 639 l 406 -89 q 431 -151 406 -125 q 494 -176 457 -176 l 854 -176 q 874 -185 865 -176 q 882 -204 882 -193 l 882 -250 q 874 -269 882 -261 q 854 -278 865 -278 l 494 -278 q 399 -252 443 -278 q 330 -183 356 -226 q 304 -89 304 -140 l 304 628 q 296 647 304 639 q 276 656 288 656 l 81 656 q 61 664 69 656 q 53 683 53 672 l 53 729 q 61 749 53 740 q 81 757 69 757 l 276 757 q 296 765 288 757 q 304 785 304 774 l 304 1083 q 313 1103 304 1094 q 332 1111 321 1111 l 378 1111 q 397 1103 389 1111 q 406 1083 406 1094 l 406 785 q 414 765 406 774 q 433 757 422 757 l 893 757 q 913 749 904 757 q 921 729 921 740 l 921 683 z "},"万":{"ha":972,"x_min":53,"x_max":921,"o":"m 921 1024 q 913 1004 921 1013 q 893 996 904 996 l 342 996 q 322 988 331 996 q 314 968 314 979 l 314 764 q 322 744 314 753 q 342 736 331 736 l 817 736 q 852 722 838 736 q 867 686 867 707 l 867 -87 q 841 -183 867 -139 q 772 -252 815 -226 q 678 -278 729 -278 l 533 -278 q 514 -269 522 -278 q 506 -250 506 -261 l 506 -204 q 514 -185 506 -193 q 533 -176 522 -176 l 678 -176 q 740 -150 714 -176 q 765 -87 765 -124 l 765 621 q 751 635 765 635 l 342 635 q 322 626 331 635 q 314 607 314 618 l 314 -72 q 301 -101 314 -89 l 138 -265 q 118 -274 129 -274 q 99 -265 107 -274 l 65 -232 q 57 -212 57 -224 q 65 -193 57 -201 l 206 -53 q 213 -36 213 -46 l 213 968 q 204 988 213 979 q 185 996 196 996 l 81 996 q 61 1004 69 996 q 53 1024 53 1013 l 53 1069 q 61 1089 53 1081 q 81 1097 69 1097 l 893 1097 q 913 1089 904 1097 q 921 1069 921 1081 l 921 1024 z "},"三":{"ha":972,"x_min":53,"x_max":921,"o":"m 865 974 q 885 982 876 974 q 893 1001 893 990 l 893 1047 q 885 1067 893 1058 q 865 1075 876 1075 l 108 1075 q 89 1067 97 1075 q 81 1047 81 1058 l 81 1001 q 89 982 81 990 q 108 974 97 974 l 865 974 m 839 372 q 858 381 850 372 q 867 400 867 389 l 867 446 q 858 465 867 457 q 839 474 850 474 l 135 474 q 115 465 124 474 q 107 446 107 457 l 107 400 q 115 381 107 389 q 135 372 124 372 l 839 372 m 893 -278 q 913 -269 904 -278 q 921 -250 921 -261 l 921 -204 q 913 -185 921 -193 q 893 -176 904 -176 l 81 -176 q 61 -185 69 -176 q 53 -204 53 -193 l 53 -250 q 61 -269 53 -261 q 81 -278 69 -278 l 893 -278 z "},"上":{"ha":972,"x_min":53,"x_max":921,"o":"m 893 -176 q 913 -185 904 -176 q 921 -204 921 -193 l 921 -250 q 913 -269 921 -261 q 893 -278 904 -278 l 81 -279 q 61 -271 69 -279 q 53 -251 53 -262 l 53 -206 q 61 -186 53 -194 q 81 -178 69 -178 l 360 -176 q 379 -168 371 -176 q 388 -149 388 -160 l 388 1083 q 396 1103 388 1094 q 415 1111 404 1111 l 461 1111 q 481 1103 472 1111 q 489 1083 489 1094 l 489 704 q 497 685 489 693 q 517 676 506 676 l 872 676 q 892 668 883 676 q 900 649 900 660 l 900 603 q 892 583 900 592 q 872 575 883 575 l 517 575 q 497 567 506 575 q 489 547 489 558 l 489 -149 q 497 -168 489 -160 q 517 -176 506 -176 l 893 -176 z "},"丑":{"ha":972,"x_min":53,"x_max":921,"o":"m 819 -149 q 828 -168 819 -160 q 847 -176 836 -176 l 893 -176 q 913 -185 904 -176 q 921 -204 921 -193 l 921 -250 q 913 -269 921 -261 q 893 -278 904 -278 l 81 -278 q 61 -269 69 -278 q 53 -250 53 -261 l 53 -204 q 61 -185 53 -193 q 81 -176 69 -176 l 281 -176 q 300 -168 292 -176 q 308 -149 308 -160 l 308 360 q 300 379 308 371 q 281 388 292 388 l 132 388 q 113 396 121 388 q 104 415 104 404 l 104 461 q 113 481 104 472 q 132 489 121 489 l 281 489 q 300 497 292 489 q 308 517 308 506 l 308 968 q 300 988 308 979 q 281 996 292 996 l 110 996 q 90 1004 99 996 q 82 1024 82 1013 l 82 1069 q 90 1089 82 1081 q 110 1097 99 1097 l 771 1097 q 805 1083 790 1097 q 819 1049 819 1068 l 819 -149 m 436 996 q 417 988 425 996 q 408 968 408 979 l 408 517 q 417 497 408 506 q 436 489 425 489 l 690 489 q 710 497 701 489 q 718 517 718 506 l 718 982 q 704 996 718 996 l 436 996 m 436 388 q 417 379 425 388 q 408 360 408 371 l 408 -149 q 417 -168 408 -160 q 436 -176 425 -176 l 690 -176 q 710 -168 701 -176 q 718 -149 718 -160 l 718 360 q 710 379 718 371 q 690 388 701 388 l 436 388 z "},"且":{"ha":972,"x_min":53,"x_max":921,"o":"m 783 -149 q 792 -168 783 -160 q 811 -176 800 -176 l 893 -176 q 913 -185 904 -176 q 921 -204 921 -193 l 921 -250 q 913 -269 921 -261 q 893 -278 904 -278 l 81 -278 q 61 -269 69 -278 q 53 -250 53 -261 l 53 -204 q 61 -185 53 -193 q 81 -176 69 -176 l 163 -176 q 182 -168 174 -176 q 190 -149 190 -160 l 190 1049 q 205 1083 190 1068 q 239 1097 219 1097 l 735 1097 q 769 1083 754 1097 q 783 1049 783 1068 l 783 -149 m 682 982 q 668 996 682 996 l 306 996 q 292 982 292 996 l 292 704 q 300 685 292 693 q 319 676 308 676 l 654 676 q 674 685 665 676 q 682 704 682 693 l 682 982 m 654 250 q 674 258 665 250 q 682 278 682 267 l 682 547 q 674 567 682 558 q 654 575 665 575 l 319 575 q 300 567 308 575 q 292 547 292 558 l 292 278 q 300 258 292 267 q 319 250 308 250 l 654 250 m 319 149 q 300 141 308 149 q 292 121 292 133 l 292 -149 q 300 -168 292 -160 q 319 -176 308 -176 l 654 -176 q 674 -168 665 -176 q 682 -149 682 -160 l 682 121 q 674 141 682 133 q 654 149 665 149 l 319 149 z "},"世":{"ha":972,"x_min":53,"x_max":921,"o":"m 763 53 q 748 19 763 33 q 714 4 733 4 l 464 4 q 429 19 443 4 q 415 53 415 33 l 415 772 q 407 792 415 783 q 388 800 399 800 l 299 800 q 278 792 286 800 q 271 772 271 783 l 271 -81 q 297 -143 271 -117 q 358 -169 322 -169 l 893 -169 q 913 -178 904 -169 q 921 -197 921 -186 l 921 -243 q 913 -262 921 -254 q 893 -271 904 -271 l 358 -271 q 264 -245 307 -271 q 195 -176 221 -219 q 169 -81 169 -132 l 169 772 q 161 792 169 783 q 142 800 153 800 l 81 800 q 61 808 69 800 q 53 828 53 817 l 53 874 q 61 893 53 885 q 81 901 69 901 l 142 901 q 161 910 153 901 q 169 929 169 918 l 169 1069 q 178 1089 169 1081 q 197 1097 186 1097 l 243 1097 q 263 1089 254 1097 q 271 1069 271 1081 l 271 929 q 278 910 271 918 q 299 901 286 901 l 388 901 q 407 910 399 901 q 415 929 415 918 l 415 1083 q 424 1103 415 1094 q 443 1111 432 1111 l 489 1111 q 508 1103 500 1111 q 517 1083 517 1094 l 517 929 q 525 910 517 918 q 544 901 533 901 l 633 901 q 653 910 644 901 q 661 929 661 918 l 661 1083 q 669 1103 661 1094 q 689 1111 678 1111 l 735 1111 q 754 1103 746 1111 q 763 1083 763 1094 l 763 929 q 771 910 763 918 q 790 901 779 901 l 893 901 q 913 893 904 901 q 921 874 921 885 l 921 828 q 913 808 921 817 q 893 800 904 800 l 790 800 q 771 792 779 800 q 763 772 763 783 l 763 53 m 661 772 q 653 792 661 783 q 633 800 644 800 l 544 800 q 525 792 533 800 q 517 772 517 783 l 517 119 q 521 110 517 114 q 531 106 525 106 l 647 106 q 657 110 653 106 q 661 119 661 114 l 661 772 z "},"丘":{"ha":972,"x_min":53,"x_max":921,"o":"m 893 -176 q 913 -185 904 -176 q 921 -204 921 -193 l 921 -250 q 913 -269 921 -261 q 893 -278 904 -278 l 81 -278 q 61 -269 69 -278 q 53 -250 53 -261 l 53 -204 q 61 -185 53 -193 q 81 -176 69 -176 l 126 -176 q 146 -168 138 -176 q 154 -149 154 -160 l 154 990 q 168 1024 154 1010 q 203 1039 182 1039 l 763 1039 q 779 1046 772 1039 l 804 1071 q 825 1079 813 1079 q 844 1071 836 1079 l 876 1039 q 885 1019 885 1031 q 876 1000 885 1008 l 826 950 q 797 938 814 938 l 269 938 q 256 924 256 938 l 256 647 q 264 628 256 636 q 283 619 272 619 l 851 619 q 871 611 863 619 q 879 592 879 603 l 879 546 q 871 526 879 535 q 851 518 863 518 l 721 518 q 701 510 710 518 q 693 490 693 501 l 693 -149 q 701 -168 693 -160 q 721 -176 710 -176 l 893 -176 m 592 490 q 583 510 592 501 q 564 518 575 518 l 283 518 q 264 510 272 518 q 256 490 256 501 l 256 -149 q 264 -168 256 -160 q 283 -176 272 -176 l 564 -176 q 583 -168 575 -176 q 592 -149 592 -160 l 592 490 z "},"丙":{"ha":972,"x_min":53,"x_max":921,"o":"m 921 1010 q 913 990 921 999 q 893 982 904 982 l 565 982 q 546 974 554 982 q 538 954 538 965 l 538 806 q 546 786 538 794 q 565 778 554 778 l 856 778 q 891 763 876 778 q 906 728 906 749 l 906 -89 q 880 -183 906 -140 q 811 -252 854 -226 q 717 -278 768 -278 l 651 -278 q 632 -269 640 -278 q 624 -250 624 -261 l 624 -204 q 632 -185 624 -193 q 651 -176 640 -176 l 717 -176 q 778 -151 753 -176 q 804 -89 804 -125 l 804 663 q 790 676 804 676 l 565 676 q 546 668 554 676 q 538 649 538 660 l 538 317 q 544 300 538 307 l 749 96 q 757 76 757 88 q 749 57 757 68 l 717 25 q 697 15 707 15 q 676 25 689 15 l 496 206 q 486 210 492 210 q 476 206 481 210 l 296 25 q 275 15 286 15 q 257 24 265 15 l 224 57 q 215 75 215 65 q 225 96 215 86 l 429 300 q 436 317 436 307 l 436 649 q 428 668 436 660 q 408 676 419 676 l 182 676 q 168 663 168 676 l 168 -250 q 160 -269 168 -261 q 140 -278 151 -278 l 94 -278 q 75 -269 83 -278 q 67 -250 67 -261 l 67 728 q 81 763 67 749 q 117 778 96 778 l 408 778 q 428 786 419 778 q 436 806 436 794 l 436 954 q 428 974 436 965 q 408 982 419 982 l 81 982 q 61 990 69 982 q 53 1010 53 999 l 53 1056 q 61 1075 53 1067 q 81 1083 69 1083 l 893 1083 q 913 1075 904 1083 q 921 1056 921 1067 l 921 1010 z "},"东":{"ha":972,"x_min":53,"x_max":921,"o":"m 331 908 q 313 903 321 908 q 304 888 306 897 l 192 506 l 192 501 q 196 492 192 496 q 206 489 200 489 l 444 489 q 464 497 456 489 q 472 517 472 506 l 472 793 q 481 813 472 804 q 500 821 489 821 l 546 821 q 565 813 557 821 q 574 793 574 804 l 574 517 q 581 497 574 506 q 601 489 589 489 l 878 489 q 897 481 889 489 q 906 461 906 472 l 906 415 q 897 396 906 404 q 878 388 889 388 l 601 388 q 581 379 589 388 q 574 360 574 371 l 574 -89 q 548 -183 574 -140 q 478 -252 522 -226 q 383 -278 435 -278 l 340 -278 q 321 -269 329 -278 q 313 -250 313 -261 l 313 -206 q 321 -185 313 -193 q 340 -178 329 -178 l 383 -178 q 446 -151 419 -178 q 472 -89 472 -125 l 472 360 q 464 379 472 371 q 444 388 456 388 l 129 388 q 95 401 110 388 q 81 436 81 415 l 81 485 l 82 492 l 199 890 l 199 894 q 195 904 199 900 q 186 908 192 908 l 81 908 q 60 917 68 908 q 53 936 53 925 l 53 982 q 60 1001 53 993 q 81 1010 68 1010 l 214 1010 q 240 1029 233 1010 l 256 1083 q 269 1100 260 1094 q 290 1103 279 1106 l 335 1090 q 351 1076 346 1086 q 353 1056 356 1065 l 344 1026 l 344 1024 q 349 1014 344 1018 q 358 1010 353 1010 l 893 1010 q 913 1001 904 1010 q 921 982 921 993 l 921 936 q 913 917 921 925 q 893 908 904 908 l 331 908 m 138 -192 q 118 -183 126 -192 q 110 -164 110 -175 l 110 258 q 118 278 110 269 q 138 286 126 286 l 183 286 q 203 278 194 286 q 211 258 211 269 l 211 -164 q 203 -183 211 -175 q 183 -192 194 -192 l 138 -192 m 789 -192 q 769 -183 778 -192 q 761 -164 761 -175 l 761 258 q 769 278 761 269 q 789 286 778 286 l 835 286 q 854 278 846 286 q 863 258 863 269 l 863 -164 q 854 -183 863 -175 q 835 -192 846 -192 l 789 -192 z "},"丢":{"ha":972,"x_min":53,"x_max":921,"o":"m 893 358 q 913 350 904 358 q 921 331 921 342 l 921 285 q 913 265 921 274 q 893 257 904 257 l 388 257 q 371 251 378 257 q 361 236 364 244 l 267 -157 l 267 -161 q 272 -172 267 -168 q 282 -176 276 -176 l 674 -176 q 735 -151 710 -176 q 761 -89 761 -125 l 761 71 q 769 90 761 82 q 789 99 778 99 l 835 99 q 854 90 846 99 q 863 71 863 82 l 863 -89 q 837 -183 863 -140 q 768 -252 811 -226 q 674 -278 725 -278 l 208 -278 q 173 -263 188 -278 q 158 -228 158 -249 l 158 -182 l 160 -174 l 258 238 l 258 242 q 254 253 258 249 q 243 257 250 257 l 81 257 q 61 265 69 257 q 53 285 53 274 l 53 331 q 61 350 53 342 q 81 358 69 358 l 415 358 q 435 367 426 358 q 443 386 443 375 l 443 576 q 435 596 443 588 q 415 604 426 604 l 94 604 q 75 613 83 604 q 67 632 67 621 l 67 678 q 75 697 67 689 q 94 706 83 706 l 415 706 q 435 714 426 706 q 443 733 443 722 l 443 924 q 435 943 443 935 q 415 951 426 951 l 110 951 q 90 960 99 951 q 82 979 82 968 l 82 1025 q 90 1044 82 1036 q 110 1053 99 1053 l 774 1053 q 790 1060 783 1053 l 815 1085 q 836 1093 824 1093 q 856 1085 847 1093 l 888 1053 q 896 1033 896 1044 q 888 1014 896 1022 l 838 964 q 808 951 825 951 l 572 951 q 553 943 561 951 q 544 924 544 935 l 544 733 q 553 714 544 722 q 572 706 561 706 l 879 706 q 899 697 890 706 q 907 678 907 689 l 907 632 q 899 613 907 621 q 879 604 890 604 l 572 604 q 553 596 561 604 q 544 576 544 588 l 544 386 q 553 367 544 375 q 572 358 561 358 l 893 358 z "},"个":{"ha":972,"x_min":53,"x_max":921,"o":"m 917 699 q 921 685 921 690 q 906 660 921 668 l 868 638 q 853 633 863 633 q 829 647 838 633 l 636 982 q 625 988 633 988 l 349 988 q 338 982 340 988 l 144 647 q 121 633 136 633 q 106 638 113 633 l 68 660 q 53 685 53 668 q 57 699 53 690 l 269 1068 q 285 1083 275 1078 q 307 1089 296 1089 l 667 1089 q 688 1083 678 1089 q 704 1068 699 1078 l 917 699 m 510 803 q 529 794 521 803 q 538 775 538 786 l 538 -250 q 529 -269 538 -261 q 510 -278 521 -278 l 464 -278 q 444 -269 453 -278 q 436 -250 436 -261 l 436 775 q 444 794 436 786 q 464 803 453 803 l 510 803 z "},"中":{"ha":972,"x_min":53,"x_max":921,"o":"m 538 900 q 546 881 538 889 q 565 872 554 872 l 872 872 q 906 858 892 872 q 921 824 921 844 l 921 331 q 895 236 921 279 q 826 167 869 193 q 731 142 782 142 l 565 142 q 546 133 554 142 q 538 114 538 125 l 538 -250 q 529 -269 538 -261 q 510 -278 521 -278 l 464 -278 q 444 -269 453 -278 q 436 -250 436 -261 l 436 114 q 428 133 436 125 q 408 142 419 142 l 101 142 q 67 156 82 142 q 53 190 53 169 l 53 824 q 67 858 53 844 q 101 872 82 872 l 408 872 q 428 881 419 872 q 436 900 436 889 l 436 1083 q 444 1103 436 1094 q 464 1111 453 1111 l 510 1111 q 529 1103 521 1111 q 538 1083 538 1094 l 538 900 m 154 257 q 168 243 154 243 l 408 243 q 428 251 419 243 q 436 271 436 260 l 436 743 q 428 763 436 754 q 408 771 419 771 l 168 771 q 154 757 154 771 l 154 257 m 819 757 q 806 771 819 771 l 565 771 q 546 763 554 771 q 538 743 538 754 l 538 271 q 546 251 538 260 q 565 243 554 243 l 731 243 q 794 269 768 243 q 819 331 819 294 l 819 757 z "},"丰":{"ha":972,"x_min":53,"x_max":921,"o":"m 893 186 q 913 178 904 186 q 921 158 921 169 l 921 113 q 913 93 921 101 q 893 85 904 85 l 565 85 q 545 76 553 85 q 538 57 538 68 l 538 -250 q 529 -269 538 -261 q 510 -278 521 -278 l 464 -278 q 444 -269 453 -278 q 436 -250 436 -261 l 436 57 q 428 76 436 68 q 408 85 419 85 l 81 85 q 61 93 69 85 q 53 113 53 101 l 53 158 q 61 178 53 169 q 81 186 69 186 l 408 186 q 428 194 419 186 q 436 214 436 203 l 436 433 q 428 453 436 444 q 408 461 419 461 l 108 461 q 89 469 97 461 q 81 489 81 478 l 81 535 q 89 554 81 546 q 108 563 97 563 l 408 563 q 428 571 419 563 q 436 590 436 579 l 436 810 q 428 829 436 821 q 408 838 419 838 l 94 838 q 75 846 83 838 q 67 865 67 854 l 67 911 q 75 931 67 922 q 94 939 83 939 l 408 939 q 428 947 419 939 q 436 967 436 956 l 436 1083 q 444 1103 436 1094 q 464 1111 453 1111 l 510 1111 q 529 1103 521 1111 q 538 1083 538 1094 l 538 967 q 545 947 538 956 q 565 939 553 939 l 878 939 q 897 931 889 939 q 906 911 906 922 l 906 865 q 897 846 906 854 q 878 838 889 838 l 565 838 q 545 829 553 838 q 538 810 538 821 l 538 590 q 545 571 538 579 q 565 563 553 563 l 864 563 q 883 554 875 563 q 892 535 892 546 l 892 489 q 883 469 892 478 q 864 461 875 461 l 565 461 q 545 453 553 461 q 538 433 538 444 l 538 214 q 545 194 538 203 q 565 186 553 186 l 893 186 z "},"串":{"ha":972,"x_min":53,"x_max":921,"o":"m 872 403 q 907 388 893 403 q 921 354 921 374 l 921 -28 q 907 -62 921 -47 q 872 -76 893 -76 l 565 -76 q 546 -85 554 -76 q 538 -104 538 -93 l 538 -250 q 529 -269 538 -261 q 510 -278 521 -278 l 464 -278 q 444 -269 453 -278 q 436 -250 436 -261 l 436 -104 q 428 -85 436 -93 q 408 -76 419 -76 l 101 -76 q 67 -62 82 -76 q 53 -28 53 -47 l 53 354 q 67 388 53 374 q 101 403 82 403 l 408 403 q 428 411 419 403 q 436 431 436 419 l 436 518 q 428 538 436 529 q 408 546 419 546 l 126 546 q 92 560 107 546 q 78 594 78 574 l 78 960 q 92 994 78 981 q 126 1008 107 1008 l 408 1008 q 428 1017 419 1008 q 436 1036 436 1025 l 436 1083 q 444 1103 436 1094 q 464 1111 453 1111 l 510 1111 q 529 1103 521 1111 q 538 1083 538 1094 l 538 1036 q 546 1017 538 1025 q 565 1008 554 1008 l 847 1008 q 882 994 868 1008 q 896 960 896 981 l 896 594 q 882 560 896 574 q 847 546 868 546 l 565 546 q 546 538 554 546 q 538 518 538 529 l 538 431 q 546 411 538 419 q 565 403 554 403 l 872 403 m 179 661 q 193 647 179 647 l 408 647 q 428 656 419 647 q 436 675 436 664 l 436 879 q 428 899 436 890 q 408 907 419 907 l 193 907 q 179 893 179 907 l 179 661 m 794 893 q 781 907 794 907 l 565 907 q 546 899 554 907 q 538 879 538 890 l 538 675 q 546 656 538 664 q 565 647 554 647 l 781 647 q 794 661 794 647 l 794 893 m 154 39 q 158 29 154 33 q 168 25 163 25 l 408 25 q 428 33 419 25 q 436 53 436 42 l 436 274 q 428 293 436 285 q 408 301 419 301 l 168 301 q 158 297 163 301 q 154 288 154 293 l 154 39 m 806 25 q 819 39 819 25 l 819 288 q 815 297 819 293 q 806 301 811 301 l 565 301 q 546 293 554 301 q 538 274 538 285 l 538 53 q 546 33 538 42 q 565 25 554 25 l 806 25 z "},"丹":{"ha":972,"x_min":53,"x_max":921,"o":"m 893 460 q 913 451 904 460 q 921 432 921 443 l 921 386 q 913 367 921 375 q 893 358 904 358 l 856 358 q 835 350 843 358 q 828 331 828 342 l 828 -89 q 802 -183 828 -140 q 733 -252 776 -226 q 638 -278 689 -278 l 565 -278 q 546 -269 554 -278 q 538 -250 538 -261 l 538 -204 q 546 -185 538 -193 q 565 -176 554 -176 l 638 -176 q 700 -151 674 -176 q 726 -89 726 -125 l 726 331 q 718 350 726 342 q 699 358 710 358 l 304 358 q 285 350 293 358 q 276 331 276 342 l 276 -142 q 263 -175 276 -162 l 174 -265 q 154 -274 165 -274 q 133 -265 142 -274 l 101 -233 q 93 -214 93 -225 q 101 -193 93 -201 l 171 -124 q 175 -114 175 -119 l 175 331 q 167 350 175 342 q 147 358 158 358 l 81 358 q 61 367 69 358 q 53 386 53 375 l 53 432 q 61 451 53 443 q 81 460 69 460 l 147 460 q 167 468 158 460 q 175 488 175 476 l 175 1063 q 190 1097 175 1082 q 224 1111 204 1111 l 779 1111 q 813 1097 799 1111 q 828 1063 828 1082 l 828 488 q 835 468 828 476 q 856 460 843 460 l 893 460 m 276 488 q 285 468 276 476 q 304 460 293 460 l 699 460 q 718 468 710 460 q 726 488 726 476 l 726 996 q 722 1006 726 1001 q 713 1010 718 1010 l 290 1010 q 281 1006 285 1010 q 276 996 276 1001 l 276 488 m 443 881 q 451 900 443 892 q 471 908 460 908 l 517 908 q 536 900 528 908 q 544 881 544 892 l 544 589 q 536 569 544 578 q 517 561 528 561 l 471 561 q 451 569 460 561 q 443 589 443 578 l 443 881 z "},"主":{"ha":972,"x_min":53,"x_max":921,"o":"m 893 -176 q 913 -185 904 -176 q 921 -204 921 -193 l 921 -250 q 913 -269 921 -261 q 893 -278 904 -278 l 81 -278 q 61 -269 69 -278 q 53 -250 53 -261 l 53 -204 q 61 -185 53 -193 q 81 -176 69 -176 l 408 -176 q 428 -168 419 -176 q 436 -149 436 -160 l 436 281 q 428 300 436 292 q 408 308 419 308 l 139 308 q 119 317 128 308 q 111 336 111 325 l 111 382 q 119 401 111 393 q 139 410 128 410 l 408 410 q 428 418 419 410 q 436 438 436 426 l 436 788 q 428 807 436 799 q 408 815 419 815 l 104 815 q 85 824 93 815 q 76 843 76 832 l 76 889 q 85 908 76 900 q 104 917 93 917 l 414 917 q 422 926 419 919 q 419 940 424 933 l 357 1046 q 353 1060 353 1054 q 368 1085 353 1076 l 406 1107 q 421 1111 411 1111 q 444 1096 436 1111 l 539 935 q 561 917 546 921 l 867 917 q 886 908 878 917 q 894 889 894 900 l 894 843 q 886 824 894 832 q 867 815 878 815 l 565 815 q 546 807 554 815 q 538 788 538 799 l 538 438 q 546 418 538 426 q 565 410 554 410 l 836 410 q 856 401 847 410 q 864 382 864 393 l 864 336 q 856 317 864 325 q 836 308 847 308 l 565 308 q 546 300 554 308 q 538 281 538 292 l 538 -149 q 546 -168 538 -160 q 565 -176 554 -176 l 893 -176 z "},"丽":{"ha":972,"x_min":53,"x_max":921,"o":"m 893 1090 q 913 1082 904 1090 q 921 1063 921 1074 l 921 1017 q 913 997 921 1006 q 893 989 904 989 l 81 989 q 61 997 69 989 q 53 1017 53 1006 l 53 1063 q 61 1082 53 1074 q 81 1090 69 1090 l 893 1090 m 81 -271 q 61 -262 69 -271 q 53 -243 53 -254 l 53 839 q 67 873 53 858 q 101 888 82 888 l 410 888 q 444 873 429 888 q 458 839 458 858 l 458 -89 q 433 -183 458 -140 q 363 -252 407 -226 q 268 -278 319 -278 q 249 -269 257 -278 q 240 -250 240 -261 l 240 -204 q 249 -185 240 -193 q 268 -176 257 -176 q 331 -151 304 -176 q 357 -89 357 -125 l 357 772 q 353 782 357 778 q 343 786 349 786 l 168 786 q 158 782 163 786 q 154 772 154 778 l 154 -243 q 146 -262 154 -254 q 126 -271 138 -271 l 81 -271 m 515 839 q 530 873 515 858 q 564 888 544 888 l 872 888 q 906 873 892 888 q 921 839 921 858 l 921 -89 q 895 -183 921 -140 q 826 -252 869 -226 q 732 -278 783 -278 q 713 -269 721 -278 q 704 -250 704 -261 l 704 -204 q 713 -185 704 -193 q 732 -176 721 -176 q 794 -151 768 -176 q 819 -89 819 -125 l 819 772 q 806 786 819 786 l 631 786 q 621 782 625 786 q 617 772 617 778 l 617 -243 q 608 -262 617 -254 q 589 -271 600 -271 l 543 -271 q 524 -262 532 -271 q 515 -243 515 -254 l 515 839 m 278 649 q 298 640 290 649 q 306 621 306 632 l 306 147 q 298 128 306 136 q 278 119 290 119 l 233 119 q 214 128 222 119 q 206 147 206 136 l 206 621 q 214 640 206 632 q 233 649 222 649 l 278 649 m 742 649 q 761 640 753 649 q 769 621 769 632 l 769 147 q 761 128 769 136 q 742 119 753 119 l 696 119 q 676 128 685 119 q 668 147 668 136 l 668 621 q 676 640 668 632 q 696 649 685 649 l 742 649 z "},"举":{"ha":972,"x_min":51,"x_max":922,"o":"m 175 822 q 156 831 164 822 q 147 850 147 839 l 147 1083 q 156 1103 147 1094 q 175 1111 164 1111 l 221 1111 q 240 1103 232 1111 q 249 1083 249 1094 l 249 850 q 240 831 249 839 q 221 822 232 822 l 175 822 m 464 822 q 444 831 453 822 q 436 850 436 839 l 436 1083 q 444 1103 436 1094 q 464 1111 453 1111 l 510 1111 q 529 1103 521 1111 q 538 1083 538 1094 l 538 850 q 529 831 538 839 q 510 822 521 822 l 464 822 m 753 822 q 733 831 742 822 q 725 850 725 839 l 725 1083 q 733 1103 725 1094 q 753 1111 742 1111 l 799 1111 q 818 1103 810 1111 q 826 1083 826 1094 l 826 850 q 818 831 826 839 q 799 822 810 822 l 753 822 m 913 408 q 922 389 922 400 q 913 368 922 378 l 882 338 q 863 329 874 329 q 843 338 851 329 l 703 475 q 690 504 690 488 l 690 642 q 682 661 690 653 q 663 669 674 669 l 310 669 q 290 661 299 669 q 282 642 282 653 l 282 504 q 269 475 282 488 l 129 338 q 110 329 121 329 q 90 338 99 329 l 60 368 q 51 389 51 376 q 60 408 51 400 l 174 522 q 181 539 181 529 l 181 642 q 172 661 181 653 q 153 669 164 669 l 81 669 q 61 678 69 669 q 53 697 53 686 l 53 743 q 61 763 53 754 q 81 771 69 771 l 893 771 q 913 763 904 771 q 921 743 921 754 l 921 697 q 913 678 921 686 q 893 669 904 669 l 819 669 q 800 661 808 669 q 792 642 792 653 l 792 539 q 799 522 792 529 l 913 408 m 815 76 q 835 68 826 76 q 843 49 843 60 l 843 3 q 835 -17 843 -8 q 815 -25 826 -25 l 565 -25 q 546 -33 554 -25 q 538 -53 538 -42 l 538 -250 q 529 -269 538 -261 q 510 -278 521 -278 l 464 -278 q 444 -269 453 -278 q 436 -250 436 -261 l 436 -53 q 428 -33 436 -42 q 408 -25 419 -25 l 157 -25 q 138 -17 146 -25 q 129 3 129 -8 l 129 49 q 138 68 129 60 q 157 76 146 76 l 408 76 q 428 85 419 76 q 436 104 436 93 l 436 274 q 428 293 436 285 q 408 301 419 301 l 310 301 q 290 310 299 301 q 282 329 282 318 l 282 375 q 290 394 282 386 q 310 403 299 403 l 408 403 q 428 411 419 403 q 436 431 436 419 l 436 556 q 444 575 436 567 q 464 583 453 583 l 510 583 q 529 575 521 583 q 538 556 538 567 l 538 431 q 546 411 538 419 q 565 403 554 403 l 663 403 q 682 394 674 403 q 690 375 690 386 l 690 329 q 682 310 690 318 q 663 301 674 301 l 565 301 q 546 293 554 301 q 538 274 538 285 l 538 104 q 546 85 538 93 q 565 76 554 76 l 815 76 z "},"乌":{"ha":972,"x_min":53,"x_max":921,"o":"m 231 440 q 244 426 231 426 l 872 426 q 908 414 896 426 q 921 378 921 401 l 921 -89 q 895 -183 921 -140 q 826 -252 869 -226 q 731 -278 782 -278 l 332 -278 q 304 -250 304 -278 l 304 -204 q 332 -176 304 -176 l 731 -176 q 793 -151 767 -176 q 819 -89 819 -125 l 819 311 q 806 325 819 325 l 178 325 q 142 338 156 325 q 129 374 129 351 l 129 976 q 142 1013 129 1000 q 178 1025 156 1025 l 414 1025 q 442 1053 442 1025 l 442 1083 q 469 1111 442 1111 l 515 1111 q 543 1083 543 1111 l 543 1053 q 571 1025 543 1025 l 822 1025 q 858 1013 846 1025 q 871 976 871 1000 l 871 576 q 858 541 871 554 q 822 528 846 528 l 560 528 q 532 556 532 528 l 532 601 q 560 629 532 629 l 756 629 q 769 643 769 629 l 769 910 q 756 924 769 924 l 244 924 q 231 910 231 924 l 231 440 m 603 138 q 631 110 631 138 l 631 64 q 603 36 631 36 l 81 36 q 53 64 53 36 l 53 110 q 81 138 53 138 l 603 138 z "},"乎":{"ha":972,"x_min":53,"x_max":921,"o":"m 893 388 q 913 379 904 388 q 921 360 921 371 l 921 314 q 913 294 921 303 q 893 286 904 286 l 574 286 q 553 278 561 286 q 546 258 546 269 l 546 -89 q 520 -183 546 -140 q 451 -252 494 -226 q 356 -278 407 -278 l 240 -278 q 221 -269 229 -278 q 213 -250 213 -261 l 213 -204 q 221 -185 213 -193 q 240 -176 229 -176 l 356 -176 q 418 -151 392 -176 q 444 -89 444 -125 l 444 258 q 436 278 444 269 q 417 286 428 286 l 81 286 q 61 294 69 286 q 53 314 53 303 l 53 360 q 61 379 53 371 q 81 388 69 388 l 417 388 q 436 396 428 388 q 444 415 444 404 l 444 924 q 436 943 444 935 q 417 951 428 951 l 96 951 q 76 960 85 951 q 68 979 68 968 l 68 1025 q 76 1044 68 1036 q 96 1053 85 1053 l 775 1053 q 792 1060 785 1053 l 817 1085 q 838 1093 825 1093 q 857 1085 849 1093 l 889 1053 q 897 1033 897 1044 q 889 1014 897 1022 l 839 964 q 810 951 826 951 l 574 951 q 553 943 561 951 q 546 924 546 935 l 546 415 q 553 396 546 404 q 574 388 561 388 l 893 388 m 168 460 q 149 468 157 460 q 140 488 140 476 l 140 851 q 149 871 140 863 q 168 879 157 879 l 214 879 q 233 871 225 879 q 242 851 242 863 l 242 488 q 233 468 242 476 q 214 460 225 460 l 168 460 m 807 879 q 826 871 818 879 q 835 851 835 863 l 835 488 q 826 468 835 476 q 807 460 818 460 l 761 460 q 742 468 750 460 q 733 488 733 476 l 733 851 q 742 871 733 863 q 761 879 750 879 l 807 879 z "},"乏":{"ha":972,"x_min":53,"x_max":921,"o":"m 94 938 q 75 946 83 938 q 67 965 67 954 l 67 1011 q 75 1031 67 1022 q 94 1039 83 1039 l 799 1039 q 815 1046 808 1039 l 840 1071 q 861 1079 849 1079 q 881 1071 872 1079 l 913 1039 q 921 1019 921 1031 q 913 1000 921 1008 l 863 950 q 833 938 850 938 l 94 938 m 893 -176 q 913 -185 904 -176 q 921 -204 921 -193 l 921 -250 q 913 -269 921 -261 q 893 -278 904 -278 l 101 -278 q 67 -263 82 -278 q 53 -229 53 -249 l 53 -197 q 67 -164 53 -176 l 756 553 q 760 563 760 557 q 756 572 760 568 q 746 576 751 576 l 124 576 q 104 585 113 576 q 96 604 96 593 l 96 650 q 104 669 96 661 q 124 678 113 678 l 408 678 q 428 685 419 678 q 436 706 436 693 l 436 838 q 444 857 436 849 q 464 865 453 865 l 510 865 q 529 857 521 865 q 538 838 538 849 l 538 706 q 546 685 538 693 q 565 678 554 678 l 858 678 q 892 663 878 678 q 907 629 907 649 l 907 582 q 893 549 907 563 l 217 -153 q 213 -161 213 -157 q 217 -172 213 -168 q 228 -176 222 -176 l 893 -176 z "},"乐":{"ha":972,"x_min":74,"x_max":914,"o":"m 886 510 q 906 501 897 510 q 914 482 914 493 l 914 436 q 906 417 914 425 q 886 408 897 408 l 581 408 q 561 400 569 408 q 553 381 553 392 l 553 -89 q 527 -183 553 -140 q 458 -252 501 -226 q 364 -278 415 -278 l 335 -278 q 315 -269 324 -278 q 307 -250 307 -261 l 307 -204 q 315 -185 307 -193 q 335 -176 324 -176 l 364 -176 q 426 -151 400 -176 q 451 -89 451 -125 l 451 381 q 443 400 451 392 q 424 408 435 408 l 122 408 q 88 423 103 408 q 74 457 74 438 l 74 1019 q 88 1053 74 1039 q 122 1068 103 1068 l 785 1068 q 801 1075 794 1068 l 826 1100 q 847 1108 835 1108 q 867 1100 858 1108 l 899 1068 q 907 1049 907 1060 q 899 1029 907 1038 l 849 979 q 819 967 836 967 l 189 967 q 179 963 183 967 q 175 953 175 958 l 175 524 q 179 514 175 518 q 189 510 183 510 l 424 510 q 443 518 435 510 q 451 538 451 526 l 451 833 q 460 853 451 844 q 479 861 468 861 l 525 861 q 544 853 536 861 q 553 833 553 844 l 553 538 q 561 518 553 526 q 581 510 569 510 l 886 510 m 163 301 q 182 293 174 301 q 190 274 190 285 l 190 -192 q 182 -211 190 -203 q 163 -219 174 -219 l 117 -219 q 97 -211 106 -219 q 89 -192 89 -203 l 89 274 q 97 293 89 285 q 117 301 106 301 l 163 301 m 828 301 q 847 293 839 301 q 856 274 856 285 l 856 -192 q 847 -211 856 -203 q 828 -219 839 -219 l 782 -219 q 763 -211 771 -219 q 754 -192 754 -203 l 754 274 q 763 293 754 285 q 782 301 771 301 l 828 301 z "},"乖":{"ha":972,"x_min":53,"x_max":921,"o":"m 893 778 q 913 769 904 778 q 921 750 921 761 l 921 704 q 913 685 921 693 q 893 676 904 676 l 558 676 q 539 669 547 676 q 531 649 531 661 l 531 -250 q 522 -269 531 -261 q 503 -278 514 -278 l 457 -278 q 438 -269 446 -278 q 429 -250 429 -261 l 429 649 q 421 669 429 661 q 401 676 413 676 l 81 676 q 61 685 69 676 q 53 704 53 693 l 53 750 q 61 769 53 761 q 81 778 69 778 l 401 778 q 421 786 413 778 q 429 806 429 794 l 429 942 q 421 961 429 953 q 401 969 413 969 l 110 969 q 90 978 99 969 q 82 997 82 986 l 82 1043 q 90 1063 82 1054 q 110 1071 99 1071 l 783 1071 q 800 1078 793 1071 l 825 1103 q 846 1111 833 1111 q 865 1103 857 1111 l 897 1071 q 906 1051 906 1063 q 897 1032 906 1040 l 847 982 q 818 969 835 969 l 558 969 q 539 961 547 969 q 531 942 531 953 l 531 806 q 539 786 531 794 q 558 778 547 778 l 893 778 m 300 589 q 319 581 311 589 q 328 561 328 572 l 328 -92 q 319 -111 328 -103 q 300 -119 311 -119 l 254 -119 q 235 -111 243 -119 q 226 -92 226 -103 l 226 8 q 218 28 226 19 q 199 36 210 36 l 81 36 q 61 44 69 36 q 53 64 53 53 l 53 110 q 61 129 53 121 q 81 138 69 138 l 199 138 q 218 146 210 138 q 226 165 226 154 l 226 306 q 218 325 226 317 q 199 333 210 333 l 81 333 q 61 341 69 333 q 53 361 53 349 l 53 406 q 61 425 53 417 q 81 433 69 433 l 199 433 q 218 442 210 433 q 226 461 226 450 l 226 561 q 235 581 226 572 q 254 589 243 589 l 300 589 m 893 525 q 913 517 904 525 q 921 497 921 508 l 921 276 q 906 242 921 257 q 872 228 892 228 l 761 228 q 742 219 750 228 q 733 200 733 211 l 733 17 q 747 3 733 3 l 893 3 q 913 -6 904 3 q 921 -25 921 -14 l 921 -71 q 913 -90 921 -82 q 893 -99 904 -99 l 681 -99 q 646 -84 660 -99 q 632 -50 632 -69 l 632 561 q 640 581 632 572 q 660 589 649 589 l 706 589 q 725 581 717 589 q 733 561 733 572 l 733 357 q 742 338 733 346 q 761 329 750 329 l 806 329 q 819 343 819 329 l 819 497 q 828 517 819 508 q 847 525 836 525 l 893 525 z "},"九":{"ha":972,"x_min":53,"x_max":921,"o":"m 775 -162 q 779 -172 775 -168 q 789 -176 783 -176 l 893 -176 q 913 -185 904 -176 q 921 -204 921 -193 l 921 -250 q 913 -269 921 -261 q 893 -278 904 -278 l 722 -278 q 688 -263 703 -278 q 674 -229 674 -249 l 674 779 q 669 789 674 785 q 660 793 665 793 l 392 793 q 372 785 381 793 q 364 765 364 776 l 364 -60 q 347 -96 364 -83 l 142 -271 q 124 -278 132 -278 q 103 -268 113 -278 l 74 -233 q 67 -215 67 -224 q 76 -193 67 -203 l 253 -43 q 263 -22 263 -35 l 263 765 q 254 785 263 776 q 235 793 246 793 l 81 793 q 61 801 69 793 q 53 821 53 810 l 53 867 q 61 886 53 878 q 81 894 69 894 l 235 894 q 254 903 246 894 q 263 922 263 911 l 263 1083 q 271 1103 263 1094 q 290 1111 279 1111 l 336 1111 q 356 1103 347 1111 q 364 1083 364 1094 l 364 922 q 372 903 364 911 q 392 894 381 894 l 726 894 q 761 880 747 894 q 775 846 775 865 l 775 -162 z "},"书":{"ha":972,"x_min":53,"x_max":921,"o":"m 872 453 q 907 438 893 453 q 921 404 921 424 l 918 29 q 903 -43 918 -8 q 863 -104 889 -78 q 729 -160 807 -160 l 658 -160 q 639 -151 647 -160 q 631 -132 631 -143 l 631 -86 q 639 -67 631 -75 q 658 -58 647 -58 l 729 -58 q 791 -33 765 -58 q 817 29 817 -7 l 819 338 q 815 347 819 343 q 806 351 811 351 l 494 351 q 475 343 483 351 q 467 324 467 335 l 467 -250 q 458 -269 467 -261 q 439 -278 450 -278 l 393 -278 q 374 -269 382 -278 q 365 -250 365 -261 l 365 324 q 357 343 365 335 q 338 351 349 351 l 81 351 q 60 360 68 351 q 53 379 53 368 l 53 425 q 60 444 53 436 q 81 453 68 453 l 338 453 q 357 461 349 453 q 365 481 365 469 l 365 788 q 357 807 365 799 q 338 815 349 815 l 132 815 q 113 824 121 815 q 104 843 104 832 l 104 889 q 113 908 104 900 q 132 917 121 917 l 338 917 q 357 925 349 917 q 365 944 365 933 l 365 1083 q 374 1103 365 1094 q 393 1111 382 1111 l 439 1111 q 458 1103 450 1111 q 467 1083 467 1094 l 467 944 q 475 925 467 933 q 494 917 483 917 l 592 917 q 611 925 603 917 q 619 944 619 933 l 619 1071 q 628 1090 619 1082 q 647 1099 636 1099 l 693 1099 q 713 1090 704 1099 q 721 1071 721 1082 l 721 944 q 729 925 721 933 q 749 917 738 917 l 771 917 q 806 902 792 917 q 819 867 819 888 l 815 481 q 824 461 815 469 q 843 453 832 453 l 872 453 m 718 801 q 714 811 718 807 q 704 815 710 815 l 494 815 q 475 807 483 815 q 467 788 467 799 l 467 481 q 475 461 467 469 q 494 453 483 453 l 686 453 q 706 461 697 453 q 714 481 714 469 l 718 801 z "},"事":{"ha":972,"x_min":53,"x_max":921,"o":"m 921 965 q 913 946 921 954 q 893 938 904 938 l 558 938 q 539 929 547 938 q 531 910 531 921 l 531 893 q 539 874 531 882 q 558 865 547 865 l 815 865 q 849 851 835 865 q 864 817 864 836 l 864 596 q 849 561 864 575 q 815 547 835 547 l 558 547 q 539 539 547 547 q 531 519 531 531 l 531 503 q 539 483 531 492 q 558 475 547 475 l 815 475 q 849 460 835 475 q 864 426 864 446 l 864 285 q 868 275 864 279 q 878 271 872 271 l 893 271 q 913 263 904 271 q 921 243 921 254 l 921 197 q 913 178 921 186 q 893 169 904 169 l 878 169 q 864 156 864 169 l 864 3 q 849 -31 864 -17 q 815 -46 835 -46 l 544 -46 q 531 -60 531 -46 l 531 -89 q 505 -183 531 -140 q 436 -252 479 -226 q 342 -278 393 -278 l 283 -278 q 264 -269 272 -278 q 256 -250 256 -261 l 256 -204 q 264 -185 256 -193 q 283 -176 272 -176 l 342 -176 q 403 -151 378 -176 q 429 -89 429 -125 l 429 -60 q 426 -50 429 -54 q 417 -46 422 -46 l 110 -46 q 90 -37 99 -46 q 82 -18 82 -29 l 82 28 q 90 47 82 39 q 110 56 99 56 l 401 56 q 421 64 413 56 q 429 83 429 72 l 429 142 q 421 162 429 154 q 401 169 413 169 l 81 169 q 61 178 69 169 q 53 197 53 186 l 53 243 q 61 263 53 254 q 81 271 69 271 l 401 271 q 421 279 413 271 q 429 299 429 288 l 429 346 q 421 365 429 357 q 401 374 413 374 l 110 374 q 90 382 99 374 q 82 401 82 390 l 82 447 q 90 467 82 458 q 110 475 99 475 l 401 475 q 421 483 413 475 q 429 503 429 492 l 429 519 q 421 539 429 531 q 401 547 413 547 l 131 547 q 97 561 111 547 q 82 596 82 575 l 82 817 q 97 851 82 836 q 131 865 111 865 l 401 865 q 421 874 413 865 q 429 893 429 882 l 429 910 q 421 929 429 921 q 401 938 413 938 l 81 938 q 61 946 69 938 q 53 965 53 954 l 53 1011 q 61 1031 53 1022 q 81 1039 69 1039 l 401 1039 q 421 1047 413 1039 q 429 1067 429 1056 l 429 1083 q 438 1103 429 1094 q 457 1111 446 1111 l 503 1111 q 522 1103 514 1111 q 531 1083 531 1094 l 531 1067 q 539 1047 531 1056 q 558 1039 547 1039 l 893 1039 q 913 1031 904 1039 q 921 1011 921 1022 l 921 965 m 183 663 q 188 653 183 657 q 197 649 192 649 l 401 649 q 421 657 413 649 q 429 676 429 665 l 429 736 q 421 756 429 747 q 401 764 413 764 l 197 764 q 188 760 192 764 q 183 750 183 756 l 183 663 m 763 750 q 758 760 763 756 q 749 764 754 764 l 558 764 q 539 756 547 764 q 531 736 531 747 l 531 676 q 539 657 531 665 q 558 649 547 649 l 749 649 q 758 653 754 649 q 763 663 763 657 l 763 750 m 763 360 q 758 369 763 365 q 749 374 754 374 l 558 374 q 539 365 547 374 q 531 346 531 357 l 531 299 q 539 279 531 288 q 558 271 547 271 l 749 271 q 758 275 754 271 q 763 285 763 279 l 763 360 m 749 56 q 758 60 754 56 q 763 69 763 64 l 763 156 q 758 165 763 161 q 749 169 754 169 l 558 169 q 539 162 547 169 q 531 142 531 154 l 531 83 q 539 64 531 72 q 558 56 547 56 l 749 56 z "},"二":{"ha":972,"x_min":53,"x_max":921,"o":"m 850 1053 q 869 1044 861 1053 q 878 1025 878 1036 l 878 981 q 869 960 878 968 q 850 953 861 953 l 124 953 q 104 960 113 953 q 96 981 96 968 l 96 1025 q 104 1044 96 1036 q 124 1053 113 1053 l 850 1053 m 53 -204 q 61 -185 53 -193 q 81 -176 69 -176 l 893 -176 q 913 -185 904 -176 q 921 -204 921 -193 l 921 -250 q 913 -269 921 -261 q 893 -278 904 -278 l 81 -278 q 61 -269 69 -278 q 53 -250 53 -261 l 53 -204 z "},"于":{"ha":972,"x_min":53,"x_max":921,"o":"m 893 489 q 913 481 904 489 q 921 461 921 472 l 921 417 q 913 397 921 404 q 893 389 904 389 l 578 389 q 558 381 567 389 q 550 361 550 372 l 550 -89 q 524 -183 550 -140 q 456 -252 499 -226 q 361 -278 413 -278 l 297 -278 q 278 -269 286 -278 q 269 -250 269 -261 l 269 -204 q 278 -185 269 -193 q 297 -176 286 -176 l 361 -176 q 423 -151 397 -176 q 449 -89 449 -125 l 449 361 q 440 381 449 372 q 421 389 432 389 l 81 389 q 61 397 69 389 q 53 417 53 404 l 53 461 q 61 481 53 472 q 81 489 69 489 l 421 489 q 440 497 432 489 q 449 517 449 506 l 449 983 q 440 1003 449 994 q 421 1011 432 1011 l 124 1011 q 104 1019 113 1011 q 96 1039 96 1026 l 96 1083 q 104 1103 96 1094 q 124 1111 113 1111 l 849 1111 q 868 1103 860 1111 q 876 1083 876 1094 l 876 1039 q 868 1019 876 1026 q 849 1011 860 1011 l 578 1011 q 558 1003 567 1011 q 550 983 550 994 l 550 517 q 558 497 550 506 q 578 489 567 489 l 893 489 z "},"云":{"ha":972,"x_min":53,"x_max":921,"o":"m 850 1111 q 869 1103 861 1111 q 878 1083 878 1094 l 878 1038 q 869 1018 878 1026 q 850 1010 861 1010 l 124 1010 q 104 1018 113 1010 q 96 1038 96 1026 l 96 1083 q 104 1103 96 1094 q 124 1111 113 1111 l 850 1111 m 921 553 q 913 533 921 542 q 893 525 904 525 l 365 525 q 347 519 354 525 q 338 503 339 513 l 190 -160 l 190 -164 q 194 -173 190 -169 q 203 -176 197 -176 l 717 -176 q 779 -151 753 -176 q 806 -89 806 -125 l 806 208 q 814 228 806 219 q 833 236 822 236 l 879 236 q 899 228 890 236 q 907 208 907 219 l 907 -89 q 881 -183 907 -140 q 812 -252 856 -226 q 717 -278 768 -278 l 131 -278 q 97 -263 111 -278 q 82 -229 82 -249 l 82 -181 l 83 -175 l 232 492 l 232 496 q 224 517 232 508 q 204 525 217 525 l 81 525 q 61 533 69 525 q 53 553 53 542 l 53 599 q 61 618 53 610 q 81 626 69 626 l 893 626 q 913 618 904 626 q 921 599 921 610 l 921 553 z "},"互":{"ha":972,"x_min":53,"x_max":921,"o":"m 715 -149 q 724 -168 715 -160 q 743 -176 732 -176 l 893 -176 q 913 -185 904 -176 q 921 -204 921 -193 l 921 -250 q 913 -269 921 -261 q 893 -278 904 -278 l 81 -278 q 61 -269 69 -278 q 53 -250 53 -261 l 53 -204 q 61 -185 53 -193 q 81 -176 69 -176 l 585 -176 q 602 -169 594 -176 q 611 -153 610 -162 l 654 94 l 654 99 q 647 119 654 111 q 626 128 639 128 l 174 128 q 139 142 153 128 q 125 176 125 156 l 125 224 l 125 228 l 257 978 l 257 982 q 249 1001 257 993 q 229 1010 240 1010 l 101 1010 q 82 1018 90 1010 q 74 1038 74 1026 l 74 1083 q 82 1103 74 1094 q 101 1111 90 1111 l 871 1111 q 890 1103 882 1111 q 899 1083 899 1094 l 899 1038 q 890 1018 899 1026 q 871 1010 882 1010 l 389 1010 q 372 1003 379 1010 q 361 988 364 997 l 319 753 l 319 749 q 328 729 319 738 q 347 721 336 721 l 800 721 q 834 706 819 721 q 849 672 849 692 l 849 625 l 847 619 l 715 -144 l 715 -149 m 231 242 q 235 233 231 236 q 244 229 239 229 l 654 229 q 672 235 664 229 q 682 251 679 242 l 742 603 l 742 606 q 738 615 742 611 q 728 619 733 619 l 319 619 q 301 613 308 619 q 293 596 294 606 l 231 244 l 231 242 z "},"井":{"ha":972,"x_min":53,"x_max":921,"o":"m 893 343 q 921 315 921 343 l 921 269 q 893 242 921 242 l 775 242 q 747 214 747 242 l 747 -250 q 719 -278 747 -278 l 674 -278 q 646 -250 646 -278 l 646 214 q 618 242 646 242 l 356 242 q 328 214 328 242 l 328 -85 q 303 -144 328 -119 l 179 -268 q 160 -278 171 -278 q 140 -268 150 -278 l 107 -235 q 97 -215 97 -225 q 107 -196 97 -208 l 213 -92 q 226 -57 226 -79 l 226 214 q 199 242 226 242 l 81 242 q 53 269 53 242 l 53 315 q 81 343 53 343 l 199 343 q 226 371 226 343 l 226 742 q 199 769 226 769 l 94 769 q 67 797 67 769 l 67 843 q 94 871 67 871 l 199 871 q 226 899 226 871 l 226 1083 q 254 1111 226 1111 l 300 1111 q 328 1083 328 1111 l 328 899 q 356 871 328 871 l 618 871 q 646 899 646 871 l 646 1083 q 674 1111 646 1111 l 719 1111 q 747 1083 747 1111 l 747 899 q 775 871 747 871 l 878 871 q 906 843 906 871 l 906 797 q 878 769 906 769 l 775 769 q 747 742 747 769 l 747 371 q 775 343 747 343 l 893 343 m 328 371 q 356 343 328 343 l 618 343 q 646 371 646 343 l 646 742 q 618 769 646 769 l 356 769 q 328 742 328 769 l 328 371 z "},"亚":{"ha":972,"x_min":53,"x_max":921,"o":"m 893 -176 q 913 -185 904 -176 q 921 -204 921 -193 l 921 -250 q 913 -269 921 -261 q 893 -278 904 -278 l 81 -278 q 61 -269 69 -278 q 53 -250 53 -261 l 53 -204 q 61 -185 53 -193 q 81 -176 69 -176 l 271 -176 q 290 -168 282 -176 q 299 -149 299 -160 l 299 968 q 290 988 299 979 q 271 996 282 996 l 89 996 q 69 1004 78 996 q 61 1024 61 1013 l 61 1069 q 69 1089 61 1081 q 89 1097 78 1097 l 886 1097 q 906 1089 897 1097 q 914 1069 914 1081 l 914 1024 q 906 1004 914 1013 q 886 996 897 996 l 703 996 q 683 988 692 996 q 675 968 675 979 l 675 -149 q 683 -168 675 -160 q 703 -176 692 -176 l 893 -176 m 574 968 q 565 988 574 979 q 546 996 557 996 l 428 996 q 408 988 417 996 q 400 968 400 979 l 400 -149 q 408 -168 400 -160 q 428 -176 417 -176 l 546 -176 q 565 -168 557 -176 q 574 -149 574 -160 l 574 968 m 125 108 q 106 117 114 108 q 97 136 97 125 l 97 753 q 106 772 97 764 q 125 781 114 781 l 171 781 q 190 772 182 781 q 199 753 199 764 l 199 136 q 190 117 199 125 q 171 108 182 108 l 125 108 m 850 779 q 869 771 861 779 q 878 751 878 763 l 878 135 q 869 115 878 124 q 850 107 861 107 l 804 107 q 785 115 793 107 q 776 135 776 124 l 776 751 q 785 771 776 763 q 804 779 793 779 l 850 779 z "},"亡":{"ha":972,"x_min":53,"x_max":921,"o":"m 921 907 q 913 888 921 896 q 893 879 904 879 l 315 879 q 296 871 304 879 q 288 851 288 863 l 288 -162 q 301 -176 288 -176 l 863 -176 q 882 -185 874 -176 q 890 -204 890 -193 l 890 -250 q 882 -269 890 -261 q 863 -278 874 -278 l 235 -278 q 201 -263 215 -278 q 186 -229 186 -249 l 186 851 q 178 871 186 863 q 158 879 169 879 l 81 879 q 61 888 69 879 q 53 907 53 896 l 53 953 q 61 972 53 964 q 81 981 69 981 l 408 981 q 428 989 419 981 q 436 1008 436 997 l 436 1083 q 444 1103 436 1094 q 464 1111 453 1111 l 510 1111 q 529 1103 521 1111 q 538 1083 538 1094 l 538 1008 q 546 989 538 997 q 565 981 554 981 l 893 981 q 913 972 904 981 q 921 953 921 964 l 921 907 z "},"交":{"ha":972,"x_min":54,"x_max":922,"o":"m 894 1032 q 914 1024 906 1032 q 922 1004 922 1015 l 922 958 q 914 939 922 947 q 894 931 906 931 l 82 931 q 63 939 71 931 q 54 958 54 947 l 54 1004 q 63 1024 54 1015 q 82 1032 71 1032 l 410 1032 q 429 1040 421 1032 q 438 1060 438 1047 l 438 1083 q 446 1103 438 1094 q 465 1111 454 1111 l 511 1111 q 531 1103 522 1111 q 539 1083 539 1094 l 539 1060 q 547 1040 539 1047 q 567 1032 556 1032 l 894 1032 m 354 744 q 342 715 354 728 l 164 538 q 144 529 156 529 q 125 538 133 529 l 93 569 q 85 589 85 578 q 93 610 85 601 l 246 763 q 253 779 253 769 l 253 858 q 261 878 253 869 q 281 886 269 886 l 326 886 q 346 878 338 886 q 354 858 354 869 l 354 744 m 878 608 q 886 589 886 600 q 878 569 886 578 l 846 538 q 826 529 838 529 q 807 538 815 529 l 629 715 q 617 744 617 728 l 617 858 q 625 878 617 869 q 644 886 633 886 l 690 886 q 710 878 701 886 q 718 858 718 869 l 718 779 q 725 763 718 769 l 878 608 m 907 -187 q 915 -207 915 -196 q 907 -226 915 -218 l 875 -258 q 856 -267 867 -267 q 836 -258 844 -267 l 496 82 q 486 86 492 86 q 476 82 481 86 l 136 -258 q 117 -267 128 -267 q 97 -258 106 -267 l 65 -226 q 57 -207 57 -218 q 65 -186 57 -194 l 404 153 q 408 163 408 157 q 404 172 408 168 l 215 361 q 204 390 204 372 l 204 482 q 213 501 204 493 q 232 510 221 510 l 278 510 q 297 501 289 510 q 306 482 306 493 l 306 425 q 313 408 306 415 l 476 244 q 486 240 481 240 q 496 244 492 240 l 660 408 q 667 425 667 415 l 667 482 q 675 501 667 493 q 694 510 683 510 l 740 510 q 760 501 751 510 q 768 482 768 493 l 768 390 q 756 361 768 374 l 567 172 q 563 163 563 168 q 567 153 563 157 l 907 -187 z "},"产":{"ha":972,"x_min":49,"x_max":925,"o":"m 549 1038 q 557 1018 549 1026 q 576 1010 565 1010 l 897 1010 q 917 1001 908 1010 q 925 982 925 993 l 925 936 q 917 917 925 925 q 897 908 908 908 l 85 908 q 65 917 74 908 q 57 936 57 925 l 57 982 q 65 1001 57 993 q 85 1010 74 1010 l 421 1010 q 440 1018 432 1010 q 449 1038 449 1026 l 449 1083 q 456 1103 449 1094 q 476 1111 464 1111 l 521 1111 q 541 1103 533 1111 q 549 1083 549 1094 l 549 1038 m 768 822 q 788 814 779 822 q 796 794 796 806 l 796 589 q 804 569 796 578 q 824 561 813 561 l 883 561 q 903 553 894 561 q 911 533 911 544 l 911 488 q 903 468 911 476 q 883 460 894 460 l 215 460 q 206 456 210 460 q 201 446 201 451 l 201 -175 q 188 -210 201 -193 l 128 -269 q 108 -276 121 -276 q 89 -269 96 -276 l 56 -236 q 49 -217 49 -229 q 56 -197 49 -207 l 92 -161 q 100 -142 100 -156 l 100 513 q 115 547 100 532 q 149 561 129 561 l 194 561 q 214 569 206 561 q 222 589 222 578 l 222 794 q 231 814 222 806 q 250 822 239 822 l 296 822 q 315 814 307 822 q 324 794 324 806 l 324 589 q 332 569 324 578 q 351 561 340 561 l 667 561 q 686 569 678 561 q 694 589 694 578 l 694 794 q 703 814 694 806 q 722 822 711 822 l 768 822 z "},"亨":{"ha":972,"x_min":53,"x_max":921,"o":"m 538 1024 q 565 996 538 996 l 893 996 q 921 968 921 996 l 921 922 q 893 894 921 894 l 81 894 q 53 922 53 894 l 53 968 q 81 996 53 996 l 408 996 q 436 1024 436 996 l 436 1083 q 464 1111 436 1111 l 510 1111 q 538 1083 538 1111 l 538 1024 m 110 774 q 123 810 110 797 q 158 822 136 822 l 828 822 q 864 810 851 822 q 876 774 876 797 l 876 524 q 864 488 876 501 q 828 475 851 475 l 158 475 q 123 488 136 475 q 110 524 110 501 l 110 774 m 763 576 q 776 590 776 576 l 776 707 q 763 721 776 721 l 225 721 q 211 707 211 721 l 211 590 q 225 576 211 576 l 763 576 m 94 308 q 67 336 67 308 l 67 382 q 94 410 67 410 l 857 410 q 893 397 881 410 q 906 361 906 385 l 906 301 q 869 244 906 263 l 572 106 q 551 74 551 96 l 551 -89 q 526 -183 551 -140 q 457 -252 500 -226 q 363 -278 414 -278 l 311 -278 q 283 -250 283 -278 l 283 -204 q 311 -176 283 -176 l 363 -176 q 424 -151 399 -176 q 450 -89 450 -125 l 450 119 q 486 176 450 158 l 732 292 q 740 301 740 296 q 737 306 740 304 q 728 308 733 308 l 94 308 z "},"亩":{"ha":972,"x_min":53,"x_max":921,"o":"m 538 1004 q 565 976 538 976 l 893 976 q 921 949 921 976 l 921 903 q 893 875 921 875 l 81 875 q 53 903 53 875 l 53 949 q 81 976 53 976 l 408 976 q 436 1004 436 976 l 436 1079 q 464 1107 436 1107 l 510 1107 q 538 1079 538 1107 l 538 1004 m 144 -278 q 109 -265 122 -278 q 96 -229 96 -253 l 96 715 q 109 751 96 739 q 144 764 122 764 l 829 764 q 865 751 853 764 q 878 715 878 739 l 878 -89 q 832 -219 878 -162 q 703 -278 785 -278 l 144 -278 m 436 635 q 408 663 436 663 l 211 663 q 197 649 197 663 l 197 321 q 225 293 197 293 l 408 293 q 436 321 436 293 l 436 635 m 749 293 q 776 321 776 293 l 776 649 q 763 663 776 663 l 565 663 q 538 635 538 663 l 538 321 q 565 293 538 293 l 749 293 m 225 192 q 197 164 197 192 l 197 -164 q 211 -178 197 -178 l 408 -178 q 436 -150 436 -178 l 436 164 q 408 192 436 192 l 225 192 m 756 -154 q 776 -89 776 -126 l 776 164 q 749 192 776 192 l 565 192 q 538 164 538 192 l 538 -150 q 565 -178 538 -178 l 703 -178 q 756 -154 735 -178 z "},"享":{"ha":972,"x_min":53,"x_max":921,"o":"m 529 1053 q 538 1033 529 1040 q 557 1025 546 1025 l 893 1025 q 913 1017 904 1025 q 921 997 921 1008 l 921 951 q 913 932 921 940 q 893 924 904 924 l 81 924 q 61 932 69 924 q 53 951 53 940 l 53 997 q 61 1017 53 1008 q 81 1025 69 1025 l 400 1025 q 419 1033 411 1025 q 428 1053 428 1040 l 428 1083 q 436 1103 428 1094 q 456 1111 444 1111 l 501 1111 q 521 1103 513 1111 q 529 1083 529 1094 l 529 1053 m 814 865 q 848 851 833 865 q 863 817 863 836 l 863 581 q 848 547 863 561 q 814 532 833 532 l 158 532 q 124 547 139 532 q 110 581 110 561 l 110 817 q 124 851 110 836 q 158 865 139 865 l 814 865 m 761 764 l 211 764 l 211 633 l 761 633 l 761 764 m 863 368 q 849 344 863 351 l 565 169 q 562 162 561 167 q 568 157 563 157 l 893 157 q 913 149 904 157 q 921 129 921 140 l 921 83 q 913 64 921 72 q 893 56 904 56 l 572 56 q 553 47 561 56 q 544 28 544 39 l 544 -89 q 519 -183 544 -140 q 449 -252 493 -226 q 354 -278 406 -278 l 297 -278 q 278 -269 286 -278 q 269 -250 269 -261 l 269 -204 q 278 -185 269 -193 q 297 -176 286 -176 l 354 -176 q 417 -151 390 -176 q 443 -89 443 -125 l 443 28 q 435 47 443 39 q 415 56 426 56 l 81 56 q 61 64 69 56 q 53 83 53 72 l 53 129 q 61 149 53 140 q 81 157 69 157 l 429 157 q 439 161 435 157 q 443 171 443 165 l 443 186 q 449 210 443 199 q 467 228 456 222 l 682 360 q 686 368 688 363 q 679 374 685 374 l 138 374 q 118 382 126 374 q 110 401 110 390 l 110 447 q 118 467 110 458 q 138 475 126 475 l 814 475 q 848 460 833 475 q 863 426 863 446 l 863 368 z "},"亲":{"ha":972,"x_min":53,"x_max":921,"o":"m 864 1010 q 883 1001 875 1010 q 892 982 892 993 l 892 936 q 883 917 892 925 q 864 908 875 908 l 110 908 q 90 917 99 908 q 82 936 82 925 l 82 982 q 90 1001 82 993 q 110 1010 99 1010 l 401 1010 q 421 1018 413 1010 q 429 1038 429 1026 l 429 1083 q 438 1103 429 1094 q 457 1111 446 1111 l 503 1111 q 522 1103 514 1111 q 531 1083 531 1094 l 531 1038 q 539 1018 531 1026 q 558 1010 547 1010 l 864 1010 m 806 611 q 813 592 806 600 q 833 583 821 583 l 893 583 q 913 575 904 583 q 921 556 921 567 l 921 510 q 913 490 921 499 q 893 482 904 482 l 81 482 q 61 490 69 482 q 53 510 53 499 l 53 556 q 61 575 53 567 q 81 583 69 583 l 140 583 q 160 592 151 583 q 168 611 168 600 l 168 794 q 176 814 168 806 q 196 822 185 822 l 242 822 q 261 814 253 822 q 269 794 269 806 l 269 611 q 278 592 269 600 q 297 583 286 583 l 676 583 q 696 592 688 583 q 704 611 704 600 l 704 794 q 713 814 704 806 q 732 822 721 822 l 778 822 q 797 814 789 822 q 806 794 806 806 l 806 611 m 517 446 q 536 438 528 446 q 544 418 544 429 l 544 343 q 553 324 544 332 q 572 315 561 315 l 864 315 q 883 307 875 315 q 892 288 892 299 l 892 242 q 883 222 892 231 q 864 214 875 214 l 572 214 q 553 206 561 214 q 544 186 544 197 l 544 -89 q 519 -183 544 -140 q 450 -252 493 -226 q 356 -278 407 -278 l 333 -278 q 314 -269 322 -278 q 306 -250 306 -261 l 306 -204 q 314 -185 306 -193 q 333 -176 322 -176 l 356 -176 q 417 -151 392 -176 q 443 -89 443 -125 l 443 186 q 435 206 443 197 q 415 214 426 214 l 110 214 q 90 222 99 214 q 82 242 82 231 l 82 288 q 90 307 82 299 q 110 315 99 315 l 415 315 q 435 324 426 315 q 443 343 443 332 l 443 418 q 451 438 443 429 q 471 446 460 446 l 517 446 m 153 -235 q 133 -226 142 -235 q 125 -207 125 -218 l 125 78 q 133 97 125 89 q 153 106 142 106 l 199 106 q 218 97 210 106 q 226 78 226 89 l 226 -207 q 218 -226 226 -218 q 199 -235 210 -235 l 153 -235 m 775 -235 q 756 -226 764 -235 q 747 -207 747 -218 l 747 78 q 756 97 747 89 q 775 106 764 106 l 821 106 q 840 97 832 106 q 849 78 849 89 l 849 -207 q 840 -226 849 -218 q 821 -235 832 -235 l 775 -235 z "},"人":{"ha":972,"x_min":31,"x_max":942,"o":"m 938 -204 q 942 -221 942 -211 q 931 -244 942 -237 l 894 -269 q 879 -274 888 -274 q 856 -261 864 -274 l 500 257 q 486 265 496 265 q 472 257 479 265 l 118 -261 q 94 -274 110 -274 q 79 -269 86 -274 l 42 -244 q 31 -221 31 -237 q 35 -204 31 -211 l 429 372 q 436 394 436 383 l 436 1083 q 444 1103 436 1094 q 464 1111 453 1111 l 510 1111 q 529 1103 521 1111 q 538 1083 538 1094 l 538 394 q 544 372 538 382 l 938 -204 z "},"什":{"ha":972,"x_min":53,"x_max":921,"o":"m 81 1010 q 61 1018 69 1010 q 53 1038 53 1026 l 53 1083 q 61 1103 53 1094 q 81 1111 69 1111 l 178 1111 q 212 1097 197 1111 q 226 1063 226 1082 l 226 -250 q 218 -269 226 -261 q 199 -278 210 -278 l 153 -278 q 133 -269 142 -278 q 125 -250 125 -261 l 125 996 q 121 1006 125 1001 q 111 1010 117 1010 l 81 1010 m 893 714 q 913 706 904 714 q 921 686 921 697 l 921 640 q 913 621 921 629 q 893 613 904 613 l 688 613 q 668 604 676 613 q 660 585 660 596 l 660 -250 q 651 -269 660 -261 q 632 -278 643 -278 l 586 -278 q 567 -269 575 -278 q 558 -250 558 -261 l 558 585 q 550 604 558 596 q 531 613 542 613 l 317 613 q 297 621 306 613 q 289 640 289 629 l 289 686 q 297 706 289 697 q 317 714 306 714 l 531 714 q 550 722 542 714 q 558 742 558 731 l 558 1083 q 567 1103 558 1094 q 586 1111 575 1111 l 632 1111 q 651 1103 643 1111 q 660 1083 660 1094 l 660 742 q 668 722 660 731 q 688 714 676 714 l 893 714 z "},"仁":{"ha":972,"x_min":53,"x_max":921,"o":"m 81 1010 q 61 1018 69 1010 q 53 1038 53 1026 l 53 1083 q 61 1103 53 1094 q 81 1111 69 1111 l 178 1111 q 212 1097 197 1111 q 226 1063 226 1082 l 226 -250 q 218 -269 226 -261 q 199 -278 210 -278 l 153 -278 q 133 -269 142 -278 q 125 -250 125 -261 l 125 996 q 121 1006 125 1001 q 111 1010 117 1010 l 81 1010 m 865 1036 q 885 1028 876 1036 q 893 1008 893 1019 l 893 963 q 885 943 893 951 q 865 935 876 935 l 358 935 q 339 943 347 935 q 331 963 331 951 l 331 1008 q 339 1028 331 1019 q 358 1036 347 1036 l 865 1036 m 301 -175 q 310 -156 301 -164 q 329 -147 318 -147 l 893 -147 q 913 -156 904 -147 q 921 -175 921 -164 l 921 -221 q 913 -240 921 -232 q 893 -249 904 -249 l 329 -249 q 310 -240 318 -249 q 301 -221 301 -232 l 301 -175 z "},"仇":{"ha":972,"x_min":53,"x_max":921,"o":"m 178 1111 q 212 1097 197 1111 q 226 1063 226 1082 l 226 -250 q 218 -269 226 -261 q 199 -278 210 -278 l 153 -278 q 133 -269 142 -278 q 125 -250 125 -261 l 125 996 q 121 1006 125 1001 q 111 1010 117 1010 l 81 1010 q 61 1018 69 1010 q 53 1038 53 1026 l 53 1083 q 61 1103 53 1094 q 81 1111 69 1111 l 178 1111 m 849 -162 q 853 -172 849 -168 q 863 -176 857 -176 l 893 -176 q 913 -185 904 -176 q 921 -204 921 -193 l 921 -250 q 913 -269 921 -261 q 893 -278 904 -278 l 796 -278 q 762 -263 776 -278 q 747 -229 747 -249 l 747 851 q 733 865 747 865 l 543 865 q 524 857 532 865 q 515 838 515 849 l 515 -160 q 503 -189 515 -176 l 426 -265 q 407 -274 418 -274 q 388 -265 396 -274 l 356 -233 q 347 -214 347 -225 q 356 -193 347 -201 l 407 -142 q 414 -122 414 -132 l 414 838 q 406 857 414 849 q 386 865 399 865 l 313 865 q 293 874 301 865 q 285 893 285 882 l 285 939 q 293 958 285 950 q 313 967 301 967 l 386 967 q 406 975 399 967 q 414 994 414 983 l 414 1083 q 422 1103 414 1094 q 442 1111 431 1111 l 488 1111 q 507 1103 499 1111 q 515 1083 515 1094 l 515 994 q 524 975 515 983 q 543 967 532 967 l 800 967 q 834 953 819 967 q 849 918 849 939 l 849 -162 z "},"介":{"ha":972,"x_min":76,"x_max":893,"o":"m 654 1113 q 681 1104 668 1113 q 699 1082 693 1096 l 892 600 q 893 589 893 596 q 876 564 893 571 l 833 546 q 824 544 831 544 q 808 549 815 544 q 797 563 800 554 l 625 993 q 599 1011 618 1011 l 372 1011 q 347 993 354 1011 l 175 563 q 160 547 169 551 q 139 546 150 542 l 96 564 q 81 578 85 568 q 81 600 76 589 l 274 1082 q 292 1104 279 1096 q 318 1113 304 1113 l 654 1113 m 189 -106 q 197 -86 197 -97 l 197 463 q 205 482 197 474 q 225 490 213 490 l 269 490 q 289 482 281 490 q 297 463 297 474 l 297 -119 q 283 -154 297 -140 l 174 -264 q 154 -272 165 -272 q 135 -264 143 -272 l 101 -232 q 94 -212 94 -222 q 101 -193 94 -203 l 189 -106 m 701 -276 q 682 -268 690 -276 q 674 -249 674 -260 l 674 463 q 682 482 674 474 q 701 490 690 490 l 747 490 q 767 482 758 490 q 775 463 775 474 l 775 -249 q 767 -268 775 -260 q 747 -276 758 -276 l 701 -276 z "},"仍":{"ha":972,"x_min":53,"x_max":921,"o":"m 178 1111 q 212 1097 197 1111 q 226 1063 226 1082 l 226 -250 q 218 -269 226 -261 q 199 -278 210 -278 l 153 -278 q 133 -269 142 -278 q 125 -250 125 -261 l 125 996 q 121 1006 125 1001 q 111 1010 117 1010 l 81 1010 q 61 1018 69 1010 q 53 1038 53 1026 l 53 1083 q 61 1103 53 1094 q 81 1111 69 1111 l 178 1111 m 761 533 q 765 522 761 526 q 776 518 769 518 l 871 518 q 906 503 892 518 q 921 468 921 489 l 921 -87 q 895 -183 921 -139 q 826 -252 869 -226 q 731 -278 782 -278 l 688 -278 q 668 -269 676 -278 q 660 -250 660 -261 l 660 -204 q 668 -185 660 -193 q 688 -176 676 -176 l 731 -176 q 793 -150 767 -176 q 819 -87 819 -124 l 819 403 q 806 417 819 417 l 696 417 q 660 430 675 417 q 646 461 646 443 l 646 499 q 647 510 646 506 l 781 976 l 781 981 q 776 992 781 988 q 765 996 772 996 l 515 996 q 496 988 504 996 q 488 968 488 979 l 488 -178 q 475 -207 488 -194 l 413 -269 q 393 -278 404 -278 q 374 -269 382 -278 l 340 -236 q 331 -217 331 -226 q 340 -197 331 -210 l 379 -158 q 386 -142 386 -151 l 386 968 q 378 988 386 979 q 358 996 369 996 l 342 996 q 322 1004 331 996 q 314 1024 314 1013 l 314 1069 q 322 1089 314 1081 q 342 1097 331 1097 l 842 1097 q 877 1083 863 1097 q 892 1047 892 1068 l 892 1001 q 890 990 892 994 l 761 538 l 761 533 z "},"从":{"ha":972,"x_min":56,"x_max":918,"o":"m 914 -208 q 918 -224 918 -215 q 906 -247 918 -239 l 869 -272 q 853 -278 863 -278 q 829 -265 838 -278 l 699 -72 q 685 -64 694 -64 q 671 -72 678 -64 l 546 -258 q 511 -278 532 -278 l 463 -278 q 428 -258 443 -278 l 303 -72 q 289 -64 299 -64 q 275 -72 282 -64 l 144 -265 q 121 -276 138 -276 q 104 -272 111 -276 l 68 -247 q 56 -226 56 -239 q 61 -208 56 -219 l 232 43 q 239 65 239 53 l 239 1083 q 247 1103 239 1094 q 267 1111 256 1111 l 313 1111 q 332 1103 324 1111 q 340 1083 340 1094 l 340 65 q 347 43 340 53 l 474 -144 q 488 -153 481 -153 q 501 -144 497 -153 l 628 43 q 635 65 635 53 l 635 1083 q 643 1103 635 1094 q 663 1111 651 1111 l 708 1111 q 728 1103 719 1111 q 736 1083 736 1094 l 736 65 q 743 43 736 53 l 914 -208 z "},"仑":{"ha":972,"x_min":51,"x_max":925,"o":"m 924 685 q 925 676 925 682 q 906 649 925 656 l 863 633 q 854 632 860 632 q 838 638 846 632 q 828 651 829 643 l 707 1001 q 693 1010 703 1010 l 285 1010 q 271 1001 274 1010 l 150 651 q 137 635 147 640 q 115 633 126 631 l 72 649 q 56 663 61 653 q 54 685 51 674 l 190 1079 q 208 1102 196 1093 q 236 1111 221 1111 l 742 1111 q 769 1102 757 1111 q 788 1079 782 1093 l 924 685 m 868 -82 q 888 -90 879 -82 q 896 -110 896 -99 l 896 -229 q 881 -263 896 -249 q 847 -278 867 -278 l 321 -278 q 226 -252 269 -278 q 158 -183 183 -226 q 132 -87 132 -139 l 132 564 q 140 583 132 575 q 160 592 149 592 l 206 592 q 225 583 217 592 q 233 564 233 575 l 233 143 q 242 127 233 132 q 260 128 250 122 l 653 351 q 665 372 665 358 l 665 569 q 674 589 665 581 q 693 597 682 597 l 739 597 q 758 589 750 597 q 767 569 767 581 l 767 325 q 760 303 767 314 q 744 288 754 293 l 254 8 q 233 -29 233 -3 l 233 -87 q 259 -150 233 -124 q 321 -176 285 -176 l 781 -176 q 790 -172 786 -176 q 794 -162 794 -168 l 794 -110 q 803 -90 794 -99 q 822 -82 811 -82 l 868 -82 z "},"仓":{"ha":972,"x_min":57,"x_max":917,"o":"m 354 1010 q 342 1003 344 1010 l 150 614 q 124 599 142 599 l 113 601 l 72 622 q 57 647 57 631 q 60 660 57 651 l 268 1083 q 286 1103 274 1096 q 313 1111 299 1111 l 654 1111 q 679 1103 668 1111 q 697 1083 690 1096 l 907 660 q 910 647 910 651 q 894 622 910 631 l 853 601 l 842 599 q 817 614 824 599 l 625 1003 q 613 1010 621 1010 l 354 1010 m 229 -89 q 256 -151 229 -125 q 318 -176 282 -176 l 889 -176 q 908 -185 900 -176 q 917 -204 917 -193 l 917 -250 q 908 -269 917 -261 q 889 -278 900 -278 l 318 -278 q 223 -252 267 -278 q 153 -183 179 -226 q 128 -89 128 -140 l 128 499 q 142 533 128 518 q 176 547 157 547 l 789 547 q 824 533 810 547 q 838 499 838 518 l 838 71 q 824 37 838 51 q 789 22 810 22 l 424 22 q 404 31 413 22 q 396 50 396 39 l 396 96 q 404 115 396 107 q 424 124 413 124 l 722 124 q 736 138 736 124 l 736 432 q 732 442 736 438 q 722 446 728 446 l 243 446 q 233 442 238 446 q 229 432 229 438 l 229 -89 z "},"仕":{"ha":972,"x_min":53,"x_max":921,"o":"m 921 719 q 913 700 921 708 q 893 692 904 692 l 689 692 q 669 683 676 692 q 661 664 661 675 l 661 -149 q 669 -168 661 -160 q 689 -176 676 -176 l 871 -176 q 890 -185 882 -176 q 899 -204 899 -193 l 899 -250 q 890 -269 899 -261 q 871 -278 882 -278 l 349 -278 q 329 -269 338 -278 q 321 -250 321 -261 l 321 -204 q 329 -185 321 -193 q 349 -176 338 -176 l 532 -176 q 551 -168 543 -176 q 560 -149 560 -160 l 560 664 q 551 683 560 675 q 532 692 543 692 l 326 692 q 307 700 315 692 q 299 719 299 708 l 299 765 q 307 785 299 776 q 326 793 315 793 l 532 793 q 551 801 543 793 q 560 821 560 810 l 560 1083 q 568 1103 560 1094 q 588 1111 576 1111 l 633 1111 q 653 1103 644 1111 q 661 1083 661 1094 l 661 821 q 669 801 661 810 q 689 793 676 793 l 893 793 q 913 785 904 793 q 921 765 921 776 l 921 719 m 178 1097 q 212 1083 197 1097 q 226 1049 226 1068 l 226 -250 q 218 -269 226 -261 q 199 -278 210 -278 l 153 -278 q 133 -269 142 -278 q 125 -250 125 -261 l 125 982 q 121 992 125 988 q 111 996 117 996 l 81 996 q 61 1004 69 996 q 53 1024 53 1013 l 53 1069 q 61 1089 53 1081 q 81 1097 69 1097 l 178 1097 z "},"付":{"ha":972,"x_min":53,"x_max":921,"o":"m 81 1010 q 61 1018 69 1010 q 53 1038 53 1026 l 53 1083 q 61 1103 53 1094 q 81 1111 69 1111 l 178 1111 q 212 1097 197 1111 q 226 1063 226 1082 l 226 -250 q 218 -269 226 -261 q 199 -278 210 -278 l 153 -278 q 133 -269 142 -278 q 125 -250 125 -261 l 125 996 q 121 1006 125 1001 q 111 1010 117 1010 l 81 1010 m 893 981 q 913 972 904 981 q 921 953 921 964 l 921 907 q 913 888 921 896 q 893 879 904 879 l 863 879 q 843 871 851 879 q 835 851 835 863 l 835 -89 q 809 -183 835 -140 q 740 -252 783 -226 q 644 -278 696 -278 l 543 -278 q 524 -269 532 -278 q 515 -250 515 -261 l 515 -204 q 524 -185 515 -193 q 543 -176 532 -176 l 644 -176 q 707 -151 681 -176 q 733 -89 733 -125 l 733 851 q 725 871 733 863 q 706 879 717 879 l 311 879 q 292 888 300 879 q 283 907 283 896 l 283 953 q 292 972 283 964 q 311 981 300 981 l 706 981 q 725 989 717 981 q 733 1008 733 997 l 733 1083 q 742 1103 733 1094 q 761 1111 750 1111 l 807 1111 q 826 1103 818 1111 q 835 1083 835 1094 l 835 1008 q 843 989 835 997 q 863 981 851 981 l 893 981 m 503 729 q 522 721 514 729 q 531 701 531 713 l 531 106 q 522 86 531 94 q 503 78 514 78 l 457 78 q 438 86 446 78 q 429 106 429 94 l 429 701 q 438 721 429 713 q 457 729 446 729 l 503 729 z "},"仙":{"ha":972,"x_min":53,"x_max":921,"o":"m 81 1010 q 61 1018 69 1010 q 53 1038 53 1026 l 53 1083 q 61 1103 53 1094 q 81 1111 69 1111 l 178 1111 q 212 1097 197 1111 q 226 1063 226 1082 l 226 -250 q 218 -269 226 -261 q 199 -278 210 -278 l 153 -278 q 133 -269 142 -278 q 125 -250 125 -261 l 125 996 q 121 1006 125 1001 q 111 1010 117 1010 l 81 1010 m 819 890 q 828 910 819 901 q 847 918 836 918 l 893 918 q 913 910 904 918 q 921 890 921 901 l 921 -86 q 895 -181 921 -137 q 826 -249 869 -224 q 731 -275 782 -275 l 357 -275 q 322 -260 336 -275 q 308 -226 308 -246 l 308 890 q 317 910 308 901 q 336 918 325 918 l 381 918 q 401 910 393 918 q 408 890 408 901 l 408 -146 q 417 -165 408 -157 q 436 -174 425 -174 l 536 -174 q 556 -165 547 -174 q 564 -146 564 -157 l 564 1078 q 572 1097 564 1089 q 592 1106 581 1106 l 638 1106 q 657 1097 649 1106 q 665 1078 665 1089 l 665 -146 q 674 -165 665 -157 q 693 -174 682 -174 l 731 -174 q 793 -148 767 -174 q 819 -86 819 -122 l 819 890 z "},"仟":{"ha":972,"x_min":53,"x_max":921,"o":"m 128 1111 q 226 1063 226 1111 l 226 -250 q 218 -269 226 -261 q 199 -278 210 -278 l 153 -278 q 133 -269 142 -278 q 125 -250 125 -261 l 125 996 q 121 1006 125 1001 q 111 1010 117 1010 l 81 1010 q 61 1018 69 1010 q 53 1038 53 1026 l 53 1083 q 61 1103 53 1094 q 81 1111 69 1111 l 128 1111 m 893 507 q 913 499 904 507 q 921 479 921 490 l 921 433 q 913 414 921 422 q 893 406 904 406 l 690 406 q 670 397 678 406 q 663 371 663 388 l 663 -250 q 654 -269 663 -261 q 635 -278 646 -278 l 589 -278 q 569 -269 578 -278 q 561 -250 561 -261 l 561 371 q 553 397 561 388 q 533 406 546 406 l 329 406 q 310 414 318 406 q 301 433 301 422 l 301 479 q 310 499 301 490 q 329 507 318 507 l 533 507 q 553 515 544 507 q 561 535 561 524 l 561 894 q 553 914 561 906 q 533 922 544 922 l 356 922 q 335 931 343 922 q 328 950 328 939 l 328 996 q 335 1015 328 1007 q 356 1024 343 1024 l 789 1024 q 806 1031 799 1024 l 831 1056 q 851 1064 839 1064 q 871 1056 863 1064 l 903 1024 q 911 1004 911 1015 q 903 985 911 993 l 853 935 q 824 922 840 922 l 690 922 q 671 914 679 922 q 663 894 663 906 l 663 535 q 671 515 663 524 q 690 507 679 507 l 893 507 z "},"代":{"ha":972,"x_min":53,"x_max":921,"o":"m 178 1111 q 212 1097 197 1111 q 226 1063 226 1082 l 226 -250 q 218 -269 226 -261 q 199 -278 210 -278 l 153 -278 q 133 -269 142 -278 q 125 -250 125 -261 l 125 996 q 121 1006 125 1001 q 111 1010 117 1010 l 81 1010 q 61 1018 69 1010 q 53 1038 53 1026 l 53 1083 q 61 1103 53 1094 q 81 1111 69 1111 l 178 1111 m 610 -89 q 636 -151 610 -125 q 699 -176 663 -176 l 893 -176 q 913 -185 904 -176 q 921 -204 921 -193 l 921 -250 q 913 -269 921 -261 q 893 -278 904 -278 l 697 -278 q 603 -252 646 -278 q 534 -183 560 -226 q 508 -89 508 -140 l 508 635 q 500 654 508 646 q 481 663 492 663 l 311 663 q 292 671 300 663 q 283 690 283 679 l 283 736 q 292 756 283 747 q 311 764 300 764 l 481 764 q 500 772 492 764 q 508 792 508 781 l 508 1083 q 517 1103 508 1094 q 536 1111 525 1111 l 582 1111 q 601 1103 593 1111 q 610 1083 610 1094 l 610 792 q 618 772 610 781 q 638 764 626 764 l 893 764 q 913 756 904 764 q 921 736 921 747 l 921 690 q 913 671 921 679 q 893 663 904 663 l 638 663 q 618 654 626 663 q 610 635 610 646 l 610 -89 m 789 815 q 769 824 778 815 q 761 843 761 832 l 761 1054 q 769 1074 761 1065 q 789 1082 778 1082 l 835 1082 q 854 1074 846 1082 q 863 1054 863 1065 l 863 843 q 854 824 863 832 q 835 815 846 815 l 789 815 z "},"们":{"ha":972,"x_min":53,"x_max":921,"o":"m 326 938 q 307 946 315 938 q 299 965 299 954 l 299 1083 q 307 1103 299 1094 q 326 1111 315 1111 l 372 1111 q 392 1103 383 1111 q 400 1083 400 1094 l 400 965 q 392 946 400 954 q 372 938 383 938 l 326 938 m 178 1086 q 212 1072 197 1086 q 226 1038 226 1057 l 226 -250 q 218 -269 226 -261 q 199 -278 210 -278 l 153 -278 q 133 -269 142 -278 q 125 -250 125 -261 l 125 971 q 121 981 125 976 q 111 985 117 985 l 81 985 q 61 993 69 985 q 53 1013 53 1001 l 53 1058 q 61 1078 53 1069 q 81 1086 69 1086 l 178 1086 m 458 1038 q 467 1057 458 1049 q 486 1065 475 1065 l 872 1065 q 907 1051 893 1065 q 921 1017 921 1038 l 921 -89 q 895 -183 921 -140 q 826 -252 869 -226 q 732 -278 783 -278 l 674 -278 q 654 -269 663 -278 q 646 -250 646 -261 l 646 -206 q 654 -185 646 -193 q 674 -178 663 -178 l 732 -178 q 794 -151 768 -178 q 819 -89 819 -125 l 819 950 q 806 964 819 964 l 486 964 q 467 972 475 964 q 458 992 458 981 l 458 1038 m 326 -278 q 307 -269 315 -278 q 299 -250 299 -261 l 299 851 q 307 871 299 863 q 326 879 315 879 l 372 879 q 392 871 383 879 q 400 851 400 863 l 400 -250 q 392 -269 400 -261 q 372 -278 383 -278 l 326 -278 z "},"件":{"ha":972,"x_min":53,"x_max":921,"o":"m 178 1111 q 212 1097 197 1111 q 226 1063 226 1082 l 226 -250 q 218 -269 226 -261 q 199 -278 210 -278 l 153 -278 q 133 -269 142 -278 q 125 -250 125 -261 l 125 996 q 121 1006 125 1001 q 111 1010 117 1010 l 81 1010 q 61 1018 69 1010 q 53 1038 53 1026 l 53 1083 q 61 1103 53 1094 q 81 1111 69 1111 l 178 1111 m 893 403 q 913 394 904 403 q 921 375 921 386 l 921 329 q 913 310 921 318 q 893 301 904 301 l 679 301 q 660 293 668 301 q 651 274 651 285 l 651 -250 q 643 -269 651 -261 q 624 -278 635 -278 l 578 -278 q 558 -269 567 -278 q 550 -250 550 -261 l 550 274 q 542 293 550 285 q 522 301 533 301 l 308 301 q 289 310 297 301 q 281 329 281 318 l 281 375 q 289 394 281 386 q 308 403 297 403 l 522 403 q 542 411 533 403 q 550 431 550 419 l 550 765 q 542 785 550 776 q 522 793 533 793 l 344 793 q 310 808 324 793 q 296 842 296 822 l 296 1025 q 304 1044 296 1036 q 324 1053 313 1053 l 369 1053 q 389 1044 381 1053 q 397 1025 397 1036 l 397 908 q 411 894 397 894 l 522 894 q 542 903 533 894 q 550 922 550 911 l 550 1083 q 558 1103 550 1094 q 578 1111 567 1111 l 624 1111 q 643 1103 635 1111 q 651 1083 651 1094 l 651 922 q 660 903 651 911 q 679 894 668 894 l 879 894 q 899 886 890 894 q 907 867 907 878 l 907 821 q 899 801 907 810 q 879 793 890 793 l 679 793 q 660 785 668 793 q 651 765 651 776 l 651 431 q 660 411 651 419 q 679 403 668 403 l 893 403 z "},"价":{"ha":972,"x_min":53,"x_max":921,"o":"m 178 1111 q 212 1097 197 1111 q 226 1063 226 1082 l 226 -250 q 218 -269 226 -261 q 199 -278 210 -278 l 153 -278 q 133 -269 142 -278 q 125 -250 125 -261 l 125 996 q 121 1006 125 1001 q 111 1010 117 1010 l 81 1010 q 61 1018 69 1010 q 53 1038 53 1026 l 53 1083 q 61 1103 53 1094 q 81 1111 69 1111 l 178 1111 m 915 781 q 921 764 921 774 q 910 742 921 750 l 874 714 q 857 708 867 708 q 835 719 843 708 l 632 994 q 621 1000 628 1000 q 608 994 613 1000 l 406 719 q 383 708 397 708 q 367 714 374 708 l 331 742 q 319 764 319 750 q 325 781 319 774 l 561 1100 q 583 1111 569 1111 l 657 1111 q 679 1100 671 1111 l 915 781 m 385 619 q 393 640 385 632 q 413 647 401 647 l 458 647 q 478 640 469 647 q 486 619 486 632 l 486 -158 q 451 -242 486 -207 q 367 -278 417 -278 l 347 -278 q 328 -269 336 -278 q 319 -250 319 -261 l 319 -204 q 328 -185 319 -193 q 347 -176 336 -176 l 367 -176 q 379 -171 374 -176 q 385 -158 385 -165 l 385 619 m 775 -278 q 756 -269 764 -278 q 747 -250 747 -261 l 747 619 q 756 640 747 632 q 775 647 764 647 l 821 647 q 840 640 832 647 q 849 619 849 632 l 849 -250 q 840 -269 849 -261 q 821 -278 832 -278 l 775 -278 z "},"任":{"ha":972,"x_min":53,"x_max":921,"o":"m 178 1111 q 212 1097 197 1111 q 226 1063 226 1082 l 226 -250 q 218 -269 226 -261 q 199 -278 210 -278 l 153 -278 q 133 -269 142 -278 q 125 -250 125 -261 l 125 996 q 121 1006 125 1001 q 111 1010 117 1010 l 81 1010 q 61 1018 69 1010 q 53 1038 53 1026 l 53 1083 q 61 1103 53 1094 q 81 1111 69 1111 l 178 1111 m 893 467 q 921 439 921 467 l 921 394 q 893 367 921 367 l 688 367 q 660 339 660 367 l 660 -149 q 688 -176 660 -176 l 871 -176 q 899 -204 899 -176 l 899 -250 q 871 -278 899 -278 l 349 -278 q 321 -250 321 -278 l 321 -204 q 349 -176 321 -176 l 532 -176 q 560 -149 560 -176 l 560 339 q 532 367 560 367 l 326 367 q 299 394 299 367 l 299 439 q 326 467 299 467 l 532 467 q 560 494 560 467 l 560 924 q 532 951 560 951 l 340 951 q 313 979 313 951 l 313 1025 q 340 1053 313 1053 l 764 1053 q 781 1060 774 1053 l 822 1101 q 843 1110 831 1110 q 863 1101 854 1110 l 894 1069 q 903 1050 903 1061 q 894 1031 903 1039 l 844 981 q 821 962 836 972 q 799 951 806 951 l 688 951 q 660 924 660 951 l 660 494 q 688 467 660 467 l 893 467 z "},"份":{"ha":972,"x_min":53,"x_max":921,"o":"m 390 633 q 377 617 388 622 q 356 614 367 611 l 311 625 q 294 638 300 628 q 292 660 289 649 l 408 1086 q 420 1103 410 1097 q 442 1106 431 1108 l 486 1093 q 503 1081 497 1090 q 506 1060 508 1071 l 390 633 m 919 660 q 921 651 921 657 q 915 634 921 642 q 900 625 910 626 l 856 614 q 849 613 853 613 q 831 618 839 613 q 822 633 824 624 l 706 1060 l 706 1065 q 725 1093 706 1086 l 769 1106 q 778 1107 772 1107 q 795 1101 788 1107 q 804 1086 803 1096 l 919 660 m 178 1097 q 212 1083 197 1097 q 226 1049 226 1068 l 226 -250 q 218 -269 226 -261 q 199 -278 210 -278 l 153 -278 q 133 -269 142 -278 q 125 -250 125 -261 l 125 982 q 121 992 125 988 q 111 996 117 996 l 81 996 q 61 1004 69 996 q 53 1024 53 1013 l 53 1069 q 61 1089 53 1081 q 81 1097 69 1097 l 178 1097 m 844 532 q 878 518 864 532 q 893 483 893 504 l 893 -89 q 867 -183 893 -140 q 798 -252 842 -226 q 703 -278 754 -278 l 642 -278 q 622 -269 631 -278 q 614 -250 614 -261 l 614 -204 q 622 -185 614 -193 q 642 -176 631 -176 l 703 -176 q 765 -151 739 -176 q 792 -89 792 -125 l 792 417 q 788 426 792 422 q 778 431 783 431 l 572 431 q 553 422 561 431 q 544 403 544 414 l 544 -108 q 532 -137 544 -125 l 415 -254 q 396 -262 407 -262 q 376 -254 385 -262 l 344 -222 q 335 -203 335 -212 q 344 -182 335 -194 l 436 -90 q 443 -74 443 -83 l 443 403 q 435 422 443 414 q 415 431 426 431 l 342 431 q 322 439 331 431 q 314 458 314 447 l 314 504 q 322 524 314 515 q 342 532 331 532 l 844 532 z "},"仿":{"ha":972,"x_min":53,"x_max":921,"o":"m 921 907 q 913 888 921 896 q 893 879 904 879 l 500 879 q 481 871 489 879 q 472 851 472 863 l 472 706 q 481 685 472 693 q 500 678 489 678 l 829 678 q 863 663 849 678 q 878 629 878 649 l 878 -89 q 852 -183 878 -140 q 783 -252 826 -226 q 688 -278 739 -278 l 644 -278 q 625 -269 633 -278 q 617 -250 617 -261 l 617 -204 q 625 -185 617 -193 q 644 -176 633 -176 l 688 -176 q 750 -151 724 -176 q 776 -89 776 -125 l 776 563 q 772 572 776 568 q 763 576 768 576 l 500 576 q 481 568 489 576 q 472 549 472 560 l 472 -174 q 464 -199 472 -186 l 414 -260 q 392 -269 406 -269 q 374 -264 381 -269 l 339 -235 q 328 -212 328 -226 q 335 -196 328 -206 l 365 -158 q 371 -142 371 -153 l 371 851 q 363 871 371 863 q 343 879 354 879 l 313 879 q 293 888 301 879 q 285 907 285 896 l 285 953 q 293 972 285 964 q 313 981 301 981 l 524 981 q 543 989 535 981 q 551 1008 551 997 l 551 1083 q 560 1103 551 1094 q 579 1111 568 1111 l 625 1111 q 644 1103 636 1111 q 653 1083 653 1094 l 653 1008 q 661 989 653 997 q 681 981 669 981 l 893 981 q 913 972 904 981 q 921 953 921 964 l 921 907 m 178 1097 q 212 1083 197 1097 q 226 1049 226 1068 l 226 -250 q 218 -269 226 -261 q 199 -278 210 -278 l 153 -278 q 133 -269 142 -278 q 125 -250 125 -261 l 125 982 q 121 992 125 988 q 111 996 117 996 l 81 996 q 61 1004 69 996 q 53 1024 53 1013 l 53 1069 q 61 1089 53 1081 q 81 1097 69 1097 l 178 1097 z "},"伎":{"ha":972,"x_min":53,"x_max":921,"o":"m 913 -197 q 921 -217 921 -206 q 913 -236 921 -228 l 881 -268 q 861 -278 872 -278 q 840 -268 850 -278 l 619 -47 q 600 -39 611 -39 q 581 -47 589 -39 l 358 -269 q 339 -278 350 -278 q 319 -269 328 -278 l 286 -236 q 278 -218 278 -228 q 288 -197 278 -207 l 508 24 q 517 43 517 32 q 508 63 517 54 l 329 242 q 318 271 318 253 l 318 476 q 326 496 318 488 q 346 504 335 504 l 392 504 q 411 496 403 504 q 419 476 419 488 l 419 306 q 426 289 419 296 l 581 135 q 600 126 589 126 q 619 135 611 126 l 774 289 q 781 306 781 296 l 781 547 q 767 561 781 561 l 346 561 q 326 569 335 561 q 318 589 318 578 l 318 635 q 326 654 318 646 q 346 663 335 663 l 529 663 q 549 671 540 663 q 557 690 557 679 l 557 860 q 549 879 557 871 q 529 888 540 888 l 331 888 q 311 896 319 888 q 303 915 303 904 l 303 960 q 311 979 303 971 q 331 988 319 988 l 529 988 q 549 996 540 988 q 557 1015 557 1004 l 557 1083 q 565 1103 557 1094 q 585 1111 574 1111 l 629 1111 q 649 1103 640 1111 q 657 1083 657 1094 l 657 1015 q 665 996 657 1004 q 685 988 674 988 l 883 988 q 903 979 894 988 q 911 960 911 971 l 911 915 q 903 896 911 904 q 883 888 894 888 l 685 888 q 665 879 674 888 q 657 860 657 871 l 657 690 q 665 671 657 679 q 685 663 674 663 l 832 663 q 867 648 853 663 q 882 613 882 633 l 882 271 q 869 242 882 254 l 690 63 q 682 44 682 54 q 692 24 682 33 l 913 -197 m 81 996 q 61 1004 69 996 q 53 1024 53 1013 l 53 1069 q 61 1089 53 1081 q 81 1097 69 1097 l 178 1097 q 212 1083 197 1097 q 226 1049 226 1068 l 226 -250 q 218 -269 226 -261 q 199 -278 210 -278 l 153 -278 q 133 -269 142 -278 q 125 -250 125 -261 l 125 982 q 121 992 125 988 q 111 996 117 996 l 81 996 z "},"优":{"ha":972,"x_min":53,"x_max":921,"o":"m 921 778 q 913 758 921 767 q 893 750 904 750 l 783 750 q 764 742 772 750 q 756 722 756 733 l 756 -89 q 781 -151 756 -125 q 844 -176 807 -176 l 893 -176 q 913 -185 904 -176 q 921 -204 921 -193 l 921 -250 q 913 -269 921 -261 q 893 -278 904 -278 l 844 -278 q 749 -252 793 -278 q 680 -183 706 -226 q 654 -89 654 -140 l 654 722 q 646 742 654 733 q 626 750 638 750 l 558 750 q 539 742 547 750 q 531 722 531 733 l 531 -126 q 517 -161 531 -144 l 413 -265 q 393 -274 404 -274 q 374 -265 382 -274 l 340 -233 q 332 -214 332 -225 q 340 -193 332 -201 l 425 -108 q 429 -99 429 -107 l 429 722 q 421 742 429 733 q 401 750 413 750 l 313 750 q 293 758 301 750 q 285 778 285 767 l 285 824 q 293 843 285 835 q 313 851 301 851 l 401 851 q 421 859 413 851 q 429 879 429 867 l 429 1083 q 438 1103 429 1094 q 457 1111 446 1111 l 503 1111 q 522 1103 514 1111 q 531 1083 531 1094 l 531 879 q 539 859 531 867 q 558 851 547 851 l 893 851 q 913 843 904 851 q 921 824 921 835 l 921 778 m 792 1097 q 811 1089 803 1097 q 819 1069 819 1081 l 819 907 q 811 888 819 896 q 792 879 803 879 l 746 879 q 726 888 735 879 q 718 907 718 896 l 718 1069 q 726 1089 718 1081 q 746 1097 735 1097 l 792 1097 m 178 1086 q 212 1072 197 1086 q 226 1038 226 1057 l 226 -250 q 218 -269 226 -261 q 199 -278 210 -278 l 153 -278 q 133 -269 142 -278 q 125 -250 125 -261 l 125 971 q 121 981 125 976 q 111 985 117 985 l 81 985 q 61 993 69 985 q 53 1013 53 1001 l 53 1058 q 61 1078 53 1069 q 81 1086 69 1086 l 178 1086 z "},"伙":{"ha":972,"x_min":53,"x_max":921,"o":"m 913 -197 q 921 -217 921 -206 q 913 -236 921 -228 l 881 -268 q 861 -278 872 -278 q 840 -268 850 -278 l 629 -58 q 610 -50 621 -50 q 590 -58 599 -50 l 381 -268 q 361 -278 372 -278 q 340 -268 350 -278 l 308 -236 q 300 -217 300 -228 q 308 -197 300 -206 l 553 47 q 560 64 560 54 l 560 1083 q 568 1103 560 1094 q 588 1111 576 1111 l 633 1111 q 653 1103 644 1111 q 661 1083 661 1094 l 661 64 q 668 47 661 54 l 913 -197 m 178 1096 q 212 1081 197 1096 q 226 1047 226 1067 l 226 -250 q 218 -269 226 -261 q 199 -278 210 -278 l 153 -278 q 133 -269 142 -278 q 125 -250 125 -261 l 125 981 q 121 990 125 986 q 111 994 117 994 l 81 994 q 61 1003 69 994 q 53 1022 53 1011 l 53 1068 q 61 1088 53 1079 q 81 1096 69 1096 l 178 1096 m 414 1024 q 433 1015 425 1024 q 442 996 442 1007 l 442 65 q 433 46 442 54 q 414 38 425 38 l 368 38 q 349 46 357 38 q 340 65 340 54 l 340 996 q 349 1015 340 1007 q 368 1024 357 1024 l 414 1024 m 853 1024 q 872 1015 864 1024 q 881 996 881 1007 l 881 65 q 872 46 881 54 q 853 38 864 38 l 807 38 q 788 46 796 38 q 779 65 779 54 l 779 996 q 788 1015 779 1007 q 807 1024 796 1024 l 853 1024 z "},"会":{"ha":972,"x_min":53,"x_max":921,"o":"m 367 1008 q 354 1001 358 1008 l 147 651 q 122 639 139 639 q 110 642 114 639 l 68 667 q 56 692 56 675 q 58 704 56 700 l 286 1088 q 328 1111 300 1111 l 646 1111 q 669 1105 658 1111 q 688 1088 681 1099 l 915 704 q 918 692 918 700 q 906 667 918 675 l 864 642 q 850 639 860 639 q 826 651 833 639 l 619 1001 q 607 1008 615 1008 l 367 1008 m 153 501 q 133 510 142 501 q 125 529 125 518 l 125 576 q 133 596 125 588 q 153 604 142 604 l 821 604 q 840 596 832 604 q 849 576 849 588 l 849 529 q 840 510 849 518 q 821 501 832 501 l 153 501 m 81 197 q 61 206 69 197 q 53 225 53 214 l 53 274 q 61 293 53 285 q 81 301 69 301 l 893 301 q 913 293 904 301 q 921 274 921 285 l 921 225 q 913 206 921 214 q 893 197 904 197 l 346 197 q 329 192 336 197 q 319 178 322 186 l 222 -158 l 222 -162 q 236 -176 222 -176 l 747 -176 q 757 -172 753 -176 q 761 -162 761 -168 l 761 56 q 769 75 761 67 q 789 83 778 83 l 836 83 q 856 75 847 83 q 864 56 864 67 l 864 -231 q 849 -265 864 -251 q 815 -279 835 -279 l 158 -279 q 124 -265 139 -279 q 110 -231 110 -251 l 110 -185 q 111 -171 110 -175 l 213 181 l 213 185 q 209 194 213 190 q 200 197 206 197 l 81 197 z "},"伟":{"ha":972,"x_min":53,"x_max":921,"o":"m 632 343 q 640 324 632 332 q 660 315 649 315 l 872 315 q 907 301 893 315 q 921 267 921 286 l 921 28 q 895 -67 921 -24 q 826 -137 869 -111 q 732 -162 783 -162 l 718 -162 q 699 -154 707 -162 q 690 -135 690 -146 l 690 -89 q 699 -69 690 -78 q 718 -61 707 -61 l 732 -61 q 794 -35 768 -61 q 819 28 819 -8 l 819 200 q 806 214 819 214 l 660 214 q 640 206 649 214 q 632 186 632 197 l 632 -250 q 624 -269 632 -261 q 604 -278 615 -278 l 558 -278 q 539 -269 547 -278 q 531 -250 531 -261 l 531 186 q 522 206 531 197 q 503 214 514 214 l 313 214 q 293 222 301 214 q 285 242 285 231 l 285 288 q 293 307 285 299 q 313 315 301 315 l 503 315 q 522 324 514 315 q 531 343 531 332 l 531 519 q 522 539 531 531 q 503 547 514 547 l 326 547 q 307 556 315 547 q 299 575 299 564 l 299 621 q 307 640 299 632 q 326 649 315 649 l 503 649 q 522 657 514 649 q 531 676 531 665 l 531 851 q 522 871 531 863 q 503 879 514 879 l 313 879 q 293 888 301 879 q 285 907 285 896 l 285 953 q 293 972 285 964 q 313 981 301 981 l 503 981 q 522 989 514 981 q 531 1008 531 997 l 531 1083 q 539 1103 531 1094 q 558 1111 547 1111 l 604 1111 q 624 1103 615 1111 q 632 1083 632 1094 l 632 1008 q 640 989 632 997 q 660 981 649 981 l 879 981 q 899 972 890 981 q 907 953 907 964 l 907 907 q 899 888 907 896 q 879 879 890 879 l 660 879 q 640 871 649 879 q 632 851 632 863 l 632 676 q 640 657 632 665 q 660 649 649 649 l 864 649 q 883 640 875 649 q 892 621 892 632 l 892 575 q 883 556 892 564 q 864 547 875 547 l 660 547 q 640 539 649 547 q 632 519 632 531 l 632 343 m 178 1101 q 212 1087 197 1101 q 226 1053 226 1072 l 226 -250 q 218 -269 226 -261 q 199 -278 210 -278 l 153 -278 q 133 -269 142 -278 q 125 -250 125 -261 l 125 986 q 121 996 125 992 q 111 1000 117 1000 l 81 1000 q 61 1008 69 1000 q 53 1028 53 1017 l 53 1074 q 61 1093 53 1085 q 81 1101 69 1101 l 178 1101 z "},"伦":{"ha":972,"x_min":53,"x_max":921,"o":"m 410 651 q 397 635 407 640 q 375 633 386 631 l 332 649 q 316 663 321 653 q 314 685 311 674 l 450 1079 q 468 1102 456 1093 q 496 1111 481 1111 l 729 1111 q 757 1102 744 1111 q 775 1079 769 1093 l 911 685 q 913 676 913 682 q 893 649 913 656 l 850 633 q 842 632 847 632 q 825 638 833 632 q 815 651 817 643 l 694 1001 q 681 1010 690 1010 l 544 1010 q 531 1001 533 1010 l 410 651 m 178 1096 q 212 1081 197 1096 q 226 1047 226 1067 l 226 -250 q 218 -269 226 -261 q 199 -278 210 -278 l 153 -278 q 133 -269 142 -278 q 125 -250 125 -261 l 125 981 q 121 990 125 986 q 111 994 117 994 l 81 994 q 61 1003 69 994 q 53 1022 53 1011 l 53 1068 q 61 1088 53 1079 q 81 1096 69 1096 l 178 1096 m 893 -82 q 913 -90 904 -82 q 921 -110 921 -99 l 921 -229 q 906 -263 921 -249 q 872 -278 892 -278 l 581 -278 q 486 -252 529 -278 q 417 -183 443 -226 q 392 -87 392 -139 l 392 549 q 400 568 392 560 q 419 576 408 576 l 465 576 q 485 568 476 576 q 493 549 493 560 l 493 172 q 501 156 493 161 q 519 157 510 151 l 778 303 q 790 324 790 310 l 790 521 q 799 540 790 532 q 818 549 807 549 l 864 549 q 883 540 875 549 q 892 521 892 532 l 892 276 q 885 255 892 265 q 869 239 879 244 l 514 38 q 493 0 493 28 l 493 -87 q 519 -150 493 -124 q 581 -176 544 -176 l 806 -176 q 815 -172 811 -176 q 819 -162 819 -168 l 819 -110 q 828 -90 819 -99 q 847 -82 836 -82 l 893 -82 z "},"伯":{"ha":972,"x_min":53,"x_max":921,"o":"m 606 963 q 601 951 601 958 q 606 942 601 946 q 615 938 610 938 l 872 938 q 907 924 893 938 q 921 889 921 910 l 921 -87 q 895 -183 921 -139 q 826 -252 869 -226 q 732 -278 783 -278 l 376 -278 q 342 -263 357 -278 q 328 -229 328 -249 l 328 889 q 342 924 328 910 q 376 938 357 938 l 419 938 q 453 953 440 938 l 599 1097 q 618 1106 607 1106 q 638 1097 629 1106 l 669 1065 q 678 1046 678 1057 q 669 1025 678 1033 l 606 963 m 178 1085 q 212 1070 197 1085 q 226 1036 226 1056 l 226 -250 q 218 -269 226 -261 q 199 -278 210 -278 l 153 -278 q 133 -269 142 -278 q 125 -250 125 -261 l 125 969 q 121 979 125 975 q 111 983 117 983 l 81 983 q 61 992 69 983 q 53 1011 53 1000 l 53 1057 q 61 1076 53 1068 q 81 1085 69 1085 l 178 1085 m 819 824 q 815 833 819 829 q 806 838 811 838 l 443 838 q 433 833 438 838 q 429 824 429 829 l 429 408 q 438 389 429 397 q 457 381 446 381 l 792 381 q 811 389 803 381 q 819 408 819 397 l 819 824 m 732 -176 q 794 -150 768 -176 q 819 -87 819 -124 l 819 251 q 811 272 819 264 q 792 279 803 279 l 457 279 q 438 272 446 279 q 429 251 429 264 l 429 -162 q 433 -172 429 -168 q 443 -176 438 -176 l 732 -176 z "},"估":{"ha":972,"x_min":53,"x_max":921,"o":"m 921 835 q 913 815 921 824 q 893 807 904 807 l 696 807 q 676 799 685 807 q 668 779 668 790 l 668 444 q 676 425 668 433 q 696 417 685 417 l 844 417 q 878 402 864 417 q 893 368 893 388 l 893 -89 q 867 -183 893 -140 q 798 -252 842 -226 q 703 -278 754 -278 l 392 -278 q 357 -263 371 -278 q 343 -229 343 -249 l 343 368 q 357 402 343 388 q 392 417 371 417 l 539 417 q 558 425 550 417 q 567 444 567 433 l 567 779 q 558 799 567 790 q 539 807 550 807 l 342 807 q 322 815 331 807 q 314 835 314 824 l 314 881 q 322 900 314 892 q 342 908 331 908 l 539 908 q 558 917 550 908 q 567 936 567 925 l 567 1083 q 575 1103 567 1094 q 594 1111 583 1111 l 640 1111 q 660 1103 651 1111 q 668 1083 668 1094 l 668 936 q 676 917 668 925 q 696 908 685 908 l 893 908 q 913 900 904 908 q 921 881 921 892 l 921 835 m 81 996 q 61 1004 69 996 q 53 1024 53 1013 l 53 1069 q 61 1089 53 1081 q 81 1097 69 1097 l 178 1097 q 212 1083 197 1097 q 226 1049 226 1068 l 226 -250 q 218 -269 226 -261 q 199 -278 210 -278 l 153 -278 q 133 -269 142 -278 q 125 -250 125 -261 l 125 982 q 121 992 125 988 q 111 996 117 996 l 81 996 m 792 301 q 788 311 792 307 q 778 315 783 315 l 458 315 q 444 301 444 315 l 444 -162 q 458 -176 444 -176 l 703 -176 q 765 -151 739 -176 q 792 -89 792 -125 l 792 301 z "},"伴":{"ha":972,"x_min":53,"x_max":921,"o":"m 178 1111 q 212 1097 197 1111 q 226 1063 226 1082 l 226 -250 q 218 -269 226 -261 q 199 -278 210 -278 l 153 -278 q 133 -269 142 -278 q 125 -250 125 -261 l 125 996 q 121 1006 125 1001 q 111 1010 117 1010 l 81 1010 q 61 1018 69 1010 q 53 1038 53 1026 l 53 1083 q 61 1103 53 1094 q 81 1111 69 1111 l 178 1111 m 893 257 q 913 249 904 257 q 921 229 921 242 l 921 185 q 913 165 921 174 q 893 157 904 157 l 681 157 q 661 149 669 157 q 653 129 653 140 l 653 -250 q 644 -269 653 -261 q 625 -278 636 -278 l 579 -278 q 560 -269 568 -278 q 551 -250 551 -261 l 551 129 q 543 149 551 140 q 524 157 535 157 l 313 157 q 293 165 301 157 q 285 185 285 174 l 285 229 q 293 249 285 242 q 313 257 301 257 l 524 257 q 543 265 535 257 q 551 285 551 274 l 551 533 q 543 553 551 544 q 524 561 535 561 l 333 561 q 314 569 322 561 q 306 589 306 578 l 306 635 q 314 654 306 646 q 333 663 322 663 l 524 663 q 543 671 535 663 q 551 690 551 679 l 551 1083 q 560 1103 551 1094 q 579 1111 568 1111 l 625 1111 q 644 1103 636 1111 q 653 1083 653 1094 l 653 690 q 661 671 653 679 q 681 663 669 663 l 871 663 q 890 654 882 663 q 899 635 899 646 l 899 589 q 890 569 899 578 q 871 561 882 561 l 681 561 q 661 553 669 561 q 653 533 653 544 l 653 285 q 661 265 653 274 q 681 257 669 257 l 893 257 m 415 1061 q 435 1053 426 1061 q 443 1033 443 1044 l 443 756 q 435 736 443 744 q 415 728 426 728 l 369 728 q 350 736 358 728 q 342 756 342 744 l 342 1033 q 350 1053 342 1044 q 369 1061 358 1061 l 415 1061 m 835 1061 q 854 1053 846 1061 q 863 1033 863 1044 l 863 756 q 854 736 863 744 q 835 728 846 728 l 789 728 q 769 736 778 728 q 761 756 761 744 l 761 1033 q 769 1053 761 1044 q 789 1061 778 1061 l 835 1061 z "},"伸":{"ha":972,"x_min":53,"x_max":921,"o":"m 178 1111 q 212 1097 197 1111 q 226 1063 226 1082 l 226 -250 q 218 -269 226 -261 q 199 -278 210 -278 l 153 -278 q 133 -269 142 -278 q 125 -250 125 -261 l 125 996 q 121 1006 125 1001 q 111 1010 117 1010 l 81 1010 q 61 1018 69 1010 q 53 1038 53 1026 l 53 1083 q 61 1103 53 1094 q 81 1111 69 1111 l 178 1111 m 872 964 q 906 949 892 964 q 921 915 921 935 l 921 28 q 906 -6 921 8 q 872 -21 892 -21 l 703 -21 q 683 -29 692 -21 q 675 -49 675 -37 l 675 -250 q 667 -269 675 -261 q 647 -278 658 -278 l 601 -278 q 582 -269 590 -278 q 574 -250 574 -261 l 574 -49 q 565 -29 574 -37 q 546 -21 557 -21 l 376 -21 q 342 -6 356 -21 q 328 28 328 8 l 328 915 q 342 949 328 935 q 376 964 356 964 l 546 964 q 565 972 557 964 q 574 992 574 981 l 574 1083 q 582 1103 574 1094 q 601 1111 590 1111 l 647 1111 q 667 1103 658 1111 q 675 1083 675 1094 l 675 992 q 683 972 675 981 q 703 964 692 964 l 872 964 m 574 835 q 565 854 574 846 q 546 863 557 863 l 442 863 q 428 849 428 863 l 428 550 q 436 531 428 539 q 456 522 444 522 l 546 522 q 565 531 557 522 q 574 550 574 539 l 574 835 m 819 849 q 806 863 819 863 l 703 863 q 683 854 692 863 q 675 835 675 846 l 675 550 q 683 531 675 539 q 703 522 692 522 l 799 522 q 813 531 806 522 q 819 550 819 539 l 819 849 m 428 94 q 442 81 428 81 l 546 81 q 565 89 557 81 q 574 108 574 97 l 574 393 q 565 413 574 404 q 546 421 557 421 l 456 421 q 436 413 444 421 q 428 393 428 404 l 428 94 m 675 108 q 683 89 675 97 q 703 81 692 81 l 806 81 q 819 94 819 81 l 819 393 q 813 413 819 404 q 799 421 806 421 l 703 421 q 683 413 692 421 q 675 393 675 404 l 675 108 z "},"伺":{"ha":972,"x_min":53,"x_max":921,"o":"m 178 1111 q 212 1097 197 1111 q 226 1063 226 1082 l 226 -250 q 218 -269 226 -261 q 199 -278 210 -278 l 153 -278 q 133 -269 142 -278 q 125 -250 125 -261 l 125 996 q 121 1006 125 1001 q 111 1010 117 1010 l 81 1010 q 61 1018 69 1010 q 53 1038 53 1026 l 53 1083 q 61 1103 53 1094 q 81 1111 69 1111 l 178 1111 m 872 1085 q 906 1071 892 1085 q 921 1036 921 1057 l 921 -89 q 895 -183 921 -140 q 826 -252 869 -226 q 732 -278 783 -278 l 653 -278 q 625 -250 625 -278 l 625 -204 q 653 -176 625 -176 l 732 -176 q 794 -151 768 -176 q 819 -89 819 -125 l 819 971 q 815 981 819 976 q 806 985 811 985 l 343 985 q 324 993 332 985 q 315 1013 315 1001 l 315 1057 q 324 1077 315 1069 q 343 1085 332 1085 l 872 1085 m 351 758 q 332 767 340 758 q 324 786 324 775 l 324 832 q 332 851 324 843 q 351 860 340 860 l 714 860 q 733 851 725 860 q 742 832 742 843 l 742 786 q 733 767 742 775 q 714 758 725 758 l 351 758 m 714 -12 q 700 -47 714 -32 q 665 -61 686 -61 l 400 -61 q 365 -47 379 -61 q 351 -12 351 -32 l 351 574 q 365 608 351 593 q 400 622 379 622 l 665 622 q 700 608 686 622 q 714 574 714 593 l 714 -12 m 613 507 q 599 521 613 521 l 467 521 q 453 507 453 521 l 453 54 q 457 44 453 49 q 467 40 461 40 l 599 40 q 608 44 604 40 q 613 54 613 49 l 613 507 z "},"佃":{"ha":972,"x_min":53,"x_max":921,"o":"m 178 1097 q 212 1083 197 1097 q 226 1049 226 1068 l 226 -250 q 218 -269 226 -261 q 199 -278 210 -278 l 153 -278 q 133 -269 142 -278 q 125 -250 125 -261 l 125 982 q 121 992 125 988 q 111 996 117 996 l 81 996 q 61 1004 69 996 q 53 1024 53 1013 l 53 1069 q 61 1089 53 1081 q 81 1097 69 1097 l 178 1097 m 310 1028 q 324 1062 310 1047 q 358 1076 338 1076 l 872 1076 q 906 1062 892 1076 q 921 1028 921 1047 l 921 -89 q 895 -183 921 -140 q 826 -252 869 -226 q 731 -278 782 -278 l 358 -278 q 324 -263 338 -278 q 310 -229 310 -249 l 310 1028 m 564 947 q 556 967 564 958 q 536 975 547 975 l 425 975 q 415 971 419 975 q 411 961 411 967 l 411 478 q 419 458 411 467 q 439 450 428 450 l 536 450 q 556 458 547 450 q 564 478 564 467 l 564 947 m 792 450 q 811 458 803 450 q 819 478 819 467 l 819 961 q 815 971 819 967 q 806 975 811 975 l 693 975 q 674 967 682 975 q 665 947 665 958 l 665 478 q 674 458 665 467 q 693 450 682 450 l 792 450 m 439 349 q 419 340 428 349 q 411 321 411 332 l 411 -162 q 425 -176 411 -176 l 536 -176 q 556 -168 547 -176 q 564 -149 564 -160 l 564 321 q 556 340 564 332 q 536 349 547 349 l 439 349 m 731 -176 q 793 -151 767 -176 q 819 -89 819 -125 l 819 321 q 811 340 819 332 q 792 349 803 349 l 693 349 q 674 340 682 349 q 665 321 665 332 l 665 -149 q 674 -168 665 -160 q 693 -176 682 -176 l 731 -176 z "},"但":{"ha":972,"x_min":53,"x_max":921,"o":"m 178 1097 q 212 1083 197 1097 q 226 1049 226 1068 l 226 -250 q 218 -269 226 -261 q 199 -278 210 -278 l 153 -278 q 133 -269 142 -278 q 125 -250 125 -261 l 125 982 q 121 992 125 988 q 111 996 117 996 l 81 996 q 61 1004 69 996 q 53 1024 53 1013 l 53 1069 q 61 1089 53 1081 q 81 1097 69 1097 l 178 1097 m 817 1082 q 851 1067 836 1082 q 865 1033 865 1053 l 865 118 q 851 84 865 99 q 817 69 836 69 l 374 69 q 340 84 354 69 q 325 118 325 99 l 325 1033 q 340 1067 325 1053 q 374 1082 354 1082 l 817 1082 m 764 967 q 750 981 764 981 l 440 981 q 426 967 426 981 l 426 654 q 435 635 426 643 q 454 626 443 626 l 736 626 q 756 635 747 626 q 764 654 764 643 l 764 967 m 426 185 q 440 171 426 171 l 750 171 q 764 185 764 171 l 764 497 q 756 517 764 508 q 736 525 747 525 l 454 525 q 435 517 443 525 q 426 497 426 508 l 426 185 m 269 -204 q 278 -185 269 -193 q 297 -176 286 -176 l 893 -176 q 913 -185 904 -176 q 921 -204 921 -193 l 921 -250 q 913 -269 921 -261 q 893 -278 904 -278 l 297 -278 q 278 -269 286 -278 q 269 -250 269 -261 l 269 -204 z "},"位":{"ha":972,"x_min":53,"x_max":921,"o":"m 619 1111 q 639 1103 631 1111 q 647 1083 647 1094 l 647 967 q 656 947 647 956 q 675 939 664 939 l 883 939 q 903 931 894 939 q 911 911 911 922 l 911 865 q 903 846 911 854 q 883 838 894 838 l 311 838 q 292 846 300 838 q 283 865 283 854 l 283 911 q 292 931 283 922 q 311 939 300 939 l 518 939 q 538 947 531 939 q 546 967 546 956 l 546 1083 q 554 1103 546 1094 q 574 1111 563 1111 l 619 1111 m 81 996 q 61 1004 69 996 q 53 1024 53 1013 l 53 1069 q 61 1089 53 1081 q 81 1097 69 1097 l 178 1097 q 212 1083 197 1097 q 226 1049 226 1068 l 226 -250 q 218 -269 226 -261 q 199 -278 210 -278 l 153 -278 q 133 -269 142 -278 q 125 -250 125 -261 l 125 982 q 121 992 125 988 q 111 996 117 996 l 81 996 m 356 724 q 364 743 356 735 q 383 751 372 751 l 428 751 q 448 743 440 751 q 456 724 456 735 l 456 -76 q 448 -96 456 -87 q 428 -104 440 -104 l 383 -104 q 364 -96 372 -104 q 356 -76 356 -87 l 356 724 m 738 724 q 746 743 738 735 q 765 751 754 751 l 811 751 q 831 743 822 751 q 839 724 839 735 l 839 -76 q 831 -96 839 -87 q 811 -104 822 -104 l 765 -104 q 746 -96 754 -104 q 738 -76 738 -87 l 738 724 m 301 -278 q 282 -269 290 -278 q 274 -250 274 -261 l 274 -204 q 282 -185 274 -193 q 301 -176 290 -176 l 893 -176 q 913 -185 904 -176 q 921 -204 921 -193 l 921 -250 q 913 -269 921 -261 q 893 -278 904 -278 l 301 -278 z "},"低":{"ha":972,"x_min":53,"x_max":921,"o":"m 799 967 q 779 958 788 967 q 771 939 771 950 l 771 632 q 779 613 771 621 q 799 604 788 604 l 861 604 q 881 596 872 604 q 889 576 889 588 l 889 531 q 881 511 889 519 q 861 503 872 503 l 799 503 q 779 495 788 503 q 771 475 771 488 l 771 -44 q 779 -64 771 -58 l 904 -190 q 913 -210 913 -199 q 904 -229 913 -224 l 872 -262 q 853 -269 865 -269 q 833 -262 840 -269 l 683 -112 q 669 -78 669 -99 l 669 475 q 661 495 669 488 q 642 503 653 503 l 432 503 q 413 495 421 503 q 404 475 404 488 l 404 -161 q 418 -175 404 -175 l 493 -175 q 513 -183 504 -175 q 521 -203 521 -192 l 521 -249 q 513 -268 521 -260 q 493 -276 504 -276 l 351 -276 q 317 -262 331 -276 q 303 -228 303 -247 l 303 1019 q 317 1053 303 1039 q 351 1068 331 1068 l 799 1068 q 815 1075 808 1068 l 840 1100 q 861 1108 849 1108 q 881 1100 872 1108 l 913 1068 q 921 1049 921 1060 q 913 1029 921 1038 l 863 979 q 833 967 850 967 l 799 967 m 178 1097 q 212 1083 197 1097 q 226 1049 226 1068 l 226 -250 q 218 -269 226 -261 q 199 -278 210 -278 l 153 -278 q 133 -269 142 -278 q 125 -250 125 -261 l 125 982 q 121 992 125 988 q 111 996 117 996 l 81 996 q 61 1004 69 996 q 53 1024 53 1013 l 53 1069 q 61 1089 53 1081 q 81 1097 69 1097 l 178 1097 m 669 939 q 661 958 669 950 q 642 967 653 967 l 418 967 q 408 963 413 967 q 404 953 404 958 l 404 632 q 413 613 404 621 q 432 604 421 604 l 642 604 q 661 613 653 604 q 669 632 669 621 l 669 939 m 617 -32 q 636 -40 628 -32 q 644 -60 644 -49 l 644 -236 q 636 -256 644 -247 q 617 -264 628 -264 l 571 -264 q 551 -256 560 -264 q 543 -236 543 -247 l 543 -60 q 551 -40 543 -49 q 571 -32 560 -32 l 617 -32 z "},"体":{"ha":972,"x_min":53,"x_max":921,"o":"m 81 1010 q 61 1018 69 1010 q 53 1038 53 1026 l 53 1083 q 61 1103 53 1094 q 81 1111 69 1111 l 178 1111 q 212 1097 197 1111 q 226 1063 226 1082 l 226 -250 q 218 -269 226 -261 q 199 -278 210 -278 l 153 -278 q 133 -269 142 -278 q 125 -250 125 -261 l 125 996 q 121 1006 125 1001 q 111 1010 117 1010 l 81 1010 m 653 1008 q 661 989 653 997 q 681 981 669 981 l 893 981 q 913 972 904 981 q 921 953 921 964 l 921 907 q 913 888 921 896 q 893 879 904 879 l 681 879 q 661 871 669 879 q 653 851 653 863 l 653 68 q 661 49 653 57 q 681 40 669 40 l 733 40 q 753 32 744 40 q 761 13 761 24 l 761 -33 q 753 -53 761 -44 q 733 -61 744 -61 l 681 -61 q 661 -69 669 -61 q 653 -89 653 -78 l 653 -250 q 644 -269 653 -261 q 625 -278 636 -278 l 579 -278 q 560 -269 568 -278 q 551 -250 551 -261 l 551 -89 q 543 -69 551 -78 q 524 -61 535 -61 l 471 -61 q 451 -53 460 -61 q 443 -33 443 -44 l 443 13 q 451 32 443 24 q 471 40 460 40 l 524 40 q 543 49 535 40 q 551 68 551 57 l 551 851 q 543 871 551 863 q 524 879 535 879 l 311 879 q 292 888 300 879 q 283 907 283 896 l 283 953 q 292 972 283 964 q 311 981 300 981 l 524 981 q 543 989 535 981 q 551 1008 551 997 l 551 1083 q 560 1103 551 1094 q 579 1111 568 1111 l 625 1111 q 644 1103 636 1111 q 653 1083 653 1094 l 653 1008 m 356 -235 q 336 -226 344 -235 q 328 -207 328 -218 l 328 764 q 336 783 328 775 q 356 792 344 792 l 401 792 q 421 783 413 792 q 429 764 429 775 l 429 -207 q 421 -226 429 -218 q 401 -235 413 -235 l 356 -235 m 804 -235 q 785 -226 793 -235 q 776 -207 776 -218 l 776 764 q 785 783 776 775 q 804 792 793 792 l 849 792 q 869 783 861 792 q 876 764 876 775 l 876 -207 q 869 -226 876 -218 q 849 -235 861 -235 l 804 -235 z "},"何":{"ha":972,"x_min":53,"x_max":921,"o":"m 178 1111 q 212 1097 197 1111 q 226 1063 226 1082 l 226 -250 q 218 -269 226 -261 q 199 -278 210 -278 l 153 -278 q 133 -269 142 -278 q 125 -250 125 -261 l 125 996 q 121 1006 125 1001 q 111 1010 117 1010 l 81 1010 q 61 1018 69 1010 q 53 1038 53 1026 l 53 1083 q 61 1103 53 1094 q 81 1111 69 1111 l 178 1111 m 893 1097 q 913 1089 904 1097 q 921 1069 921 1081 l 921 1024 q 913 1004 921 1013 q 893 996 904 996 l 876 996 q 857 988 865 996 q 849 968 849 979 l 849 -87 q 823 -183 849 -139 q 753 -252 797 -226 q 658 -278 710 -278 l 514 -278 q 494 -269 503 -278 q 486 -250 486 -261 l 486 -204 q 494 -185 486 -193 q 514 -176 503 -176 l 658 -176 q 722 -150 696 -176 q 747 -87 747 -124 l 747 968 q 739 988 747 979 q 719 996 731 996 l 307 996 q 288 1004 296 996 q 279 1024 279 1013 l 279 1069 q 288 1089 279 1081 q 307 1097 296 1097 l 893 1097 m 626 851 q 660 837 646 851 q 675 803 675 822 l 675 17 q 660 -17 675 -3 q 626 -32 646 -32 l 361 -32 q 327 -17 342 -32 q 313 17 313 -3 l 313 803 q 327 837 313 822 q 361 851 342 851 l 626 851 m 560 69 q 569 74 565 69 q 574 83 574 78 l 574 736 q 569 746 574 742 q 560 750 565 750 l 428 750 q 418 746 422 750 q 414 736 414 742 l 414 83 q 418 74 414 78 q 428 69 422 69 l 560 69 z "},"佯":{"ha":972,"x_min":53,"x_max":921,"o":"m 81 1011 q 61 1019 69 1011 q 53 1039 53 1028 l 53 1085 q 61 1104 53 1096 q 81 1113 69 1113 l 178 1113 q 212 1098 197 1113 q 226 1064 226 1083 l 226 -249 q 218 -268 226 -260 q 199 -276 210 -276 l 153 -276 q 133 -268 142 -276 q 125 -249 125 -260 l 125 997 q 121 1007 125 1003 q 111 1011 117 1011 l 81 1011 m 693 439 q 674 431 682 439 q 665 411 665 422 l 665 156 q 674 136 665 144 q 693 128 682 128 l 893 128 q 913 119 904 128 q 921 100 921 111 l 921 54 q 913 35 921 43 q 893 26 904 26 l 693 26 q 674 18 682 26 q 665 -1 665 10 l 665 -250 q 657 -269 665 -261 q 638 -278 649 -278 l 592 -278 q 572 -269 581 -278 q 564 -250 564 -261 l 564 -1 q 556 18 564 10 q 536 26 547 26 l 336 26 q 317 35 325 26 q 308 54 308 43 l 308 100 q 317 119 308 111 q 336 128 325 128 l 536 128 q 556 136 547 128 q 564 156 564 144 l 564 411 q 556 431 564 422 q 536 439 547 439 l 349 439 q 329 447 338 439 q 321 467 321 456 l 321 513 q 329 532 321 524 q 349 540 338 540 l 536 540 q 556 549 547 540 q 564 568 564 557 l 564 824 q 556 843 564 835 q 536 851 547 851 l 339 851 q 319 860 328 851 q 311 879 311 868 l 311 925 q 319 944 311 936 q 339 953 328 953 l 358 953 q 378 961 369 953 q 386 981 386 969 l 386 1081 q 394 1100 386 1092 q 414 1108 403 1108 l 460 1108 q 479 1100 471 1108 q 488 1081 488 1092 l 488 981 q 496 961 488 969 q 515 953 504 953 l 714 953 q 733 961 725 953 q 742 981 742 969 l 742 1083 q 749 1103 742 1096 q 769 1111 757 1111 l 814 1111 q 833 1103 825 1111 q 842 1083 842 1096 l 842 981 q 850 961 842 969 q 869 953 858 953 l 890 953 q 910 944 901 953 q 918 925 918 936 l 918 879 q 910 860 918 868 q 890 851 901 851 l 693 851 q 674 843 682 851 q 665 824 665 835 l 665 568 q 674 549 665 557 q 693 540 682 540 l 879 540 q 899 532 890 540 q 907 513 907 524 l 907 467 q 899 447 907 456 q 879 439 890 439 l 693 439 z "},"佳":{"ha":972,"x_min":53,"x_max":921,"o":"m 697 865 q 678 857 686 865 q 669 838 669 849 l 669 604 q 678 585 669 593 q 697 576 686 576 l 893 576 q 913 568 904 576 q 921 549 921 560 l 921 503 q 913 483 921 492 q 893 475 904 475 l 340 475 q 321 483 329 475 q 313 503 313 492 l 313 549 q 321 568 313 560 q 340 576 329 576 l 540 576 q 560 585 551 576 q 568 604 568 593 l 568 838 q 560 857 568 849 q 540 865 551 865 l 349 865 q 328 874 336 865 q 321 893 321 882 l 321 939 q 328 958 321 950 q 349 967 336 967 l 540 967 q 560 975 551 967 q 568 994 568 983 l 568 1083 q 576 1103 568 1094 q 596 1111 585 1111 l 642 1111 q 661 1103 653 1111 q 669 1083 669 1094 l 669 994 q 678 975 669 983 q 697 967 686 967 l 886 967 q 906 958 897 967 q 914 939 914 950 l 914 893 q 906 874 914 882 q 886 865 897 865 l 697 865 m 178 1086 q 212 1072 197 1086 q 226 1038 226 1057 l 226 -250 q 218 -269 226 -261 q 199 -278 210 -278 l 153 -278 q 133 -269 142 -278 q 125 -250 125 -261 l 125 971 q 121 981 125 976 q 111 985 117 985 l 81 985 q 61 993 69 985 q 53 1013 53 1001 l 53 1058 q 61 1078 53 1069 q 81 1086 69 1086 l 178 1086 m 697 128 q 678 119 686 128 q 669 100 669 111 l 669 -149 q 678 -168 669 -160 q 697 -176 686 -176 l 893 -176 q 913 -185 904 -176 q 921 -204 921 -193 l 921 -250 q 913 -269 921 -261 q 893 -278 904 -278 l 340 -278 q 321 -269 329 -278 q 313 -250 313 -261 l 313 -204 q 321 -185 313 -193 q 340 -176 329 -176 l 540 -176 q 560 -168 551 -176 q 568 -149 568 -160 l 568 100 q 560 119 568 111 q 540 128 551 128 l 349 128 q 328 136 336 128 q 321 156 321 144 l 321 201 q 328 221 321 213 q 349 229 336 229 l 540 229 q 560 238 551 229 q 568 257 568 246 l 568 375 q 576 394 568 386 q 596 403 585 403 l 642 403 q 661 394 653 403 q 669 375 669 386 l 669 257 q 678 238 669 246 q 697 229 686 229 l 886 229 q 906 221 897 229 q 914 201 914 213 l 914 156 q 906 136 914 144 q 886 128 897 128 l 697 128 z "},"侍":{"ha":972,"x_min":53,"x_max":921,"o":"m 657 624 q 665 604 657 613 q 685 596 674 596 l 893 596 q 913 588 906 596 q 921 568 921 579 l 921 522 q 913 503 921 511 q 893 494 906 494 l 319 494 q 300 503 308 494 q 292 522 292 511 l 292 568 q 300 588 292 579 q 319 596 308 596 l 528 596 q 548 604 540 596 q 556 624 556 613 l 556 822 q 548 842 556 835 q 528 850 540 850 l 342 850 q 322 858 331 850 q 314 878 314 867 l 314 924 q 322 943 314 935 q 342 951 331 951 l 528 951 q 548 960 540 951 q 556 979 556 968 l 556 1083 q 564 1103 556 1094 q 583 1111 572 1111 l 629 1111 q 649 1103 640 1111 q 657 1083 657 1094 l 657 979 q 665 960 657 968 q 685 951 674 951 l 871 951 q 891 943 883 951 q 899 924 899 935 l 899 878 q 891 858 899 867 q 871 850 883 850 l 685 850 q 665 842 674 850 q 657 822 657 835 l 657 624 m 81 993 q 61 1001 69 993 q 53 1021 53 1010 l 53 1067 q 61 1086 53 1078 q 81 1094 69 1094 l 178 1094 q 212 1080 197 1094 q 226 1046 226 1065 l 226 -250 q 218 -269 226 -261 q 199 -278 210 -278 l 153 -278 q 133 -269 142 -278 q 125 -250 125 -261 l 125 979 q 121 989 125 985 q 111 993 117 993 l 81 993 m 790 453 q 810 444 801 453 q 818 425 818 436 l 818 343 q 826 324 818 332 q 846 315 835 315 l 882 315 q 901 307 893 315 q 910 288 910 299 l 910 242 q 901 222 910 231 q 882 214 893 214 l 846 214 q 826 206 835 214 q 818 186 818 197 l 818 -89 q 792 -183 818 -140 q 724 -252 767 -226 q 629 -278 681 -278 l 578 -278 q 558 -269 567 -278 q 550 -250 550 -261 l 550 -204 q 558 -185 550 -193 q 578 -176 567 -176 l 629 -176 q 691 -151 665 -176 q 717 -89 717 -125 l 717 186 q 708 206 717 197 q 689 214 700 214 l 339 214 q 319 222 328 214 q 311 242 311 231 l 311 288 q 319 307 311 299 q 339 315 328 315 l 689 315 q 708 324 700 315 q 717 343 717 332 l 717 425 q 725 444 717 436 q 744 453 733 453 l 790 453 m 413 -118 q 393 -110 401 -118 q 385 -90 385 -101 l 385 114 q 393 133 385 125 q 413 142 401 142 l 458 142 q 478 133 469 142 q 486 114 486 125 l 486 -90 q 478 -110 486 -101 q 458 -118 469 -118 l 413 -118 z "},"侗":{"ha":972,"x_min":53,"x_max":921,"o":"m 872 1111 q 907 1097 893 1111 q 921 1063 921 1082 l 921 -87 q 895 -183 921 -139 q 826 -252 869 -226 q 732 -278 783 -278 l 626 -278 q 607 -269 615 -278 q 599 -250 599 -261 l 599 -204 q 607 -185 599 -193 q 626 -176 615 -176 l 732 -176 q 794 -150 768 -176 q 819 -87 819 -124 l 819 996 q 815 1006 819 1001 q 806 1010 811 1010 l 418 1010 q 408 1006 413 1010 q 404 996 404 1001 l 404 -250 q 396 -269 404 -261 q 376 -278 388 -278 l 331 -278 q 311 -269 319 -278 q 303 -250 303 -261 l 303 1063 q 317 1097 303 1082 q 351 1111 332 1111 l 872 1111 m 81 993 q 61 1001 69 993 q 53 1021 53 1010 l 53 1067 q 61 1086 53 1078 q 81 1094 69 1094 l 178 1094 q 212 1080 197 1094 q 226 1046 226 1065 l 226 -250 q 218 -269 226 -261 q 199 -278 210 -278 l 153 -278 q 133 -269 142 -278 q 125 -250 125 -261 l 125 979 q 121 989 125 985 q 111 993 117 993 l 81 993 m 486 807 q 467 815 475 807 q 458 835 458 824 l 458 881 q 467 900 458 892 q 486 908 475 908 l 739 908 q 758 900 750 908 q 767 881 767 892 l 767 835 q 758 815 767 824 q 739 807 750 807 l 486 807 m 753 46 q 738 12 753 26 q 704 -3 724 -3 l 521 -3 q 487 12 501 -3 q 472 46 472 26 l 472 643 q 487 677 472 663 q 521 692 501 692 l 704 692 q 738 677 724 692 q 753 643 753 663 l 753 46 m 651 576 q 647 586 651 582 q 638 590 643 590 l 588 590 q 574 576 574 590 l 574 113 q 578 103 574 107 q 588 99 582 99 l 638 99 q 647 103 643 99 q 651 113 651 107 l 651 576 z "},"供":{"ha":972,"x_min":53,"x_max":921,"o":"m 893 344 q 913 336 904 344 q 921 317 921 328 l 921 271 q 913 251 921 260 q 893 243 904 243 l 336 243 q 317 251 325 243 q 308 271 308 260 l 308 317 q 317 336 308 328 q 336 344 325 344 l 368 344 q 388 353 379 344 q 396 372 396 361 l 396 808 q 388 828 396 819 q 368 836 379 836 l 351 836 q 332 844 340 836 q 324 864 324 853 l 324 910 q 332 929 324 921 q 351 938 340 938 l 368 938 q 388 946 379 938 q 396 965 396 954 l 396 1069 q 404 1089 396 1081 q 424 1097 413 1097 l 469 1097 q 489 1089 481 1097 q 497 1069 497 1081 l 497 965 q 506 946 497 954 q 525 938 514 938 l 706 938 q 725 946 717 938 q 733 965 733 954 l 733 1069 q 742 1089 733 1081 q 761 1097 750 1097 l 807 1097 q 826 1089 818 1097 q 835 1069 835 1081 l 835 965 q 843 946 835 954 q 863 938 851 938 l 879 938 q 899 929 890 938 q 907 910 907 921 l 907 864 q 899 844 907 853 q 879 836 890 836 l 863 836 q 843 828 851 836 q 835 808 835 819 l 835 372 q 843 353 835 361 q 863 344 851 344 l 893 344 m 81 993 q 61 1001 69 993 q 53 1021 53 1010 l 53 1067 q 61 1086 53 1078 q 81 1094 69 1094 l 178 1094 q 212 1080 197 1094 q 226 1046 226 1065 l 226 -250 q 218 -269 226 -261 q 199 -278 210 -278 l 153 -278 q 133 -269 142 -278 q 125 -250 125 -261 l 125 979 q 121 989 125 985 q 111 993 117 993 l 81 993 m 525 836 q 506 828 514 836 q 497 808 497 819 l 497 372 q 506 353 497 361 q 525 344 514 344 l 706 344 q 725 353 717 344 q 733 372 733 361 l 733 808 q 725 828 733 819 q 706 836 717 836 l 525 836 m 349 -268 q 368 -276 357 -276 q 388 -268 379 -276 l 488 -169 q 500 -140 500 -157 l 500 168 q 492 188 500 179 q 472 196 483 196 l 426 196 q 407 188 415 196 q 399 168 399 179 l 399 -106 q 392 -122 399 -115 l 317 -196 q 308 -217 308 -204 q 317 -236 308 -228 l 349 -268 m 913 -236 q 921 -217 921 -228 q 913 -196 921 -204 l 838 -122 q 831 -106 831 -115 l 831 168 q 822 188 831 179 q 803 196 814 196 l 757 196 q 738 188 746 196 q 729 168 729 179 l 729 -140 q 742 -169 729 -157 l 842 -268 q 861 -276 850 -276 q 881 -268 872 -276 l 913 -236 z "},"侣":{"ha":972,"x_min":53,"x_max":921,"o":"m 81 1010 q 61 1018 69 1010 q 53 1038 53 1026 l 53 1083 q 61 1103 53 1094 q 81 1111 69 1111 l 161 1111 q 197 1097 182 1111 q 211 1061 211 1082 l 211 -250 q 203 -269 211 -261 q 183 -278 194 -278 l 138 -278 q 118 -269 126 -278 q 110 -250 110 -261 l 110 996 q 96 1010 110 1010 l 81 1010 m 842 504 q 877 519 863 504 q 892 554 892 533 l 892 1036 q 877 1072 892 1057 q 842 1086 863 1086 l 407 1086 q 372 1072 386 1086 q 357 1036 357 1057 l 357 554 q 372 519 357 533 q 407 504 386 504 l 842 504 m 472 606 q 458 619 458 606 l 458 971 q 472 985 458 985 l 776 985 q 790 971 790 985 l 790 619 q 776 606 790 606 l 472 606 m 731 -278 q 826 -252 782 -278 q 895 -183 869 -226 q 921 -87 921 -139 l 921 339 q 906 374 921 360 q 871 389 892 389 l 378 389 q 342 374 357 389 q 328 339 328 360 l 328 -228 q 342 -263 328 -249 q 378 -278 357 -278 l 731 -278 m 443 -176 q 429 -162 429 -176 l 429 274 q 443 288 429 288 l 806 288 q 819 274 819 288 l 819 -87 q 793 -150 819 -124 q 731 -176 767 -176 l 443 -176 z "},"侧":{"ha":972,"x_min":53,"x_max":921,"o":"m 81 1010 q 61 1018 69 1010 q 53 1038 53 1026 l 53 1083 q 61 1103 53 1094 q 81 1111 69 1111 l 178 1111 q 212 1097 197 1111 q 226 1063 226 1082 l 226 -250 q 218 -269 226 -261 q 199 -278 210 -278 l 153 -278 q 133 -269 142 -278 q 125 -250 125 -261 l 125 996 q 121 1006 125 1001 q 111 1010 117 1010 l 81 1010 m 415 1010 q 406 1006 410 1010 q 401 996 401 1001 l 401 -7 q 393 -26 401 -18 q 374 -35 385 -35 l 328 -35 q 308 -26 317 -35 q 300 -7 300 -18 l 300 1063 q 315 1097 300 1082 q 349 1111 329 1111 l 549 1111 q 583 1097 568 1111 q 597 1063 597 1082 l 597 -7 q 589 -26 597 -18 q 569 -35 581 -35 l 524 -35 q 504 -26 513 -35 q 496 -7 496 -18 l 496 996 q 482 1010 496 1010 l 415 1010 m 819 1083 q 828 1103 819 1094 q 847 1111 836 1111 l 893 1111 q 913 1103 904 1111 q 921 1083 921 1094 l 921 -89 q 895 -183 921 -140 q 826 -252 869 -226 q 732 -278 783 -278 l 703 -278 q 683 -269 692 -278 q 675 -250 675 -261 l 675 -204 q 683 -185 675 -193 q 703 -176 692 -176 l 732 -176 q 794 -151 768 -176 q 819 -89 819 -125 l 819 1083 m 735 1032 q 754 1024 746 1032 q 763 1004 763 1015 l 763 -40 q 754 -60 763 -51 q 735 -68 746 -68 l 689 -68 q 669 -60 678 -68 q 661 -40 661 -51 l 661 1004 q 669 1024 661 1015 q 689 1032 678 1032 l 735 1032 m 414 -57 q 449 -43 428 -43 q 483 -57 469 -43 l 624 -197 q 632 -218 632 -206 q 624 -237 632 -229 l 592 -269 q 572 -278 583 -278 q 553 -269 561 -278 l 458 -175 q 449 -171 454 -171 q 439 -175 443 -171 l 346 -268 q 326 -276 338 -276 q 307 -268 315 -276 l 274 -236 q 265 -217 265 -228 q 274 -197 265 -206 l 414 -57 z "},"侯":{"ha":972,"x_min":53,"x_max":921,"o":"m 81 1010 q 61 1018 69 1010 q 53 1038 53 1026 l 53 1083 q 61 1103 53 1094 q 81 1111 69 1111 l 161 1111 q 197 1097 182 1111 q 211 1061 211 1082 l 211 -250 q 203 -269 211 -261 q 183 -278 194 -278 l 138 -278 q 118 -269 126 -278 q 110 -250 110 -261 l 110 996 q 96 1010 110 1010 l 81 1010 m 893 822 q 913 814 904 822 q 921 794 921 806 l 921 749 q 913 729 921 738 q 893 721 904 721 l 326 721 q 307 729 315 721 q 299 749 299 738 l 299 794 q 307 814 299 806 q 326 822 315 822 l 719 822 q 739 831 731 822 q 747 850 747 839 l 747 996 q 733 1010 747 1010 l 371 1010 q 351 1018 360 1010 q 343 1038 343 1026 l 343 1083 q 351 1103 343 1094 q 371 1111 360 1111 l 800 1111 q 834 1097 819 1111 q 849 1063 849 1082 l 849 850 q 857 831 849 839 q 876 822 865 822 l 893 822 m 914 -206 q 918 -221 918 -212 q 904 -244 918 -236 l 865 -268 q 851 -272 858 -272 q 828 -258 833 -272 l 622 76 q 611 83 618 83 q 599 76 603 83 l 393 -258 q 369 -272 385 -272 q 354 -268 361 -272 l 315 -244 q 303 -221 303 -236 q 307 -206 303 -214 l 507 121 q 508 128 508 124 q 504 138 508 133 q 494 142 500 142 l 326 142 q 307 150 315 142 q 299 169 299 158 l 299 215 q 307 235 299 226 q 326 243 315 243 l 532 243 q 551 251 543 243 q 560 271 560 260 l 560 447 q 551 467 560 458 q 532 475 543 475 l 363 475 q 328 489 342 475 q 314 524 314 503 l 314 649 q 322 669 314 661 q 342 676 331 676 l 388 676 q 407 669 399 676 q 415 649 415 661 l 415 590 q 429 576 415 576 l 879 576 q 899 568 890 576 q 907 549 907 560 l 907 503 q 899 483 907 492 q 879 475 890 475 l 689 475 q 669 467 678 475 q 661 447 661 458 l 661 271 q 669 251 661 260 q 689 243 678 243 l 893 243 q 913 235 904 243 q 921 215 921 226 l 921 169 q 913 150 921 158 q 893 142 904 142 l 725 142 q 713 135 717 142 q 714 121 710 128 l 914 -206 z "},"促":{"ha":972,"x_min":53,"x_max":921,"o":"m 178 1111 q 212 1097 197 1111 q 226 1063 226 1082 l 226 -250 q 218 -269 226 -261 q 199 -278 210 -278 l 153 -278 q 133 -269 142 -278 q 125 -250 125 -261 l 125 996 q 121 1006 125 1001 q 111 1010 117 1010 l 81 1010 q 61 1018 69 1010 q 53 1038 53 1026 l 53 1083 q 61 1103 53 1094 q 81 1111 69 1111 l 178 1111 m 921 243 q 913 224 921 232 q 893 215 904 215 l 710 215 q 690 207 699 215 q 682 188 682 199 l 682 -165 q 685 -173 682 -169 q 693 -176 689 -176 l 893 -176 q 913 -185 904 -176 q 921 -204 921 -193 l 921 -250 q 913 -269 921 -261 q 893 -278 904 -278 l 693 -278 q 610 -258 649 -278 q 543 -204 569 -239 l 425 -53 q 414 -47 421 -47 q 404 -51 408 -47 q 400 -61 400 -56 l 400 -250 q 392 -269 400 -261 q 372 -278 383 -278 l 326 -278 q 307 -269 315 -278 q 299 -250 299 -261 l 299 397 q 307 417 299 408 q 326 425 315 425 l 372 425 q 392 417 383 425 q 400 397 400 408 l 400 154 q 406 138 400 149 l 568 -72 q 576 -75 571 -76 q 581 -68 581 -74 l 581 519 q 572 539 581 531 q 553 547 564 547 l 382 547 q 362 556 369 547 q 354 575 354 564 l 354 1069 q 362 1089 354 1081 q 382 1097 369 1097 l 867 1097 q 886 1089 878 1097 q 894 1069 894 1081 l 894 575 q 886 556 894 564 q 867 547 878 547 l 710 547 q 690 539 699 547 q 682 519 682 531 l 682 343 q 690 324 682 332 q 710 315 699 315 l 893 315 q 913 308 904 315 q 921 288 921 300 l 921 243 m 468 996 q 454 982 454 996 l 454 663 q 468 649 454 649 l 779 649 q 793 663 793 649 l 793 982 q 779 996 793 996 l 468 996 z "},"俊":{"ha":972,"x_min":53,"x_max":921,"o":"m 872 1053 q 892 1044 883 1053 q 900 1025 900 1036 l 900 842 q 885 808 900 822 q 851 793 871 793 l 356 793 q 322 808 336 793 q 307 842 307 822 l 307 888 q 310 906 307 894 l 388 1097 q 402 1113 392 1108 q 424 1113 413 1117 l 465 1096 q 480 1081 475 1092 q 481 1060 485 1071 l 422 913 l 421 908 q 425 899 421 903 q 435 894 429 894 l 785 894 q 799 908 799 894 l 799 1025 q 807 1044 799 1036 q 826 1053 815 1053 l 872 1053 m 178 1111 q 212 1097 197 1111 q 226 1063 226 1082 l 226 -250 q 218 -269 226 -261 q 199 -278 210 -278 l 153 -278 q 133 -269 142 -278 q 125 -250 125 -261 l 125 996 q 121 1006 125 1001 q 111 1010 117 1010 l 81 1010 q 61 1018 69 1010 q 53 1038 53 1026 l 53 1083 q 61 1103 53 1094 q 81 1111 69 1111 l 178 1111 m 369 500 q 390 492 378 492 q 410 500 401 492 l 529 619 q 542 649 542 632 l 542 733 q 533 753 542 744 q 514 761 525 761 l 468 761 q 449 753 457 761 q 440 733 440 744 l 440 683 q 433 667 440 674 l 338 571 q 329 551 329 563 q 338 532 329 540 l 369 500 m 840 500 q 861 492 849 492 q 881 500 872 492 l 913 532 q 921 551 921 540 q 913 571 921 563 l 817 667 q 810 683 810 674 l 810 733 q 801 753 810 744 q 782 761 793 761 l 736 761 q 717 753 725 761 q 708 733 708 744 l 708 649 q 721 619 708 632 l 840 500 m 913 -197 q 921 -217 921 -206 q 913 -236 921 -226 l 881 -268 q 861 -276 872 -276 q 840 -268 849 -276 l 628 -56 q 618 -51 624 -51 q 608 -56 613 -51 l 396 -268 q 375 -278 388 -278 q 356 -268 364 -278 l 324 -236 q 315 -217 315 -228 q 324 -197 315 -206 l 536 15 q 540 25 540 19 q 536 35 540 31 l 381 190 q 372 210 372 199 q 381 229 372 221 l 414 263 q 433 271 422 271 q 453 263 444 271 l 608 107 q 618 103 613 103 q 628 107 624 103 l 785 264 q 788 271 788 267 l 788 283 q 774 297 788 297 l 389 297 q 353 312 368 297 q 339 347 339 326 l 339 428 q 347 447 339 439 q 367 456 356 456 l 413 456 q 432 447 424 456 q 440 428 440 439 l 440 413 q 454 399 440 399 l 839 399 q 874 384 860 399 q 889 349 889 369 l 889 242 q 878 213 889 224 l 700 35 q 696 25 696 31 q 700 15 696 19 l 913 -197 z "},"俏":{"ha":972,"x_min":53,"x_max":921,"o":"m 178 1111 q 212 1097 197 1111 q 226 1063 226 1082 l 226 -236 q 218 -256 226 -247 q 199 -264 210 -264 l 153 -264 q 133 -256 142 -264 q 125 -236 125 -247 l 125 996 q 121 1006 125 1001 q 111 1010 117 1010 l 81 1010 q 61 1018 69 1010 q 53 1038 53 1026 l 53 1083 q 61 1103 53 1094 q 81 1111 69 1111 l 178 1111 m 678 749 q 686 729 678 738 q 706 721 694 721 l 871 721 q 906 706 892 721 q 921 671 921 692 l 921 -89 q 895 -183 921 -140 q 826 -252 869 -226 q 732 -278 783 -278 l 718 -278 q 699 -269 707 -278 q 690 -250 690 -261 l 690 -204 q 699 -185 690 -193 q 718 -176 707 -176 l 732 -176 q 794 -151 768 -176 q 821 -89 821 -125 l 821 19 q 813 39 821 31 q 793 47 804 47 l 463 47 q 443 39 451 47 q 435 19 435 31 l 435 -250 q 426 -269 435 -261 q 407 -278 418 -278 l 361 -278 q 342 -269 350 -278 q 333 -250 333 -261 l 333 671 q 348 706 333 692 q 383 721 363 721 l 549 721 q 568 729 560 721 q 576 749 576 738 l 576 1083 q 585 1103 576 1094 q 604 1111 593 1111 l 650 1111 q 669 1103 661 1111 q 678 1083 678 1094 l 678 749 m 414 1082 q 433 1074 425 1082 q 442 1054 442 1065 l 442 806 q 433 786 442 794 q 414 778 425 778 l 368 778 q 349 786 357 778 q 340 806 340 794 l 340 1054 q 349 1074 340 1065 q 368 1082 357 1082 l 414 1082 m 886 1082 q 906 1074 897 1082 q 914 1054 914 1065 l 914 806 q 906 786 914 794 q 886 778 897 778 l 840 778 q 821 786 829 778 q 813 806 813 794 l 813 1054 q 821 1074 813 1065 q 840 1082 829 1082 l 886 1082 m 821 606 q 807 619 821 619 l 449 619 q 435 606 435 619 l 435 467 q 443 447 435 456 q 463 439 451 439 l 793 439 q 813 447 804 439 q 821 467 821 456 l 821 606 m 435 176 q 443 157 435 165 q 463 149 451 149 l 793 149 q 813 157 804 149 q 821 176 821 165 l 821 310 q 813 329 821 321 q 793 338 804 338 l 463 338 q 443 329 451 338 q 435 310 435 321 l 435 176 z "},"俘":{"ha":972,"x_min":53,"x_max":921,"o":"m 328 953 q 308 961 317 953 q 300 981 300 969 l 300 1026 q 308 1046 300 1038 q 328 1054 317 1054 l 786 1054 q 803 1061 796 1054 l 840 1099 q 861 1107 849 1107 q 881 1099 872 1107 l 913 1067 q 921 1047 921 1058 q 913 1028 921 1036 l 850 965 q 821 953 838 953 l 328 953 m 178 1097 q 212 1083 197 1097 q 226 1049 226 1068 l 226 -250 q 218 -269 226 -261 q 199 -278 210 -278 l 153 -278 q 133 -269 142 -278 q 125 -250 125 -261 l 125 982 q 121 992 125 988 q 111 996 117 996 l 81 996 q 61 1004 69 996 q 53 1024 53 1013 l 53 1069 q 61 1089 53 1081 q 81 1097 69 1097 l 178 1097 m 388 888 q 407 879 399 888 q 415 860 415 871 l 415 669 q 407 650 415 658 q 388 642 399 642 l 342 642 q 322 650 331 642 q 314 669 314 658 l 314 860 q 322 879 314 871 q 342 888 331 888 l 388 888 m 633 888 q 653 879 644 888 q 661 860 661 871 l 661 669 q 653 650 661 658 q 633 642 644 642 l 588 642 q 568 650 576 642 q 560 669 560 658 l 560 860 q 568 879 560 871 q 588 888 576 888 l 633 888 m 879 888 q 899 879 890 888 q 907 860 907 871 l 907 669 q 899 650 907 658 q 879 642 890 642 l 833 642 q 814 650 822 642 q 806 669 806 658 l 806 860 q 814 879 806 871 q 833 888 822 888 l 879 888 m 893 229 q 913 221 906 229 q 921 201 921 213 l 921 156 q 913 136 921 144 q 893 128 906 128 l 721 128 q 701 119 710 128 q 693 100 693 111 l 693 -89 q 667 -183 693 -140 q 598 -252 642 -226 q 503 -278 554 -278 l 460 -278 q 440 -269 449 -278 q 432 -250 432 -261 l 432 -204 q 440 -185 432 -193 q 460 -176 449 -176 l 503 -176 q 565 -151 539 -176 q 592 -89 592 -125 l 592 100 q 583 119 592 111 q 564 128 575 128 l 328 128 q 308 136 317 128 q 300 156 300 144 l 300 201 q 308 221 300 213 q 328 229 317 229 l 600 229 q 624 240 615 229 l 767 453 q 768 460 768 456 q 764 471 768 467 q 754 475 760 475 l 356 475 q 336 483 344 475 q 328 503 328 492 l 328 549 q 336 568 328 560 q 356 576 344 576 l 858 576 q 892 562 878 576 q 907 528 907 547 l 907 496 q 899 468 907 481 l 751 250 q 750 243 750 249 q 754 233 750 238 q 764 229 758 229 l 893 229 z "},"保":{"ha":972,"x_min":53,"x_max":921,"o":"m 661 517 q 669 497 661 506 q 689 489 678 489 l 893 489 q 913 481 906 489 q 921 461 921 472 l 921 415 q 913 396 921 404 q 893 388 906 388 l 689 388 q 669 379 678 388 q 661 360 661 371 l 661 -250 q 653 -269 661 -261 q 633 -278 644 -278 l 588 -278 q 568 -269 576 -278 q 560 -250 560 -261 l 560 360 q 551 379 560 371 q 532 388 543 388 l 328 388 q 308 396 317 388 q 300 415 300 404 l 300 461 q 308 481 300 472 q 328 489 317 489 l 532 489 q 551 497 543 489 q 560 517 560 506 l 560 576 q 551 596 560 588 q 532 604 543 604 l 376 604 q 342 619 357 604 q 328 653 328 633 l 328 1063 q 342 1097 328 1082 q 376 1111 357 1111 l 844 1111 q 878 1097 864 1111 q 893 1063 893 1082 l 893 653 q 878 619 893 633 q 844 604 864 604 l 689 604 q 669 596 678 604 q 661 576 661 588 l 661 517 m 178 1097 q 212 1083 197 1097 q 226 1049 226 1068 l 226 -250 q 218 -269 226 -261 q 199 -278 210 -278 l 153 -278 q 133 -269 142 -278 q 125 -250 125 -261 l 125 982 q 121 992 125 988 q 111 996 117 996 l 81 996 q 61 1004 69 996 q 53 1024 53 1013 l 53 1069 q 61 1089 53 1081 q 81 1097 69 1097 l 178 1097 m 443 1010 q 433 1006 438 1010 q 429 996 429 1001 l 429 719 q 433 710 429 714 q 443 706 438 706 l 778 706 q 788 710 783 706 q 792 719 792 714 l 792 996 q 788 1006 792 1001 q 778 1010 783 1010 l 443 1010 m 356 -278 q 336 -269 344 -278 q 328 -250 328 -261 l 328 288 q 336 307 328 299 q 356 315 344 315 l 401 315 q 421 307 413 315 q 429 288 429 299 l 429 -250 q 421 -269 429 -261 q 401 -278 413 -278 l 356 -278 m 819 -278 q 800 -269 808 -278 q 792 -250 792 -261 l 792 288 q 800 307 792 299 q 819 315 808 315 l 865 315 q 885 307 876 315 q 893 288 893 299 l 893 -250 q 885 -269 893 -261 q 865 -278 876 -278 l 819 -278 z "},"信":{"ha":972,"x_min":53,"x_max":921,"o":"m 674 1019 q 678 1010 674 1014 q 688 1006 682 1006 l 893 1006 q 913 997 904 1006 q 921 978 921 989 l 921 932 q 913 913 921 921 q 893 904 904 904 l 347 904 q 328 913 336 904 q 319 932 319 921 l 319 978 q 328 997 319 989 q 347 1006 336 1006 l 558 1006 q 572 1019 572 1006 l 572 1086 q 581 1106 572 1097 q 600 1114 589 1114 l 646 1114 q 665 1106 657 1114 q 674 1086 674 1097 l 674 1019 m 81 1010 q 61 1018 69 1010 q 53 1038 53 1026 l 53 1083 q 61 1103 53 1094 q 81 1111 69 1111 l 178 1111 q 212 1097 197 1111 q 226 1063 226 1082 l 226 -250 q 218 -269 226 -261 q 199 -278 210 -278 l 153 -278 q 133 -269 142 -278 q 125 -250 125 -261 l 125 996 q 121 1006 125 1001 q 111 1010 117 1010 l 81 1010 m 365 665 q 346 674 354 665 q 338 693 338 682 l 338 739 q 346 758 338 750 q 365 767 354 767 l 875 767 q 894 758 886 767 q 903 739 903 750 l 903 693 q 894 674 903 682 q 875 665 886 665 l 365 665 m 365 426 q 346 435 354 426 q 338 454 338 443 l 338 500 q 346 519 338 511 q 365 528 354 528 l 875 528 q 894 519 886 528 q 903 500 903 511 l 903 454 q 894 435 903 443 q 875 426 886 426 l 365 426 m 394 -275 q 360 -260 374 -275 q 346 -226 346 -246 l 346 263 q 360 297 346 282 q 394 311 374 311 l 847 311 q 881 297 867 311 q 896 263 896 282 l 896 -85 q 870 -180 896 -136 q 801 -249 844 -224 q 707 -275 758 -275 l 394 -275 m 461 210 q 447 196 447 210 l 447 -160 q 451 -169 447 -165 q 461 -174 456 -174 l 707 -174 q 769 -148 743 -174 q 794 -85 794 -122 l 794 196 q 781 210 794 210 l 461 210 z "},"俭":{"ha":972,"x_min":53,"x_max":921,"o":"m 506 1010 q 492 999 494 1010 l 433 674 q 422 656 431 663 q 401 651 413 650 l 357 660 q 340 672 346 663 q 335 692 333 681 l 401 1071 q 418 1100 404 1089 q 450 1111 432 1111 l 799 1111 q 831 1100 817 1111 q 847 1071 844 1089 l 915 692 l 915 688 q 909 670 915 678 q 892 660 903 663 l 847 651 l 842 651 q 824 658 832 651 q 815 674 817 664 l 757 999 q 743 1010 754 1010 l 506 1010 m 178 1097 q 212 1083 197 1097 q 226 1049 226 1068 l 226 -250 q 218 -269 226 -261 q 199 -278 210 -278 l 153 -278 q 133 -269 142 -278 q 125 -250 125 -261 l 125 982 q 121 992 125 988 q 111 996 117 996 l 81 996 q 61 1004 69 996 q 53 1024 53 1013 l 53 1069 q 61 1089 53 1081 q 81 1097 69 1097 l 178 1097 m 878 613 q 897 604 889 613 q 906 585 906 596 l 906 539 q 897 519 906 528 q 878 511 889 511 l 371 511 q 351 519 360 511 q 343 539 343 528 l 343 585 q 351 604 343 596 q 371 613 360 613 l 878 613 m 371 -100 q 351 -92 360 -100 q 343 -72 343 -83 l 343 407 q 351 426 343 418 q 371 435 360 435 l 417 435 q 436 426 428 435 q 444 407 444 418 l 444 -72 q 436 -92 444 -83 q 417 -100 428 -100 l 371 -100 m 675 -72 q 667 -92 675 -83 q 647 -100 658 -100 l 601 -100 q 582 -92 590 -100 q 574 -72 574 -83 l 574 407 q 582 426 574 418 q 601 435 590 435 l 647 435 q 667 426 658 435 q 675 407 675 418 l 675 -72 m 878 435 q 897 426 889 435 q 906 407 906 418 l 906 -72 q 897 -92 906 -83 q 878 -100 889 -100 l 832 -100 q 813 -92 821 -100 q 804 -72 804 -83 l 804 407 q 813 426 804 418 q 832 435 821 435 l 878 435 m 328 -204 q 336 -185 328 -193 q 356 -176 344 -176 l 893 -176 q 913 -185 904 -176 q 921 -204 921 -193 l 921 -250 q 913 -269 921 -261 q 893 -278 904 -278 l 356 -278 q 336 -269 344 -278 q 328 -250 328 -261 l 328 -204 z "},"俯":{"ha":972,"x_min":53,"x_max":921,"o":"m 668 1081 q 696 1053 668 1053 l 893 1053 q 921 1025 921 1053 l 921 979 q 893 951 921 951 l 414 951 q 400 938 400 951 l 400 -250 q 372 -278 400 -278 l 326 -278 q 299 -250 299 -278 l 299 1004 q 312 1040 299 1028 q 347 1053 325 1053 l 539 1053 q 567 1081 567 1053 l 567 1083 q 594 1111 567 1111 l 640 1111 q 668 1083 668 1111 l 668 1081 m 178 1097 q 212 1083 197 1097 q 226 1049 226 1068 l 226 -250 q 218 -269 226 -261 q 199 -278 210 -278 l 153 -278 q 133 -269 142 -278 q 125 -250 125 -261 l 125 982 q 121 992 125 988 q 111 996 117 996 l 81 996 q 61 1004 69 996 q 53 1024 53 1013 l 53 1069 q 61 1089 53 1081 q 81 1097 69 1097 l 178 1097 m 451 807 q 429 835 429 807 l 429 881 q 457 908 429 908 l 525 908 q 561 896 549 908 q 574 860 574 883 l 574 -250 q 546 -278 574 -278 l 500 -278 q 472 -250 472 -278 l 472 793 q 458 807 472 807 l 451 807 m 850 908 q 878 881 878 908 l 878 778 q 892 764 878 764 l 893 764 q 921 736 921 764 l 921 690 q 893 663 921 663 l 892 663 q 878 649 878 663 l 878 -89 q 852 -183 878 -140 q 783 -252 826 -226 q 688 -278 739 -278 l 658 -278 q 631 -250 631 -278 l 631 -204 q 658 -176 631 -176 l 688 -176 q 750 -151 724 -176 q 776 -89 776 -125 l 776 649 q 763 663 776 663 l 631 663 q 603 690 603 663 l 603 736 q 631 764 603 764 l 763 764 q 776 778 776 764 l 776 881 q 804 908 776 908 l 850 908 m 690 561 q 718 533 718 561 l 718 -33 q 690 -61 718 -61 l 644 -61 q 617 -33 617 -61 l 617 533 q 644 561 617 561 l 690 561 z "},"俱":{"ha":972,"x_min":53,"x_max":921,"o":"m 878 257 q 892 243 878 243 l 893 243 q 913 235 904 243 q 921 215 921 226 l 921 169 q 913 150 921 158 q 893 142 904 142 l 317 142 q 297 150 306 142 q 289 169 289 158 l 289 215 q 297 235 289 226 q 317 243 306 243 l 318 243 q 332 257 332 243 l 332 1063 q 347 1097 332 1082 q 381 1111 361 1111 l 829 1111 q 863 1097 849 1111 q 878 1063 878 1082 l 878 257 m 178 1097 q 212 1083 197 1097 q 226 1049 226 1068 l 226 -250 q 218 -269 226 -261 q 199 -278 210 -278 l 153 -278 q 133 -269 142 -278 q 125 -250 125 -261 l 125 982 q 121 992 125 988 q 111 996 117 996 l 81 996 q 61 1004 69 996 q 53 1024 53 1013 l 53 1069 q 61 1089 53 1081 q 81 1097 69 1097 l 178 1097 m 776 996 q 772 1006 776 1001 q 763 1010 768 1010 l 447 1010 q 438 1006 442 1010 q 433 996 433 1001 l 433 922 q 442 903 433 911 q 461 894 450 894 l 749 894 q 768 903 760 894 q 776 922 776 911 l 776 996 m 749 676 q 768 685 760 676 q 776 704 776 693 l 776 765 q 768 785 776 776 q 749 793 760 793 l 461 793 q 442 785 450 793 q 433 765 433 776 l 433 704 q 442 685 433 693 q 461 676 450 676 l 749 676 m 461 576 q 442 568 450 576 q 433 549 433 560 l 433 488 q 442 468 433 476 q 461 460 450 460 l 749 460 q 768 468 760 460 q 776 488 776 476 l 776 549 q 768 568 776 560 q 749 576 760 576 l 461 576 m 461 358 q 442 350 450 358 q 433 331 433 342 l 433 271 q 442 251 433 260 q 461 243 450 243 l 749 243 q 768 251 760 243 q 776 271 776 260 l 776 331 q 768 350 776 342 q 749 358 760 358 l 461 358 m 333 -268 q 353 -276 342 -276 q 372 -268 364 -276 l 472 -169 q 485 -140 485 -157 l 485 68 q 476 88 485 79 q 457 96 468 96 l 411 96 q 392 88 400 96 q 383 68 383 79 l 383 -106 q 376 -122 383 -115 l 301 -196 q 293 -217 293 -204 q 301 -236 293 -228 l 333 -268 m 913 -236 q 921 -217 921 -228 q 913 -196 921 -204 l 838 -122 q 831 -106 831 -115 l 831 68 q 822 88 831 79 q 803 96 814 96 l 757 96 q 738 88 746 96 q 729 68 729 79 l 729 -140 q 742 -169 729 -157 l 842 -268 q 861 -276 850 -276 q 881 -268 872 -276 l 913 -236 z "},"倍":{"ha":972,"x_min":53,"x_max":921,"o":"m 878 1025 q 897 1017 889 1025 q 906 997 906 1008 l 906 951 q 897 932 906 940 q 878 924 889 924 l 356 924 q 335 932 343 924 q 328 951 328 940 l 328 997 q 335 1017 328 1008 q 356 1025 343 1025 l 531 1025 q 550 1033 542 1025 q 558 1053 558 1040 l 558 1083 q 567 1103 558 1094 q 586 1111 575 1111 l 632 1111 q 651 1103 643 1111 q 660 1083 660 1094 l 660 1053 q 668 1033 660 1040 q 688 1025 676 1025 l 878 1025 m 178 1097 q 212 1083 197 1097 q 226 1049 226 1068 l 226 -250 q 218 -269 226 -261 q 199 -278 210 -278 l 153 -278 q 133 -269 142 -278 q 125 -250 125 -261 l 125 982 q 121 992 125 988 q 111 996 117 996 l 81 996 q 61 1004 69 996 q 53 1024 53 1013 l 53 1069 q 61 1089 53 1081 q 81 1097 69 1097 l 178 1097 m 472 611 q 464 592 472 600 q 444 583 456 583 l 399 583 q 379 592 388 583 q 371 611 371 600 l 371 844 q 379 864 371 856 q 399 872 388 872 l 444 872 q 464 864 456 872 q 472 844 472 856 l 472 611 m 863 611 q 854 592 863 600 q 835 583 846 583 l 789 583 q 769 592 778 583 q 761 611 761 600 l 761 844 q 769 864 761 856 q 789 872 778 872 l 835 872 q 854 864 846 872 q 863 844 863 856 l 863 611 m 313 504 q 321 524 313 515 q 340 532 329 532 l 893 532 q 913 524 904 532 q 921 504 921 515 l 921 458 q 913 439 921 447 q 893 431 904 431 l 340 431 q 321 439 329 431 q 313 458 313 447 l 313 504 m 404 -264 q 370 -249 385 -264 q 356 -215 356 -235 l 356 296 q 370 330 356 315 q 404 344 385 344 l 828 344 q 863 330 849 344 q 876 296 876 315 l 876 -74 q 851 -169 876 -125 q 782 -238 825 -212 q 688 -264 739 -264 l 404 -264 m 471 243 q 461 239 465 243 q 457 229 457 235 l 457 -149 q 461 -158 457 -154 q 471 -162 465 -162 l 688 -162 q 749 -136 724 -162 q 775 -74 775 -110 l 775 229 q 761 243 775 243 l 471 243 z "},"倒":{"ha":972,"x_min":53,"x_max":921,"o":"m 299 1010 q 279 1018 288 1010 q 271 1038 271 1026 l 271 1083 q 279 1103 271 1094 q 299 1111 288 1111 l 619 1111 q 639 1103 631 1111 q 647 1083 647 1094 l 647 1038 q 639 1018 647 1026 q 619 1010 631 1010 l 469 1010 q 452 1003 460 1010 q 443 986 444 996 l 376 563 l 376 560 q 381 551 376 554 q 390 547 385 547 l 517 547 q 531 561 531 547 l 531 896 q 539 915 531 907 q 558 924 547 924 l 604 924 q 624 915 615 924 q 632 896 632 907 l 632 494 q 617 460 632 475 q 583 446 603 446 l 538 446 q 518 438 526 446 q 510 418 510 429 l 510 257 q 518 238 510 246 q 538 229 526 229 l 597 229 q 617 221 608 229 q 625 201 625 213 l 625 156 q 617 136 625 144 q 597 128 608 128 l 538 128 q 518 119 526 128 q 510 100 510 111 l 510 -149 q 518 -168 510 -160 q 538 -176 526 -176 l 619 -176 q 639 -185 631 -176 q 647 -204 647 -193 l 647 -250 q 639 -269 647 -261 q 619 -278 631 -278 l 299 -278 q 279 -269 288 -278 q 271 -250 271 -261 l 271 -204 q 279 -185 271 -193 q 299 -176 288 -176 l 381 -176 q 400 -168 392 -176 q 408 -149 408 -160 l 408 100 q 400 119 408 111 q 381 128 392 128 l 319 128 q 300 136 308 128 q 292 156 292 144 l 292 201 q 300 221 292 213 q 319 229 308 229 l 381 229 q 400 238 392 229 q 408 257 408 246 l 408 418 q 400 438 408 429 q 381 446 392 446 l 319 446 q 285 460 299 446 q 271 494 271 475 l 271 540 l 271 547 l 342 994 l 342 997 q 338 1006 342 1003 q 328 1010 333 1010 l 299 1010 m 821 1083 q 829 1103 821 1094 q 849 1111 838 1111 l 893 1111 q 913 1103 906 1111 q 921 1083 921 1094 l 921 -89 q 895 -183 921 -140 q 826 -252 869 -226 q 732 -278 783 -278 l 718 -278 q 699 -269 707 -278 q 690 -250 690 -261 l 690 -204 q 699 -185 690 -193 q 718 -176 707 -176 l 732 -176 q 794 -151 768 -176 q 821 -89 821 -125 l 821 1083 m 178 1097 q 212 1083 197 1097 q 226 1049 226 1068 l 226 -250 q 218 -269 226 -261 q 199 -278 210 -278 l 153 -278 q 133 -269 142 -278 q 125 -250 125 -261 l 125 982 q 121 992 125 988 q 111 996 117 996 l 81 996 q 61 1004 69 996 q 53 1024 53 1013 l 53 1069 q 61 1089 53 1081 q 81 1097 69 1097 l 178 1097 m 749 996 q 768 988 760 996 q 776 968 776 979 l 776 -47 q 768 -67 776 -58 q 749 -75 760 -75 l 703 -75 q 683 -67 692 -75 q 675 -47 675 -58 l 675 968 q 683 988 675 979 q 703 996 692 996 l 749 996 z "},"倔":{"ha":972,"x_min":53,"x_max":921,"o":"m 299 1063 q 313 1097 299 1082 q 347 1111 328 1111 l 872 1111 q 907 1097 893 1111 q 921 1063 921 1082 l 921 769 q 907 735 921 749 q 872 721 893 721 l 400 721 l 400 -250 q 392 -269 400 -261 q 372 -278 383 -278 l 326 -278 q 307 -269 315 -278 q 299 -250 299 -261 l 299 1063 m 178 1097 q 212 1083 197 1097 q 226 1049 226 1068 l 226 -250 q 218 -269 226 -261 q 199 -278 210 -278 l 153 -278 q 133 -269 142 -278 q 125 -250 125 -261 l 125 982 q 121 992 125 988 q 111 996 117 996 l 81 996 q 61 1004 69 996 q 53 1024 53 1013 l 53 1069 q 61 1089 53 1081 q 81 1097 69 1097 l 178 1097 m 806 822 q 819 836 819 822 l 819 996 q 806 1010 819 1010 l 414 1010 q 404 1006 408 1010 q 400 996 400 1001 l 400 836 q 404 826 400 831 q 414 822 408 822 l 806 822 m 907 278 q 892 243 907 257 q 858 229 878 229 l 754 229 q 735 221 743 229 q 726 201 726 213 l 726 -149 q 735 -168 726 -160 q 754 -176 743 -176 l 792 -176 q 806 -162 806 -176 l 806 100 q 814 119 806 111 q 833 128 822 128 l 879 128 q 899 119 890 128 q 907 100 907 111 l 907 -229 q 892 -263 907 -249 q 858 -278 878 -278 l 493 -278 q 458 -263 472 -278 q 444 -229 444 -249 l 444 100 q 453 119 444 111 q 472 128 461 128 l 518 128 q 538 119 529 128 q 546 100 546 111 l 546 -162 q 560 -176 546 -176 l 597 -176 q 617 -168 608 -176 q 625 -149 625 -160 l 625 201 q 617 221 625 213 q 597 229 608 229 l 493 229 q 458 243 472 229 q 444 278 444 257 l 444 606 q 453 625 444 617 q 472 633 461 633 l 518 633 q 538 625 529 633 q 546 606 546 617 l 546 344 q 560 331 546 331 l 597 331 q 617 338 608 331 q 625 358 625 346 l 625 649 q 633 669 625 661 q 653 676 642 676 l 699 676 q 718 669 710 676 q 726 649 726 661 l 726 358 q 735 338 726 346 q 754 331 743 331 l 792 331 q 806 344 806 331 l 806 606 q 814 625 806 617 q 833 633 822 633 l 879 633 q 899 625 890 633 q 907 606 907 617 l 907 278 z "},"借":{"ha":972,"x_min":53,"x_max":921,"o":"m 813 600 q 821 581 813 589 q 840 572 829 572 l 893 572 q 913 564 904 572 q 921 544 921 556 l 921 499 q 913 479 921 488 q 893 471 904 471 l 326 471 q 307 479 315 471 q 299 499 299 488 l 299 544 q 307 564 299 556 q 326 572 315 572 l 379 572 q 399 581 390 572 q 407 600 407 589 l 407 822 q 399 842 407 835 q 379 850 390 850 l 342 850 q 322 858 331 850 q 314 878 314 867 l 314 924 q 322 943 314 935 q 342 951 331 951 l 379 951 q 399 960 390 951 q 407 979 407 968 l 407 1083 q 415 1103 407 1094 q 435 1111 424 1111 l 481 1111 q 500 1103 492 1111 q 508 1083 508 1094 l 508 979 q 517 960 508 968 q 536 951 525 951 l 683 951 q 703 960 694 951 q 711 979 711 968 l 711 1083 q 719 1103 711 1094 q 739 1111 728 1111 l 785 1111 q 804 1103 796 1111 q 813 1083 813 1094 l 813 979 q 821 960 813 968 q 840 951 829 951 l 879 951 q 899 943 890 951 q 907 924 907 935 l 907 878 q 899 858 907 867 q 879 850 890 850 l 840 850 q 821 842 829 850 q 813 822 813 835 l 813 600 m 178 1097 q 212 1083 197 1097 q 226 1049 226 1068 l 226 -250 q 218 -269 226 -261 q 199 -278 210 -278 l 153 -278 q 133 -269 142 -278 q 125 -250 125 -261 l 125 982 q 121 992 125 988 q 111 996 117 996 l 81 996 q 61 1004 69 996 q 53 1024 53 1013 l 53 1069 q 61 1089 53 1081 q 81 1097 69 1097 l 178 1097 m 536 850 q 517 842 525 850 q 508 822 508 835 l 508 600 q 517 581 508 589 q 536 572 525 572 l 683 572 q 703 581 694 572 q 711 600 711 589 l 711 822 q 703 842 711 835 q 683 850 694 850 l 536 850 m 376 -278 q 342 -263 357 -278 q 328 -229 328 -249 l 328 336 q 342 370 328 356 q 376 385 357 385 l 843 385 q 878 370 864 385 q 892 336 892 356 l 892 -89 q 866 -183 892 -140 q 797 -252 840 -226 q 703 -278 754 -278 l 376 -278 m 790 269 q 786 279 790 275 q 776 283 782 283 l 443 283 q 433 279 438 283 q 429 269 429 275 l 429 147 q 438 128 429 136 q 457 119 446 119 l 763 119 q 782 128 774 119 q 790 147 790 136 l 790 269 m 703 -176 q 765 -151 739 -176 q 790 -89 790 -125 l 790 -10 q 782 10 790 1 q 763 18 774 18 l 457 18 q 438 10 446 18 q 429 -10 429 1 l 429 -162 q 443 -176 429 -176 l 703 -176 z "},"倡":{"ha":972,"x_min":53,"x_max":921,"o":"m 843 1114 q 878 1099 864 1114 q 892 1065 892 1085 l 892 540 q 878 506 892 521 q 843 492 864 492 l 399 492 q 364 506 378 492 q 350 540 350 521 l 350 1065 q 364 1099 350 1085 q 399 1114 378 1114 l 843 1114 m 178 1100 q 212 1085 197 1100 q 226 1051 226 1071 l 226 -247 q 218 -267 226 -258 q 199 -275 210 -275 l 153 -275 q 133 -267 142 -275 q 125 -247 125 -258 l 125 985 q 121 994 125 990 q 111 999 117 999 l 81 999 q 61 1007 69 999 q 53 1026 53 1015 l 53 1072 q 61 1092 53 1083 q 81 1100 69 1100 l 178 1100 m 790 999 q 776 1013 790 1013 l 464 1013 q 454 1008 458 1013 q 450 999 450 1004 l 450 882 q 458 862 450 869 q 478 854 467 854 l 763 854 q 782 862 774 854 q 790 882 790 869 l 790 999 m 450 607 q 454 597 450 601 q 464 593 458 593 l 776 593 q 790 607 790 593 l 790 725 q 782 744 790 736 q 763 753 774 753 l 478 753 q 458 744 467 753 q 450 725 450 736 l 450 607 m 321 385 q 335 419 321 406 q 369 433 349 433 l 872 433 q 906 419 892 433 q 921 385 921 406 l 921 -86 q 895 -181 921 -137 q 826 -249 869 -224 q 732 -275 783 -275 l 369 -275 q 335 -260 349 -275 q 321 -226 321 -246 l 321 385 m 819 318 q 806 332 819 332 l 436 332 q 422 318 422 332 l 422 158 q 431 139 422 147 q 450 131 439 131 l 792 131 q 811 139 803 131 q 819 158 819 147 l 819 318 m 732 -174 q 794 -148 768 -174 q 819 -86 819 -122 l 819 1 q 811 21 819 13 q 792 29 803 29 l 450 29 q 431 21 439 29 q 422 1 422 13 l 422 -160 q 436 -174 422 -174 l 732 -174 z "},"值":{"ha":972,"x_min":53,"x_max":921,"o":"m 864 -149 q 872 -168 864 -160 q 892 -176 881 -176 l 893 -176 q 913 -185 904 -176 q 921 -204 921 -193 l 921 -250 q 913 -269 921 -261 q 893 -278 904 -278 l 311 -278 q 292 -269 300 -278 q 283 -250 283 -261 l 283 -204 q 292 -185 283 -193 q 311 -176 300 -176 l 313 -176 q 332 -168 324 -176 q 340 -149 340 -160 l 340 744 q 354 778 340 764 q 389 793 368 793 l 524 793 q 543 801 535 793 q 551 821 551 810 l 551 881 q 543 900 551 892 q 524 908 535 908 l 333 908 q 314 917 322 908 q 306 936 306 925 l 306 982 q 314 1001 306 993 q 333 1010 322 1010 l 524 1010 q 543 1018 535 1010 q 551 1038 551 1026 l 551 1083 q 560 1103 551 1094 q 579 1111 568 1111 l 625 1111 q 644 1103 636 1111 q 653 1083 653 1094 l 653 1038 q 661 1018 653 1026 q 681 1010 669 1010 l 869 1010 q 889 1001 881 1010 q 897 982 897 993 l 897 936 q 889 917 897 925 q 869 908 881 908 l 681 908 q 661 900 669 908 q 653 881 653 892 l 653 821 q 661 801 653 810 q 681 793 669 793 l 815 793 q 849 778 835 793 q 864 744 864 764 l 864 -149 m 81 993 q 61 1001 69 993 q 53 1021 53 1010 l 53 1067 q 61 1086 53 1078 q 81 1094 69 1094 l 178 1094 q 212 1080 197 1094 q 226 1046 226 1065 l 226 -250 q 218 -269 226 -261 q 199 -278 210 -278 l 153 -278 q 133 -269 142 -278 q 125 -250 125 -261 l 125 979 q 121 989 125 985 q 111 993 117 993 l 81 993 m 763 678 q 758 688 763 683 q 749 692 754 692 l 456 692 q 446 688 450 692 q 442 678 442 683 l 442 578 q 450 558 442 567 q 469 550 458 550 l 735 550 q 754 558 746 550 q 763 578 763 567 l 763 678 m 735 308 q 754 317 746 308 q 763 336 763 325 l 763 421 q 754 440 763 432 q 735 449 746 449 l 469 449 q 450 440 458 449 q 442 421 442 432 l 442 336 q 450 317 442 325 q 469 308 458 308 l 735 308 m 763 179 q 754 199 763 190 q 735 207 746 207 l 469 207 q 450 199 458 207 q 442 179 442 190 l 442 93 q 450 74 442 82 q 469 65 458 65 l 735 65 q 754 74 746 65 q 763 93 763 82 l 763 179 m 469 -36 q 450 -44 458 -36 q 442 -64 442 -51 l 442 -149 q 450 -168 442 -160 q 469 -176 458 -176 l 735 -176 q 754 -168 746 -176 q 763 -149 763 -160 l 763 -64 q 754 -44 763 -51 q 735 -36 746 -36 l 469 -36 z "},"假":{"ha":972,"x_min":51,"x_max":936,"o":"m 176 1111 q 210 1097 196 1111 q 225 1063 225 1082 l 225 -250 q 217 -269 225 -261 q 197 -278 208 -278 l 151 -278 q 132 -269 140 -278 q 124 -250 124 -261 l 124 996 q 119 1006 124 1001 q 110 1010 115 1010 l 79 1010 q 60 1018 68 1010 q 51 1038 51 1026 l 51 1083 q 60 1103 51 1094 q 79 1111 68 1111 l 176 1111 m 310 -278 q 290 -269 299 -278 q 282 -250 282 -261 l 282 1049 q 297 1083 282 1068 q 331 1097 311 1097 l 538 1097 q 572 1083 557 1097 q 586 1049 586 1068 l 586 639 q 572 605 586 619 q 538 590 557 590 l 411 590 q 392 582 400 590 q 383 563 383 574 l 383 431 q 392 411 383 419 q 411 403 400 403 l 544 403 q 564 394 556 403 q 572 375 572 386 l 572 329 q 564 310 572 318 q 544 301 556 301 l 411 301 q 392 293 400 301 q 383 274 383 285 l 383 126 q 392 107 383 115 q 411 99 400 99 l 544 99 q 564 90 556 99 q 572 71 572 82 l 572 25 q 564 6 572 14 q 544 -3 556 -3 l 411 -3 q 392 -11 400 -3 q 383 -31 383 -19 l 383 -250 q 375 -269 383 -261 q 356 -278 367 -278 l 310 -278 m 871 1097 q 905 1083 890 1097 q 919 1049 919 1068 l 919 639 q 905 605 919 619 q 871 590 890 590 l 643 590 q 624 599 632 590 q 615 618 615 607 l 615 664 q 624 683 615 675 q 643 692 632 692 l 804 692 q 814 696 810 692 q 818 706 818 700 l 818 982 q 814 992 818 988 q 804 996 810 996 l 643 996 q 624 1004 632 996 q 615 1024 615 1013 l 615 1069 q 624 1089 615 1081 q 643 1097 632 1097 l 871 1097 m 397 996 q 388 992 392 996 q 383 982 383 988 l 383 719 q 392 700 383 708 q 411 692 400 692 l 471 692 q 481 696 476 692 q 485 706 485 700 l 485 982 q 481 992 485 988 q 471 996 476 996 l 397 996 m 928 -197 q 936 -217 936 -206 q 928 -236 936 -228 l 896 -268 q 876 -276 888 -276 q 857 -268 865 -276 l 774 -185 q 764 -181 769 -181 q 754 -185 758 -181 l 669 -268 q 650 -276 661 -276 q 631 -268 639 -276 l 599 -236 q 590 -217 590 -228 q 599 -197 590 -206 l 682 -114 q 686 -104 686 -110 q 682 -94 686 -99 l 628 -40 q 615 -11 615 -28 l 615 364 q 624 383 615 375 q 643 392 632 392 l 689 392 q 708 383 700 392 q 717 364 717 375 l 717 25 q 724 8 717 15 l 754 -22 q 763 -26 758 -26 q 774 -21 768 -26 l 803 8 q 810 25 810 15 l 810 428 l 643 428 q 624 436 632 428 q 615 456 615 444 l 615 501 q 624 521 615 513 q 643 529 632 529 l 861 529 q 897 515 882 529 q 911 479 911 500 l 911 -11 q 899 -40 911 -28 l 844 -94 q 840 -104 840 -99 q 844 -114 840 -110 l 928 -197 z "},"偿":{"ha":972,"x_min":53,"x_max":921,"o":"m 653 850 q 661 831 653 839 q 681 822 669 822 l 872 822 q 906 808 892 822 q 921 774 921 793 l 921 604 q 913 585 921 593 q 893 576 904 576 l 847 576 q 828 585 836 576 q 819 604 819 593 l 819 707 q 815 717 819 713 q 806 721 811 721 l 399 721 q 389 717 393 721 q 385 707 385 713 l 385 604 q 376 585 385 593 q 357 576 368 576 l 311 576 q 292 585 300 576 q 283 604 283 593 l 283 774 q 298 808 283 793 q 332 822 313 822 l 524 822 q 543 831 535 822 q 551 850 551 839 l 551 1083 q 560 1103 551 1094 q 579 1111 568 1111 l 625 1111 q 644 1103 636 1111 q 653 1083 653 1094 l 653 850 m 178 1097 q 212 1083 197 1097 q 226 1049 226 1068 l 226 -250 q 218 -269 226 -261 q 199 -278 210 -278 l 153 -278 q 133 -269 142 -278 q 125 -250 125 -261 l 125 982 q 121 992 125 988 q 111 996 117 996 l 81 996 q 61 1004 69 996 q 53 1024 53 1013 l 53 1069 q 61 1089 53 1081 q 81 1097 69 1097 l 178 1097 m 415 1082 q 435 1074 426 1082 q 443 1054 443 1065 l 443 893 q 435 874 443 882 q 415 865 426 865 l 369 865 q 350 874 358 865 q 342 893 342 882 l 342 1054 q 350 1074 342 1065 q 369 1082 358 1082 l 415 1082 m 835 1082 q 854 1074 846 1082 q 863 1054 863 1065 l 863 893 q 854 874 863 882 q 835 865 846 865 l 789 865 q 769 874 778 865 q 761 893 761 882 l 761 1054 q 769 1074 761 1065 q 789 1082 778 1082 l 835 1082 m 342 504 q 350 524 342 515 q 369 532 358 532 l 835 532 q 854 524 846 532 q 863 504 863 515 l 863 458 q 854 439 863 447 q 835 431 846 431 l 369 431 q 350 439 358 431 q 342 458 342 447 l 342 504 m 311 171 q 292 179 300 171 q 283 199 283 188 l 283 244 q 292 264 283 256 q 311 272 300 272 l 893 272 q 913 264 904 272 q 921 244 921 256 l 921 199 q 913 179 921 188 q 893 171 904 171 l 536 171 q 518 165 526 171 q 508 150 510 160 l 436 -160 l 436 -164 q 440 -173 436 -169 q 450 -176 444 -176 l 688 -176 q 750 -151 724 -176 q 776 -89 776 -125 l 776 42 q 785 61 776 53 q 804 69 793 69 l 850 69 q 869 61 861 69 q 878 42 878 53 l 878 -89 q 852 -183 878 -140 q 783 -252 826 -226 q 688 -278 739 -278 l 376 -278 q 342 -263 356 -278 q 328 -229 328 -249 l 328 -183 q 329 -172 328 -176 l 406 154 l 406 158 q 401 167 406 164 q 392 171 397 171 l 311 171 z "},"傅":{"ha":972,"x_min":53,"x_max":921,"o":"m 669 893 q 678 874 669 882 q 697 865 686 865 l 872 865 q 906 851 892 865 q 921 817 921 836 l 921 300 q 913 281 921 289 q 893 272 904 272 l 847 272 q 828 281 836 272 q 819 300 819 289 l 819 360 q 811 379 819 371 q 792 388 803 388 l 697 388 q 678 379 686 388 q 669 360 669 371 l 669 300 q 661 281 669 289 q 642 272 653 272 l 596 272 q 576 281 585 272 q 568 300 568 289 l 568 360 q 560 379 568 371 q 540 388 551 388 l 446 388 q 426 379 435 388 q 418 360 418 371 l 418 300 q 410 281 418 289 q 390 272 401 272 l 344 272 q 325 281 333 272 q 317 300 317 289 l 317 817 q 331 851 317 836 q 365 865 344 865 l 540 865 q 560 874 551 865 q 568 893 568 882 l 568 924 q 564 933 568 929 q 554 938 560 938 l 344 938 q 325 946 333 938 q 317 965 317 954 l 317 1011 q 325 1031 317 1022 q 344 1039 333 1039 l 554 1039 q 564 1043 560 1039 q 568 1053 568 1047 l 568 1083 q 576 1103 568 1094 q 596 1111 585 1111 l 642 1111 q 661 1103 653 1111 q 669 1083 669 1094 l 669 1053 q 683 1039 669 1039 l 733 1039 q 747 1053 747 1039 l 747 1083 q 756 1103 747 1094 q 775 1111 764 1111 l 821 1111 q 840 1103 832 1111 q 849 1083 849 1094 l 849 1053 q 853 1043 849 1047 q 863 1039 857 1039 l 893 1039 q 913 1031 904 1039 q 921 1011 921 1022 l 921 965 q 913 946 921 954 q 893 938 904 938 l 683 938 q 669 924 669 938 l 669 893 m 178 1097 q 212 1083 197 1097 q 226 1049 226 1068 l 226 -250 q 218 -269 226 -261 q 199 -278 210 -278 l 153 -278 q 133 -269 142 -278 q 125 -250 125 -261 l 125 982 q 121 992 125 988 q 111 996 117 996 l 81 996 q 61 1004 69 996 q 53 1024 53 1013 l 53 1069 q 61 1089 53 1081 q 81 1097 69 1097 l 178 1097 m 568 750 q 564 760 568 756 q 554 764 560 764 l 432 764 q 418 750 418 764 l 418 706 q 426 685 418 693 q 446 678 435 678 l 540 678 q 560 685 551 678 q 568 706 568 693 l 568 750 m 819 750 q 815 760 819 756 q 806 764 811 764 l 683 764 q 669 750 669 764 l 669 706 q 678 685 669 693 q 697 678 686 678 l 792 678 q 811 685 803 678 q 819 706 819 693 l 819 750 m 418 517 q 426 497 418 506 q 446 489 435 489 l 540 489 q 560 497 551 489 q 568 517 568 506 l 568 549 q 560 568 568 560 q 540 576 551 576 l 446 576 q 426 568 435 576 q 418 549 418 560 l 418 517 m 669 517 q 678 497 669 506 q 697 489 686 489 l 792 489 q 811 497 803 489 q 819 517 819 506 l 819 549 q 811 568 819 560 q 792 576 803 576 l 697 576 q 678 568 686 576 q 669 549 669 560 l 669 517 m 811 243 q 831 235 822 243 q 839 215 839 226 l 839 214 q 843 204 839 208 q 853 200 847 200 l 893 200 q 913 192 904 200 q 921 172 921 183 l 921 126 q 913 107 921 115 q 893 99 904 99 l 853 99 q 843 94 847 99 q 839 85 839 90 l 839 -89 q 813 -183 839 -140 q 744 -252 788 -226 q 650 -278 701 -278 q 631 -269 639 -278 q 622 -250 622 -261 l 622 -204 q 631 -185 622 -193 q 650 -176 639 -176 q 712 -151 686 -176 q 738 -89 738 -125 l 738 85 q 733 94 738 90 q 724 99 729 99 l 344 99 q 325 107 333 99 q 317 126 317 115 l 317 172 q 325 192 317 183 q 344 200 333 200 l 724 200 q 738 214 738 200 l 738 215 q 746 235 738 226 q 765 243 754 243 l 811 243 m 426 -206 q 407 -197 415 -206 q 399 -178 399 -189 l 399 13 q 407 32 399 24 q 426 40 415 40 l 474 40 q 492 32 485 40 q 500 13 500 24 l 500 -178 q 492 -197 500 -189 q 474 -206 485 -206 l 426 -206 z "},"傍":{"ha":972,"x_min":53,"x_max":921,"o":"m 893 1025 q 913 1017 904 1025 q 921 997 921 1008 l 921 951 q 913 932 921 940 q 893 924 904 924 l 326 924 q 307 932 315 924 q 299 951 299 940 l 299 997 q 307 1017 299 1008 q 326 1025 315 1025 l 532 1025 q 551 1033 543 1025 q 560 1053 560 1040 l 560 1083 q 568 1103 560 1094 q 588 1111 576 1111 l 633 1111 q 653 1103 644 1111 q 661 1083 661 1094 l 661 1053 q 669 1033 661 1040 q 689 1025 678 1025 l 893 1025 m 178 1097 q 212 1083 197 1097 q 226 1049 226 1068 l 226 -250 q 218 -269 226 -261 q 199 -278 210 -278 l 153 -278 q 133 -269 142 -278 q 125 -250 125 -261 l 125 982 q 121 992 125 988 q 111 996 117 996 l 81 996 q 61 1004 69 996 q 53 1024 53 1013 l 53 1069 q 61 1089 53 1081 q 81 1097 69 1097 l 178 1097 m 872 735 q 907 720 893 735 q 921 686 921 706 l 921 517 q 913 497 921 506 q 893 489 904 489 l 847 489 q 828 497 836 489 q 819 517 819 506 l 819 619 q 806 633 819 633 l 414 633 q 404 629 408 633 q 400 619 400 625 l 400 517 q 392 497 400 506 q 372 489 383 489 l 326 489 q 307 497 315 489 q 299 517 299 506 l 299 686 q 313 720 299 706 q 347 735 328 735 l 358 735 q 378 743 369 735 q 386 763 386 751 l 386 851 q 394 871 386 863 q 414 879 403 879 l 460 879 q 479 871 471 879 q 488 851 488 863 l 488 763 q 496 743 488 751 q 515 735 504 735 l 706 735 q 725 743 717 735 q 733 763 733 751 l 733 851 q 742 871 733 863 q 761 879 750 879 l 807 879 q 826 871 818 879 q 835 851 835 863 l 835 763 q 843 743 835 751 q 863 735 851 735 l 872 735 m 893 431 q 913 422 904 431 q 921 403 921 414 l 921 357 q 913 338 921 346 q 893 329 904 329 l 504 329 q 485 321 493 329 q 476 301 476 313 l 476 257 q 485 238 476 246 q 504 229 493 229 l 844 229 q 878 215 864 229 q 893 181 893 200 l 893 -89 q 867 -183 893 -140 q 798 -252 842 -226 q 703 -278 754 -278 l 660 -278 q 640 -269 649 -278 q 632 -250 632 -261 l 632 -204 q 640 -185 632 -193 q 660 -176 649 -176 l 703 -176 q 765 -151 739 -176 q 792 -89 792 -125 l 792 114 q 788 124 792 119 q 778 128 783 128 l 504 128 q 485 119 493 128 q 476 100 476 111 l 476 -179 q 464 -208 476 -196 l 414 -258 q 394 -267 406 -267 q 375 -258 383 -267 l 343 -226 q 335 -207 335 -218 q 343 -186 335 -194 l 368 -161 q 375 -144 375 -154 l 375 315 q 361 329 375 329 l 326 329 q 307 338 315 329 q 299 357 299 346 l 299 403 q 307 422 299 414 q 326 431 315 431 l 532 431 q 551 439 543 431 q 560 458 560 447 l 560 533 q 568 553 560 544 q 588 561 576 561 l 633 561 q 653 553 644 561 q 661 533 661 544 l 661 458 q 669 439 661 447 q 689 431 678 431 l 893 431 z "},"催":{"ha":972,"x_min":53,"x_max":921,"o":"m 819 1025 q 828 1044 819 1036 q 847 1053 836 1053 l 893 1053 q 913 1044 904 1053 q 921 1025 921 1036 l 921 754 q 906 720 921 735 q 872 706 892 706 l 399 706 q 365 720 379 706 q 350 754 350 735 l 350 1025 q 358 1044 350 1036 q 378 1053 367 1053 l 424 1053 q 443 1044 435 1053 q 451 1025 451 1036 l 451 821 q 456 811 451 815 q 465 807 460 807 l 560 807 q 579 815 571 807 q 588 835 588 824 l 588 1083 q 596 1103 588 1094 q 615 1111 604 1111 l 661 1111 q 681 1103 672 1111 q 689 1083 689 1094 l 689 835 q 697 815 689 824 q 717 807 706 807 l 806 807 q 815 811 811 807 q 819 821 819 815 l 819 1025 m 178 1096 q 212 1081 197 1096 q 226 1047 226 1067 l 226 -250 q 218 -269 226 -261 q 199 -278 210 -278 l 153 -278 q 133 -269 142 -278 q 125 -250 125 -261 l 125 981 q 121 990 125 986 q 111 994 117 994 l 81 994 q 61 1003 69 994 q 53 1022 53 1011 l 53 1068 q 61 1088 53 1079 q 81 1096 69 1096 l 178 1096 m 708 663 q 728 654 719 663 q 736 635 736 646 l 736 575 q 744 556 736 564 q 764 547 753 547 l 893 547 q 913 539 904 547 q 921 519 921 531 l 921 474 q 913 454 921 463 q 893 446 904 446 l 764 446 q 744 438 753 446 q 736 418 736 429 l 736 333 q 744 314 736 322 q 764 306 753 306 l 893 306 q 913 297 904 306 q 921 278 921 289 l 921 232 q 913 213 921 221 q 893 204 904 204 l 764 204 q 744 196 753 204 q 736 176 736 188 l 736 93 q 744 73 736 81 q 764 65 753 65 l 893 65 q 913 57 904 65 q 921 38 921 49 l 921 -8 q 913 -28 921 -19 q 893 -36 904 -36 l 764 -36 q 744 -44 753 -36 q 736 -64 736 -53 l 736 -149 q 744 -168 736 -160 q 764 -176 753 -176 l 893 -176 q 913 -185 904 -176 q 921 -204 921 -193 l 921 -250 q 913 -269 921 -261 q 893 -278 904 -278 l 414 -278 q 379 -263 393 -278 q 365 -229 365 -249 l 365 533 q 361 543 365 539 q 351 547 357 547 l 331 547 q 311 556 319 547 q 303 575 303 564 l 303 621 q 311 640 303 632 q 331 649 319 649 l 417 649 q 451 634 438 649 q 465 600 465 619 l 465 575 q 474 556 465 564 q 493 547 482 547 l 607 547 q 626 556 618 547 q 635 575 635 564 l 635 635 q 643 654 635 646 q 663 663 651 663 l 708 663 m 607 306 q 626 314 618 306 q 635 333 635 322 l 635 418 q 626 438 635 429 q 607 446 618 446 l 493 446 q 474 438 482 446 q 465 418 465 429 l 465 333 q 474 314 465 322 q 493 306 482 306 l 607 306 m 607 65 q 626 73 618 65 q 635 93 635 81 l 635 176 q 626 196 635 188 q 607 204 618 204 l 493 204 q 474 196 482 204 q 465 176 465 188 l 465 93 q 474 73 465 81 q 493 65 482 65 l 607 65 m 607 -176 q 626 -168 618 -176 q 635 -149 635 -160 l 635 -64 q 626 -44 635 -53 q 607 -36 618 -36 l 493 -36 q 474 -44 482 -36 q 465 -64 465 -53 l 465 -162 q 469 -172 465 -168 q 479 -176 474 -176 l 607 -176 z "},"傲":{"ha":972,"x_min":51,"x_max":921,"o":"m 413 388 q 417 378 413 382 q 426 374 421 374 l 538 374 q 572 359 558 374 q 586 325 586 344 l 586 -229 q 572 -263 586 -249 q 538 -278 558 -278 l 469 -278 q 450 -269 458 -278 q 442 -250 442 -261 l 442 -204 q 450 -185 442 -193 q 469 -176 458 -176 l 472 -176 q 482 -172 478 -176 q 486 -162 486 -168 l 486 258 q 482 268 486 264 q 472 272 478 272 l 426 272 q 417 268 421 272 q 413 258 413 264 l 413 -250 q 405 -269 413 -261 q 385 -278 397 -278 l 340 -278 q 321 -269 329 -278 q 313 -250 313 -261 l 313 425 q 299 439 313 439 l 297 439 q 278 447 286 439 q 269 467 269 456 l 269 513 q 278 532 269 524 q 297 540 286 540 l 357 540 q 376 548 368 540 q 385 568 385 556 l 385 642 q 376 661 385 653 q 357 669 368 669 l 297 669 q 278 678 286 669 q 269 697 269 686 l 269 743 q 278 763 269 754 q 297 771 286 771 l 357 771 q 376 779 368 771 q 385 799 385 788 l 385 896 q 376 915 385 907 q 357 924 368 924 l 297 924 q 278 932 286 924 q 269 951 269 940 l 269 997 q 278 1017 269 1008 q 297 1025 286 1025 l 357 1025 q 376 1033 368 1025 q 385 1053 385 1040 l 385 1083 q 393 1103 385 1094 q 413 1111 401 1111 l 444 1111 q 476 1103 465 1111 q 486 1083 486 1096 l 486 1053 q 494 1033 486 1040 q 514 1025 503 1025 l 558 1025 q 578 1017 571 1025 q 586 997 586 1008 l 586 951 q 578 932 586 940 q 558 924 571 924 l 514 924 q 494 915 503 924 q 486 896 486 907 l 486 799 q 494 779 486 788 q 514 771 503 771 l 558 771 q 578 763 571 771 q 586 743 586 754 l 586 697 q 578 678 586 686 q 558 669 571 669 l 514 669 q 494 661 503 669 q 486 642 486 653 l 486 568 q 494 548 486 556 q 514 540 503 540 l 558 540 q 578 532 571 540 q 586 513 586 524 l 586 467 q 578 447 586 456 q 558 439 571 439 l 426 439 q 417 435 421 439 q 413 425 413 431 l 413 388 m 903 924 q 889 910 889 924 l 889 -62 q 876 -92 889 -82 l 844 -122 q 840 -132 840 -126 q 844 -142 840 -137 l 900 -197 q 910 -218 910 -207 q 900 -237 910 -229 l 869 -268 q 849 -276 861 -276 q 829 -268 838 -276 l 774 -212 q 764 -208 769 -208 q 754 -212 758 -208 l 699 -268 q 678 -276 690 -276 q 658 -268 667 -276 l 626 -236 q 618 -217 618 -228 q 626 -197 618 -206 l 682 -142 q 686 -132 686 -137 q 682 -122 686 -126 l 651 -92 q 639 -62 639 -79 l 639 856 q 647 875 639 867 q 667 883 656 883 l 713 883 q 732 875 724 883 q 740 856 740 867 l 740 -32 q 743 -39 740 -36 l 754 -50 q 764 -54 758 -54 q 774 -50 769 -54 l 785 -39 q 788 -32 788 -36 l 788 910 q 774 924 788 924 l 682 924 q 647 938 661 924 q 632 974 632 953 l 632 1083 q 640 1103 632 1094 q 660 1111 649 1111 l 706 1111 q 725 1103 717 1111 q 733 1083 733 1094 l 733 1042 q 747 1025 733 1025 l 893 1025 q 913 1017 904 1025 q 921 997 921 1008 l 921 938 q 907 924 921 924 l 903 924 m 176 1097 q 211 1083 197 1097 q 225 1049 225 1068 l 225 -250 q 217 -269 225 -261 q 197 -278 208 -278 l 151 -278 q 132 -269 140 -278 q 124 -250 124 -261 l 124 982 q 119 992 124 988 q 110 996 115 996 l 79 996 q 60 1004 68 996 q 51 1024 51 1013 l 51 1069 q 60 1089 51 1081 q 79 1097 68 1097 l 176 1097 z "},"僵":{"ha":972,"x_min":53,"x_max":921,"o":"m 299 1083 q 307 1103 299 1094 q 326 1111 315 1111 l 893 1111 q 913 1103 904 1111 q 921 1083 921 1094 l 921 1038 q 913 1018 921 1026 q 893 1010 904 1010 l 326 1010 q 307 1018 315 1010 q 299 1038 299 1026 l 299 1083 m 178 1097 q 212 1083 197 1097 q 226 1049 226 1068 l 226 -250 q 218 -269 226 -261 q 199 -278 210 -278 l 153 -278 q 133 -269 142 -278 q 125 -250 125 -261 l 125 982 q 121 992 125 988 q 111 996 117 996 l 81 996 q 61 1004 69 996 q 53 1024 53 1013 l 53 1069 q 61 1089 53 1081 q 81 1097 69 1097 l 178 1097 m 313 901 q 327 935 313 921 q 361 950 342 950 l 857 950 q 892 935 878 950 q 906 901 906 921 l 906 575 q 892 541 906 556 q 857 526 878 526 l 361 526 q 327 541 342 526 q 313 575 313 556 l 313 901 m 558 835 q 544 849 558 849 l 428 849 q 418 844 422 849 q 414 835 414 840 l 414 803 q 418 793 414 797 q 428 789 422 789 l 544 789 q 554 793 550 789 q 558 803 558 797 l 558 835 m 790 789 q 800 793 796 789 q 804 803 804 797 l 804 835 q 790 849 804 849 l 674 849 q 664 844 668 849 q 660 835 660 840 l 660 803 q 664 793 660 797 q 674 789 668 789 l 790 789 m 428 688 q 418 683 422 688 q 414 674 414 679 l 414 642 q 418 632 414 636 q 428 628 422 628 l 544 628 q 554 632 550 628 q 558 642 558 636 l 558 674 q 544 688 558 688 l 428 688 m 660 642 q 664 632 660 636 q 674 628 668 628 l 790 628 q 800 632 796 628 q 804 642 804 636 l 804 674 q 790 688 804 688 l 674 688 q 664 683 668 688 q 660 674 660 679 l 660 642 m 326 367 q 307 374 315 367 q 299 394 299 382 l 299 439 q 307 459 299 451 q 326 467 315 467 l 893 467 q 913 459 904 467 q 921 439 921 451 l 921 394 q 913 374 921 382 q 893 367 904 367 l 326 367 m 313 258 q 327 292 313 278 q 361 307 342 307 l 857 307 q 892 292 878 307 q 906 258 906 278 l 906 -68 q 892 -102 906 -87 q 857 -117 878 -117 l 361 -117 q 327 -102 342 -117 q 313 -68 313 -87 l 313 258 m 558 192 q 554 201 558 197 q 544 206 550 206 l 428 206 q 418 201 422 206 q 414 192 414 197 l 414 160 q 418 150 414 154 q 428 146 422 146 l 544 146 q 558 160 558 146 l 558 192 m 790 146 q 804 160 804 146 l 804 192 q 800 201 804 197 q 790 206 796 206 l 674 206 q 664 201 668 206 q 660 192 660 197 l 660 160 q 664 150 660 154 q 674 146 668 146 l 790 146 m 428 44 q 418 40 422 44 q 414 31 414 36 l 414 -1 q 418 -11 414 -7 q 428 -15 422 -15 l 544 -15 q 558 -1 558 -15 l 558 31 q 554 40 558 36 q 544 44 550 44 l 428 44 m 660 -1 q 664 -11 660 -7 q 674 -15 668 -15 l 790 -15 q 804 -1 804 -15 l 804 31 q 800 40 804 36 q 790 44 796 44 l 674 44 q 664 40 668 44 q 660 31 660 36 l 660 -1 m 326 -278 q 307 -269 315 -278 q 299 -250 299 -261 l 299 -204 q 307 -185 299 -193 q 326 -176 315 -176 l 893 -176 q 913 -185 904 -176 q 921 -204 921 -193 l 921 -250 q 913 -269 921 -261 q 893 -278 904 -278 l 326 -278 z "},"儿":{"ha":972,"x_min":51,"x_max":922,"o":"m 208 -36 q 213 -26 213 -32 l 213 1083 q 221 1103 213 1094 q 240 1111 229 1111 l 286 1111 q 306 1103 297 1111 q 314 1083 314 1094 l 314 -54 q 300 -89 314 -72 l 131 -258 q 111 -265 124 -265 q 92 -258 99 -265 l 58 -225 q 51 -206 51 -218 q 58 -186 51 -196 l 208 -36 m 894 -176 q 914 -185 906 -176 q 922 -204 922 -193 l 922 -250 q 914 -269 922 -261 q 894 -278 906 -278 l 793 -278 q 698 -252 742 -278 q 628 -183 654 -226 q 603 -89 603 -140 l 603 1083 q 611 1103 603 1094 q 631 1111 619 1111 l 676 1111 q 696 1103 688 1111 q 704 1083 704 1094 l 704 -89 q 731 -151 704 -125 q 793 -176 757 -176 l 894 -176 z "},"元":{"ha":972,"x_min":53,"x_max":921,"o":"m 864 1111 q 883 1103 875 1111 q 892 1083 892 1094 l 892 1038 q 883 1018 892 1026 q 864 1010 875 1010 l 110 1010 q 90 1018 99 1010 q 82 1038 82 1026 l 82 1083 q 90 1103 82 1094 q 110 1111 99 1111 l 864 1111 m 921 647 q 913 628 921 636 q 893 619 904 619 l 760 619 q 740 611 749 619 q 732 592 732 603 l 732 -89 q 758 -151 732 -125 q 821 -176 785 -176 l 893 -176 q 913 -185 904 -176 q 921 -204 921 -193 l 921 -250 q 913 -269 921 -261 q 893 -278 904 -278 l 821 -278 q 726 -252 769 -278 q 656 -183 682 -226 q 631 -89 631 -140 l 631 592 q 623 611 631 603 q 603 619 615 619 l 356 619 q 336 611 344 619 q 328 592 328 603 l 328 -54 q 313 -89 328 -74 l 132 -269 q 113 -278 125 -278 q 93 -269 101 -278 l 61 -237 q 53 -218 53 -229 q 61 -197 53 -206 l 222 -36 q 226 -26 226 -35 l 226 592 q 218 611 226 603 q 199 619 210 619 l 81 619 q 61 628 69 619 q 53 647 53 636 l 53 693 q 61 713 53 704 q 81 721 69 721 l 893 721 q 913 713 904 721 q 921 693 921 704 l 921 647 z "},"光":{"ha":972,"x_min":53,"x_max":921,"o":"m 921 431 q 913 411 921 419 q 893 403 904 403 l 746 403 q 726 394 735 403 q 718 375 718 386 l 718 -89 q 744 -151 718 -125 q 807 -176 771 -176 l 893 -176 q 913 -185 904 -176 q 921 -204 921 -193 l 921 -250 q 913 -269 921 -261 q 893 -278 904 -278 l 807 -278 q 712 -252 756 -278 q 642 -183 668 -226 q 617 -89 617 -140 l 617 375 q 608 394 617 386 q 589 403 600 403 l 333 403 q 314 394 322 403 q 306 375 306 386 l 306 -126 q 292 -161 306 -147 l 188 -265 q 168 -274 182 -274 q 149 -265 157 -274 l 117 -233 q 108 -214 108 -225 q 117 -193 108 -201 l 201 -108 q 206 -99 206 -107 l 206 375 q 197 394 206 386 q 178 403 189 403 l 81 403 q 61 411 69 403 q 53 431 53 419 l 53 476 q 61 496 53 488 q 81 504 69 504 l 408 504 q 428 512 419 504 q 436 532 436 519 l 436 1083 q 444 1103 436 1094 q 464 1111 453 1111 l 510 1111 q 529 1103 521 1111 q 538 1083 538 1094 l 538 532 q 546 512 538 519 q 565 504 554 504 l 893 504 q 913 496 904 504 q 921 476 921 488 l 921 431 m 199 1032 q 218 1024 210 1032 q 226 1004 226 1015 l 226 596 q 218 576 226 585 q 199 568 210 568 l 153 568 q 133 576 142 568 q 125 596 125 585 l 125 1004 q 133 1024 125 1015 q 153 1032 142 1032 l 199 1032 m 821 1032 q 840 1024 832 1032 q 849 1004 849 1015 l 849 596 q 840 576 849 585 q 821 568 832 568 l 775 568 q 756 576 764 568 q 747 596 747 585 l 747 1004 q 756 1024 747 1015 q 775 1032 764 1032 l 821 1032 z "},"克":{"ha":972,"x_min":53,"x_max":921,"o":"m 921 922 q 913 903 921 911 q 893 894 904 894 l 565 894 q 546 886 554 894 q 538 867 538 878 l 538 778 q 546 758 538 767 q 565 750 554 750 l 785 750 q 820 735 806 750 q 835 700 835 721 l 835 293 q 820 258 835 272 q 785 243 806 243 l 739 243 q 719 235 728 243 q 711 215 711 226 l 711 -162 q 725 -176 711 -176 l 893 -176 q 913 -185 904 -176 q 921 -204 921 -193 l 921 -250 q 913 -269 921 -261 q 893 -278 904 -278 l 660 -278 q 624 -263 639 -278 q 610 -228 610 -249 l 610 215 q 601 235 610 226 q 582 243 593 243 l 378 243 q 358 235 367 243 q 350 215 350 226 l 350 -65 q 338 -94 350 -82 l 167 -265 q 147 -274 158 -274 q 128 -265 136 -274 l 96 -233 q 88 -212 88 -225 q 96 -193 88 -201 l 242 -47 q 249 -31 249 -40 l 249 215 q 240 235 249 226 q 221 243 232 243 l 190 243 q 155 258 169 243 q 140 293 140 272 l 140 700 q 155 735 140 721 q 190 750 169 750 l 408 750 q 428 758 419 750 q 436 778 436 767 l 436 867 q 428 886 436 878 q 408 894 419 894 l 81 894 q 61 903 69 894 q 53 922 53 911 l 53 968 q 61 988 53 979 q 81 996 69 996 l 408 996 q 428 1004 419 996 q 436 1024 436 1013 l 436 1083 q 444 1103 436 1094 q 464 1111 453 1111 l 510 1111 q 529 1103 521 1111 q 538 1083 538 1094 l 538 1024 q 546 1004 538 1013 q 565 996 554 996 l 893 996 q 913 988 904 996 q 921 968 921 979 l 921 922 m 719 344 q 733 358 733 344 l 733 635 q 719 649 733 649 l 256 649 q 242 635 242 649 l 242 358 q 256 344 242 344 l 719 344 z "},"免":{"ha":972,"x_min":50,"x_max":924,"o":"m 865 292 q 851 257 865 271 q 817 243 836 243 l 529 243 q 507 232 514 243 l 136 -267 q 114 -278 128 -278 q 97 -272 104 -278 l 61 -244 q 50 -222 50 -236 q 56 -206 50 -212 l 372 221 q 375 229 375 226 q 371 239 375 235 q 361 243 367 243 l 161 243 q 127 257 142 243 q 113 292 113 271 l 113 729 q 127 764 113 750 q 161 778 142 778 l 679 778 q 699 786 690 778 q 707 806 707 794 l 707 924 q 703 933 707 929 q 693 938 699 938 l 147 938 q 113 951 128 938 q 99 986 99 965 l 99 1083 q 107 1103 99 1094 q 126 1111 115 1111 l 172 1111 q 192 1103 183 1111 q 200 1083 200 1094 l 200 1053 q 214 1039 200 1039 l 760 1039 q 794 1024 779 1039 q 808 990 808 1010 l 808 788 q 817 778 808 778 q 851 764 836 778 q 865 729 865 750 l 865 292 m 228 676 q 218 672 222 676 q 214 663 214 668 l 214 358 q 218 349 214 353 q 228 344 222 344 l 411 344 q 431 353 422 344 q 439 372 439 361 l 439 649 q 431 668 439 660 q 411 676 422 676 l 228 676 m 750 344 q 764 358 764 344 l 764 663 q 750 676 764 676 l 568 676 q 549 668 557 676 q 540 649 540 660 l 540 372 q 549 353 540 361 q 568 344 557 344 l 750 344 m 896 -176 q 915 -185 907 -176 q 924 -204 924 -193 l 924 -250 q 915 -269 924 -261 q 896 -278 907 -278 l 650 -278 q 555 -252 599 -278 q 485 -183 511 -226 q 460 -89 460 -140 l 460 135 q 468 155 460 147 q 488 163 476 163 l 533 163 q 553 155 544 163 q 561 135 561 147 l 561 -89 q 588 -151 561 -125 q 650 -176 614 -176 l 896 -176 z "},"兑":{"ha":972,"x_min":54,"x_max":918,"o":"m 282 894 q 301 903 293 894 q 310 922 310 911 l 310 1083 q 301 1103 310 1094 q 282 1111 293 1111 l 236 1111 q 217 1103 225 1111 q 208 1083 208 1094 l 208 922 q 217 903 208 911 q 236 894 225 894 l 282 894 m 731 894 q 750 903 742 894 q 758 922 758 911 l 758 1083 q 750 1103 758 1094 q 731 1111 742 1111 l 685 1111 q 665 1103 674 1111 q 657 1083 657 1094 l 657 922 q 665 903 657 911 q 685 894 674 894 l 731 894 m 811 301 q 845 315 831 301 q 860 350 860 329 l 860 817 q 845 851 860 836 q 811 865 831 865 l 156 865 q 122 851 136 865 q 107 817 107 836 l 107 350 q 122 315 107 329 q 156 301 136 301 l 811 301 m 222 403 q 213 407 217 403 q 208 417 208 411 l 208 750 q 213 760 208 756 q 222 764 217 764 l 744 764 q 758 750 758 764 l 758 417 q 744 403 758 403 l 222 403 m 94 -265 q 115 -274 103 -274 q 135 -265 126 -274 l 325 -74 q 339 -40 339 -60 l 339 244 q 331 264 339 256 q 311 272 322 272 l 265 272 q 246 264 254 272 q 238 244 238 256 l 238 -7 q 229 -26 238 -18 l 63 -193 q 54 -214 54 -201 q 63 -233 54 -225 l 94 -265 m 890 -278 q 910 -269 901 -278 q 918 -250 918 -261 l 918 -204 q 910 -185 918 -193 q 890 -176 901 -176 l 715 -176 q 701 -162 701 -176 l 701 244 q 693 264 701 256 q 674 272 685 272 l 628 272 q 608 264 617 272 q 600 244 600 256 l 600 -229 q 614 -263 600 -249 q 649 -278 628 -278 l 890 -278 z "},"兔":{"ha":972,"x_min":50,"x_max":924,"o":"m 865 292 q 851 258 865 272 q 817 243 836 243 l 528 243 q 506 232 514 243 l 136 -267 q 114 -278 128 -278 q 97 -272 108 -278 l 60 -244 q 50 -222 50 -236 q 54 -206 50 -214 l 372 221 q 375 229 375 226 q 371 239 375 235 q 361 243 367 243 l 161 243 q 127 258 142 243 q 113 292 113 272 l 113 729 q 127 764 113 750 q 161 778 142 778 l 678 778 q 697 786 689 778 q 706 806 706 794 l 706 924 q 692 938 706 938 l 147 938 q 113 952 128 938 q 99 986 99 967 l 99 1083 q 107 1103 99 1094 q 126 1111 115 1111 l 172 1111 q 192 1103 183 1111 q 200 1083 200 1094 l 200 1053 q 214 1039 200 1039 l 758 1039 q 793 1024 779 1039 q 807 990 807 1010 l 807 788 q 817 778 807 778 q 851 764 836 778 q 865 729 865 750 l 865 292 m 228 676 q 218 672 222 676 q 214 663 214 668 l 214 358 q 218 349 214 353 q 228 344 222 344 l 411 344 q 431 353 422 344 q 439 372 439 361 l 439 649 q 431 669 439 661 q 411 676 422 676 l 228 676 m 750 344 q 764 358 764 344 l 764 663 q 750 676 764 676 l 568 676 q 549 669 557 676 q 540 649 540 661 l 540 372 q 549 353 540 361 q 568 344 557 344 l 750 344 m 896 -176 q 915 -185 907 -176 q 924 -204 924 -193 l 924 -250 q 915 -269 924 -261 q 896 -278 907 -278 l 650 -278 q 555 -252 599 -278 q 485 -183 511 -226 q 460 -89 460 -140 l 460 136 q 468 156 460 147 q 488 164 476 164 l 533 164 q 553 156 544 164 q 561 136 561 147 l 561 -89 q 588 -151 561 -125 q 650 -176 614 -176 l 896 -176 m 693 89 q 701 108 693 100 q 721 117 710 117 l 767 117 q 786 108 778 117 q 794 89 794 100 l 794 -53 q 786 -72 794 -64 q 767 -81 778 -81 l 721 -81 q 701 -72 710 -81 q 693 -53 693 -64 l 693 89 z "}}}
